<!-- Generator: Adobe Illustrator 24.0.2, SVG Export Plug-In  -->
<svg version="1.1" xmlns="http://www.w3.org/2000/svg" xmlns:xlink="http://www.w3.org/1999/xlink" x="0px" y="0px"
	 width="450.34px" height="400.31px" viewBox="0 0 450.34 400.31" style="enable-background:new 0 0 450.34 400.31;"
	 xml:space="preserve">
<style type="text/css">
	.st0{fill:#075c3f;}
	.st1{fill:#25815c;}
	.st2{fill:#1f7b57;}
	.st3{fill:#fdb341;}
	.st4{fill:#FFFFFF;}
	.st5{font-family:'Montserrat-ExtraBold';}
	.st6{font-size:6.0285px;}
	.st7{fill:#f7f7f7;}
	.st8{fill:#DDD6C7;}
	.st9{fill:#1f7b57;}
	.st10{fill:#282423;}
	.st11{fill:#F0D0C6;}
	.st12{fill:#D8A99C;}
	.st13{font-size:30.3051px;}
</style>
<defs>
</defs>
<g>
	<g>
		<path class="st0" d="M384.63,322.17H62.67c-6.36,0-11.51-5.15-11.51-11.51V116.32c0-6.36,5.15-11.51,11.51-11.51h321.97
			c6.36,0,11.51,5.15,11.51,11.51v194.34C396.14,317.02,390.99,322.17,384.63,322.17z"/>
		<path class="st1" d="M387.64,117.97v191.04c0,2.49-2.02,4.52-4.52,4.52H64.18c-2.49,0-4.52-2.03-4.52-4.52V117.97
			c0-2.49,2.03-4.52,4.52-4.52h318.93c1,0,1.92,0.33,2.67,0.87C386.91,115.14,387.64,116.48,387.64,117.97z"/>
	</g>
	<g>
		<path class="st0" d="M422.12,309.63v3.26c0,5.24-1.84,10.05-4.92,13.81c-4.01,4.88-10.08,8-16.89,8H47c-6.81,0-12.88-3.12-16.89-8
			c-3.08-3.76-4.92-8.58-4.92-13.81v-3.26H422.12z"/>
		<path class="st2" d="M417.2,326.71c-4.01,4.88-10.08,8-16.89,8H47c-6.81,0-12.88-3.12-16.89-8H417.2z"/>
	</g>
	<g>
		<g>
			<path class="st3" d="M375.3,131.78H72c-2.66,0-4.82-2.16-4.82-4.82v-0.81c0-2.66,2.16-4.82,4.82-4.82H375.3
				c2.66,0,4.82,2.16,4.82,4.82v0.81C380.12,129.62,377.96,131.78,375.3,131.78z"/>
			<g>
				<path class="st4" d="M358.28,126.56c0,1.27-1.03,2.3-2.3,2.3s-2.3-1.03-2.3-2.3c0-1.27,1.03-2.3,2.3-2.3
					S358.28,125.29,358.28,126.56z"/>
				<path class="st4" d="M366.55,126.56c0,1.27-1.03,2.3-2.3,2.3c-1.27,0-2.3-1.03-2.3-2.3c0-1.27,1.03-2.3,2.3-2.3
					C365.52,124.26,366.55,125.29,366.55,126.56z"/>
				<path class="st4" d="M374.81,126.56c0,1.27-1.03,2.3-2.3,2.3s-2.3-1.03-2.3-2.3c0-1.27,1.03-2.3,2.3-2.3
					S374.81,125.29,374.81,126.56z"/>
			</g>
		</g>
		<g>
			<rect x="68.47" y="137.91" class="st0" width="11.27" height="1.08"/>
			<rect x="68.47" y="141.14" class="st0" width="11.27" height="1.08"/>
			<rect x="68.47" y="144.38" class="st0" width="11.27" height="1.08"/>
		</g>
		<g>
			<path class="st0" d="M244.44,303.18h-41.58c-2.57,0-4.66-2.09-4.66-4.66v-0.79c0-2.57,2.09-4.66,4.66-4.66h41.58
				c2.58,0,4.66,2.09,4.66,4.66v0.79C249.1,301.09,247.02,303.18,244.44,303.18z"/>
			<g>
				<text transform="matrix(1 0 0 1 201.483 300.376)" class="st4 st5 st6">ADD TO CART</text>
			</g>
		</g>
		<g>
			<path class="st0" d="M376.96,138.22h-0.89c0-1.32-1.07-2.39-2.39-2.39c-1.32,0-2.39,1.07-2.39,2.39h-0.89l-1.16,7.44h8.88
				L376.96,138.22z M373.68,136.55c1.04,0,1.7,0.63,1.7,1.67H372C372,137.18,372.64,136.55,373.68,136.55z"/>
			<path class="st0" d="M364.1,144.67l-1.27-1.27c0.52-0.71,0.83-1.59,0.83-2.54c0-2.38-1.94-4.32-4.32-4.32
				c-2.38,0-4.32,1.94-4.32,4.32c0,2.38,1.94,4.32,4.32,4.32c0.95,0,1.82-0.31,2.54-0.83l1.27,1.27c0.13,0.13,0.3,0.2,0.47,0.2
				s0.34-0.07,0.47-0.2C364.36,145.35,364.36,144.93,364.1,144.67z M356.37,140.87c0-1.64,1.34-2.98,2.98-2.98
				c1.64,0,2.98,1.34,2.98,2.98c0,1.64-1.34,2.98-2.98,2.98C357.71,143.84,356.37,142.51,356.37,140.87z"/>
		</g>
		<g>
			<path class="st2" d="M165.67,302.96c-0.28,0-0.55-0.11-0.77-0.32l-3.76-3.76c-0.42-0.42-0.42-1.11,0-1.53l3.76-3.75
				c0.42-0.42,1.11-0.42,1.53,0c0.42,0.42,0.42,1.11,0,1.53l-2.99,2.99l2.99,2.99c0.42,0.42,0.42,1.11,0,1.53
				C166.23,302.85,165.95,302.96,165.67,302.96z"/>
			<path class="st2" d="M281.63,302.96c-0.28,0-0.55-0.11-0.77-0.32c-0.42-0.42-0.42-1.11,0-1.53l2.99-2.99l-2.99-2.99
				c-0.42-0.42-0.42-1.11,0-1.53c0.42-0.42,1.11-0.42,1.53,0l3.76,3.75c0.42,0.42,0.42,1.11,0,1.53l-3.76,3.76
				C282.18,302.85,281.91,302.96,281.63,302.96z"/>
		</g>
		<g>
			<g>
				<g>
					<rect x="262.11" y="166.18" class="st3" width="102.7" height="102.69"/>
					<rect x="266.34" y="171.31" class="st7" width="94.24" height="80.06"/>
					<g>
						<rect x="266.34" y="255.83" class="st7" width="94.24" height="1.87"/>
						<rect x="266.34" y="259.79" class="st7" width="47.12" height="1.87"/>
						<rect x="266.34" y="263.75" class="st7" width="65.7" height="1.87"/>
					</g>
					
						<ellipse transform="matrix(0.1615 -0.9869 0.9869 0.1615 54.2816 486.5704)" class="st3" cx="313.46" cy="211.34" rx="25.29" ry="25.29"/>
				</g>
				<rect x="262.11" y="166.18" class="st8" width="33.37" height="102.69"/>
			</g>
			<g>
				<g>
					<rect x="82.49" y="166.18" class="st3" width="102.69" height="102.69"/>
					<rect x="86.72" y="171.31" class="st7" width="94.24" height="80.06"/>
					<g>
						<rect x="86.72" y="255.83" class="st7" width="94.24" height="1.87"/>
						<rect x="86.72" y="259.79" class="st7" width="47.12" height="1.87"/>
						<rect x="86.72" y="263.75" class="st7" width="65.7" height="1.87"/>
					</g>
					
						<ellipse transform="matrix(0.1615 -0.9869 0.9869 0.1615 -96.341 309.3036)" class="st3" cx="133.84" cy="211.34" rx="25.29" ry="25.29"/>
				</g>
				<rect x="151.82" y="166.18" class="st8" width="33.37" height="102.69"/>
			</g>
			<g>
				<g>
					<rect x="161.92" y="141.14" class="st0" width="123.47" height="143.38"/>
					<rect x="167.4" y="146.63" class="st3" width="112.49" height="112.49"/>
					<g>
						<rect x="167.4" y="263.39" class="st2" width="112.49" height="2.24"/>
						<rect x="167.4" y="268.11" class="st2" width="56.24" height="2.24"/>
						<rect x="167.4" y="272.83" class="st2" width="78.43" height="2.24"/>
					</g>
					<path class="st3" d="M278.03,275.06c0.5-0.5,0.81-1.19,0.81-1.95c0-1.53-1.24-2.76-2.76-2.76c-1.14,0-2.11,0.69-2.54,1.67
						c-0.42-0.98-1.4-1.67-2.54-1.67c-1.53,0-2.76,1.24-2.76,2.76c0,0.76,0.31,1.45,0.81,1.95h0l0,0c0,0,0,0,0,0l4.49,4.54
						L278.03,275.06C278.03,275.07,278.03,275.06,278.03,275.06L278.03,275.06L278.03,275.06z"/>
				</g>
				<g>
					<ellipse class="st7" cx="223.65" cy="237.7" rx="46.99" ry="4.47"/>
					<g>
						<g>
							<polygon class="st2" points="196.01,218.1 211.1,218.1 211.1,197.45 190.98,197.45 							"/>
							<path class="st2" d="M214.81,218.1v-20.65h-9.19c-2.1,0-3.68,1.91-3.28,3.97l3.21,16.68H214.81z"/>
							<path class="st0" d="M198.13,218.1v-20.65h-9.19c-2.1,0-3.68,1.91-3.28,3.97l3.21,16.68H198.13z"/>
						</g>
						<g>
							<path class="st2" d="M221.61,218.1v-45.15h30.34c3.6,0,6.51,2.91,6.51,6.51v38.64H221.61z"/>
							<path class="st0" d="M211.9,218.1v-40.14c0-2.77,2.24-5.01,5.01-5.01h26.83c2.77,0,5.01,2.24,5.01,5.01v40.14H211.9z"/>
						</g>
						<g>
							<g>
								<path class="st2" d="M249.17,218.1v-20.65h9.19c2.1,0,3.68,1.91,3.28,3.97l-3.21,16.68H249.17z"/>
								<polygon class="st2" points="251.29,218.1 236.2,218.1 236.2,197.45 256.32,197.45 								"/>
								<path class="st0" d="M232.49,218.1v-20.65h9.19c2.1,0,3.68,1.91,3.28,3.97l-3.21,16.68H232.49z"/>
							</g>
							<path class="st9" d="M232.49,218.1c-0.11-1.72-0.21-3.44-0.26-5.16c-0.05-1.72-0.12-3.44-0.13-5.16l-0.04-5.16l0.05-5.16
								l0-0.38l0.37,0c1.53,0.02,3.06,0.09,4.6,0.13c1.53,0.06,3.06,0.13,4.6,0.24c-1.53,0.11-3.06,0.19-4.6,0.24
								c-1.53,0.04-3.06,0.11-4.6,0.13l0.37-0.37l0.05,5.16l-0.04,5.16c0,1.72-0.07,3.44-0.13,5.16
								C232.7,214.66,232.6,216.38,232.49,218.1z"/>
						</g>
						<g>
							<path class="st2" d="M258.45,218.1h-69.59l-2.06,14.74c-0.36,2.57,1.64,4.86,4.23,4.86h65.64c2.64,0,4.64-2.37,4.21-4.97
								L258.45,218.1z"/>
							<path class="st0" d="M241.76,218.1h-52.9l-2.09,14.98c-0.34,2.44,1.55,4.61,4.01,4.61h46.92c2.24,0,4.05-1.81,4.05-4.05
								V218.1z"/>
							<path class="st9" d="M241.76,218.1c-4.41,0.16-8.82,0.29-13.22,0.36c-4.41,0.08-8.82,0.16-13.22,0.16
								c-4.41,0.01-8.82,0.09-13.22,0.04l-13.22-0.09l0.47-0.4c-0.72,4.4-1.44,8.79-2.31,13.17c0.36-4.45,0.87-8.87,1.38-13.3
								l0.05-0.4l0.42,0l13.22-0.09c4.41-0.05,8.82,0.03,13.22,0.04c4.41,0.01,8.82,0.08,13.22,0.16
								C232.94,217.81,237.35,217.94,241.76,218.1z"/>
						</g>
					</g>
				</g>
			</g>
		</g>
	</g>
</g>
<g>
	<g>
		<path class="st3" d="M280.22,375.81h-75.95c-0.47,0-0.89-0.3-1.03-0.75l-19.45-60.34c-0.11-0.33-0.05-0.69,0.16-0.97
			c0.2-0.28,0.53-0.45,0.88-0.45h114.86c0.35,0,0.67,0.17,0.88,0.45c0.2,0.28,0.26,0.64,0.16,0.97l-19.45,60.34
			C281.11,375.5,280.69,375.81,280.22,375.81z M205.06,373.64h74.37l18.76-58.17H186.3L205.06,373.64z"/>
		<path class="st3" d="M241.63,375.81c-0.6,0-1.08-0.49-1.08-1.08v-60.34c0-0.6,0.49-1.08,1.08-1.08c0.6,0,1.08,0.48,1.08,1.08
			v60.34C242.71,375.32,242.23,375.81,241.63,375.81z"/>
		<path class="st3" d="M233.37,375.81c-0.57,0-1.04-0.44-1.08-1.01l-4-60.34c-0.04-0.6,0.41-1.11,1.01-1.15
			c0.59-0.03,1.11,0.41,1.15,1.01l4,60.34c0.04,0.6-0.41,1.11-1.01,1.15C233.42,375.81,233.39,375.81,233.37,375.81z"/>
		<path class="st3" d="M225.47,375.81c-0.52,0-0.98-0.38-1.07-0.91l-9.6-60.34c-0.09-0.59,0.31-1.15,0.9-1.24
			c0.6-0.1,1.15,0.31,1.24,0.9l9.6,60.34c0.09,0.59-0.31,1.15-0.9,1.24C225.59,375.8,225.53,375.81,225.47,375.81z"/>
		<path class="st3" d="M214.99,375.81c-0.49,0-0.94-0.34-1.05-0.84l-14.23-60.34c-0.14-0.58,0.22-1.17,0.81-1.3
			c0.58-0.13,1.17,0.22,1.3,0.81l14.23,60.34c0.14,0.58-0.22,1.17-0.81,1.3C215.15,375.8,215.07,375.81,214.99,375.81z"/>
		<path class="st3" d="M249.88,375.81c-0.02,0-0.05,0-0.07,0c-0.6-0.04-1.05-0.56-1.01-1.15l4.01-60.34
			c0.04-0.6,0.56-1.04,1.15-1.01c0.6,0.04,1.05,0.56,1.01,1.15l-4.01,60.34C250.93,375.37,250.45,375.81,249.88,375.81z"/>
		<path class="st3" d="M257.78,375.81c-0.06,0-0.11,0-0.17-0.01c-0.59-0.09-0.99-0.65-0.9-1.24l9.6-60.34c0.09-0.59,0.64-1,1.24-0.9
			c0.59,0.09,0.99,0.65,0.9,1.24l-9.6,60.34C258.76,375.43,258.3,375.81,257.78,375.81z"/>
		<path class="st3" d="M268.27,375.81c-0.08,0-0.17-0.01-0.25-0.03c-0.58-0.14-0.94-0.72-0.81-1.3l14.23-60.34
			c0.14-0.58,0.72-0.94,1.3-0.81c0.58,0.14,0.94,0.72,0.81,1.3l-14.23,60.34C269.2,375.47,268.76,375.81,268.27,375.81z"/>
		<g>
			<path class="st3" d="M284.32,363.06h-84.17c-0.6,0-1.08-0.49-1.08-1.08s0.49-1.08,1.08-1.08h84.17c0.6,0,1.08,0.48,1.08,1.08
				S284.92,363.06,284.32,363.06z"/>
			<path class="st3" d="M289.5,347.04H195c-0.6,0-1.08-0.49-1.08-1.08c0-0.6,0.49-1.08,1.08-1.08h94.5c0.6,0,1.08,0.48,1.08,1.08
				C290.58,346.56,290.1,347.04,289.5,347.04z"/>
			<path class="st3" d="M294.66,331.03H189.83c-0.6,0-1.08-0.48-1.08-1.08c0-0.6,0.49-1.08,1.08-1.08h104.83
				c0.6,0,1.08,0.49,1.08,1.08C295.74,330.54,295.26,331.03,294.66,331.03z"/>
		</g>
	</g>
	<g>
		<ellipse class="st10" cx="311.26" cy="300.38" rx="4.28" ry="2.82"/>
		<path class="st3" d="M299.67,315.46c-0.11,0-0.22-0.02-0.33-0.05c-0.57-0.18-0.88-0.8-0.7-1.36l4.51-14
			c0.15-0.45,0.56-0.75,1.03-0.75h6.62c0.6,0,1.08,0.49,1.08,1.08s-0.48,1.08-1.08,1.08h-5.83l-4.27,13.25
			C300.56,315.17,300.13,315.46,299.67,315.46z"/>
	</g>
	<path class="st3" d="M276.69,386.75h-69.6c-0.6,0-1.08-0.48-1.08-1.08c0-0.6,0.49-1.08,1.08-1.08h68.81l5.56-17.26
		c0.18-0.57,0.8-0.88,1.36-0.7c0.57,0.18,0.88,0.8,0.7,1.36L277.72,386C277.58,386.45,277.16,386.75,276.69,386.75z"/>
	<g>
		<g>
			<circle class="st10" cx="259.63" cy="395.59" r="4.72"/>
			<path class="st3" d="M259.63,396.67c-0.6,0-1.08-0.48-1.08-1.08v-9.92c0-0.6,0.49-1.08,1.08-1.08s1.08,0.48,1.08,1.08v9.92
				C260.71,396.19,260.23,396.67,259.63,396.67z"/>
		</g>
		<g>
			<path class="st10" d="M228.75,395.59c0,2.6-2.11,4.72-4.72,4.72c-2.6,0-4.72-2.11-4.72-4.72c0-2.6,2.11-4.72,4.72-4.72
				C226.64,390.87,228.75,392.98,228.75,395.59z"/>
			<path class="st3" d="M224.03,396.67c-0.6,0-1.08-0.48-1.08-1.08v-9.92c0-0.6,0.49-1.08,1.08-1.08c0.6,0,1.08,0.48,1.08,1.08v9.92
				C225.11,396.19,224.63,396.67,224.03,396.67z"/>
		</g>
	</g>
</g>
<g>
	<g>
		<g>
			<rect x="129.78" y="353.07" class="st2" width="58.68" height="45.2"/>
			<g>
				<polygon class="st3" points="179.5,360.86 178.88,360.16 178.34,360.86 176.73,360.03 175.28,360.86 174.16,360.16 
					173.37,360.86 173.37,353.07 179.5,353.07 				"/>
				<polygon class="st3" points="179.5,390.48 178.88,391.18 178.34,390.48 176.73,391.31 175.28,390.48 174.16,391.18 
					173.37,390.48 173.37,398.27 179.5,398.27 				"/>
			</g>
		</g>
		<g>
			<rect x="115.19" y="353.07" class="st0" width="50.23" height="45.2"/>
			<g>
				<rect x="139.9" y="353.07" class="st2" width="0.81" height="45.2"/>
				<rect x="115.19" y="375.26" class="st2" width="50.23" height="0.81"/>
			</g>
		</g>
	</g>
	<g>
		<rect x="63.55" y="342.79" class="st2" width="62.89" height="55.48"/>
		<rect x="63.55" y="342.79" class="st0" width="34.67" height="55.48"/>
		<polygon class="st2" points="58.58,351.88 93.25,351.88 98.22,342.79 63.55,342.79 		"/>
		<polygon class="st0" points="131.41,351.88 103.19,351.88 98.22,342.79 126.44,342.79 		"/>
		<path class="st2" d="M87.11,370.53c0,8.76-2.79,15.86-6.23,15.86c-3.44,0-6.23-7.1-6.23-15.86s2.79-15.86,6.23-15.86
			C84.32,354.68,87.11,361.77,87.11,370.53z"/>
	</g>
</g>
<g>
	<g>
		<path class="st10" d="M346.15,390.02c-6.06,4.45-16.27,3.01-16.18,8.52c13.36,1.42,20.08-1.79,20.08-1.79l0.03,1.77l4.66-0.59
			c0,0,1.81-4.49,0.56-8.14L346.15,390.02z"/>
		<path class="st10" d="M382.29,389.38c-6.06,4.45-16.27,3.01-16.18,8.52c13.36,1.42,20.08-1.79,20.08-1.79l0.03,1.77l4.66-0.59
			c0,0,1.81-4.49,0.56-8.14L382.29,389.38z"/>
		<g>
			<path class="st3" d="M383.52,265.13l-39.5,0.63c0,0-5.16,50.54,2.13,124.26c3.05,1.85,6.1,1.73,9.15-0.23
				c0,0,2.54-61.24,6.88-105.19c0.77-0.03,10.94,62.12,20.11,104.78c3.01,1.87,6.07,1.7,9.15-0.23
				C391.44,389.16,385.92,344.94,383.52,265.13z"/>
			<g>
				<path class="st7" d="M362.22,273.01c0.03-0.69-1.05-0.69-1.08,0c-0.14,3.32-0.11,6.63,0.09,9.95c0.04,0.69,1.12,0.69,1.08,0
					C362.12,279.64,362.09,276.32,362.22,273.01z"/>
				<path class="st7" d="M385.01,341.51c-1.08-14.65-1.83-29.33-2.25-44.01c-0.24-8.33-0.37-16.66-0.4-24.99c0-0.69-1.08-0.7-1.08,0
					c0.05,14.78,0.44,29.56,1.15,44.33c0.71,14.67,1.75,29.33,3.12,43.96c0.77,8.3,1.66,16.58,2.64,24.85
					c0.08,0.68,1.16,0.69,1.08,0C387.51,370.97,386.09,356.26,385.01,341.51z"/>
				<path class="st7" d="M359.06,285.13c-1.39,13.45-2.54,26.92-3.46,40.41c-0.92,13.49-1.61,27-2.06,40.51
					c-0.25,7.61-0.43,15.22-0.54,22.83c-0.01,0.69,1.07,0.67,1.08-0.02c0.19-13.52,0.61-27.04,1.27-40.54
					c0.66-13.51,1.55-27,2.67-40.47c0.63-7.58,1.34-15.16,2.12-22.73C360.21,284.42,359.13,284.45,359.06,285.13z"/>
			</g>
		</g>
	</g>
	<g>
		<g>
			<g>
				<path class="st11" d="M382.57,204.1c0,0,16.3,19.18,17.11,75.62h-6.63c0,0-1.25-34.53-12.46-55.56L382.57,204.1z"/>
				<path class="st11" d="M392.1,286.32c0.06,0.47,0.09,1.18,0.6,1.41c0.52,0.23,0.99-0.2,1.11-0.68c0.17-0.66,0.19-1.4,0.27-2.08
					c0.03-0.23,0.06-0.46,0.09-0.68c0.47,1.33,0.74,2.73,0.78,4.15c0.02,0.92-0.04,1.83-0.21,2.74c-0.13,0.69-0.31,1.53,0.36,2.01
					c0.34,0.24,0.71,0.21,1.03,0.04c0.37,0.17,0.82,0.12,1.18-0.16c0.1-0.08,0.19-0.17,0.27-0.27c0.1,0.13,0.28,0.2,0.46,0.09
					c0.55-0.34,0.93-0.84,1.19-1.42c0.13,0.01,0.26-0.03,0.35-0.17c1.69-2.6,2.17-5.88,1.4-8.87c-0.36-1.4-1.01-3.03-2.11-4.03
					c-1.35-1.23-3.17-0.75-4.7-0.21c-0.04,0.02-0.07,0.04-0.11,0.06c-0.16-0.11-0.4-0.11-0.52,0.11
					C392.25,280.79,391.73,283.59,392.1,286.32z"/>
			</g>
			<g>
				<g>
					<path class="st11" d="M366.25,213.91c0,0-24.65,1.94-76.63-29.33l3.76-6.05c0,0,32.23,18.44,57.79,20.12L366.25,213.91z"/>
				</g>
				<path class="st11" d="M278.09,173.77c-0.06,0.53,0.38,0.93,0.86,1.01c1.55,0.26,3.12,0.44,4.69,0.55
					c-0.09,1.85,0.25,3.74,1.02,5.43c0.77,1.68,2.21,3.2,4.07,3.52c0.12,0.08,0.26,0.12,0.41,0.12c1.76,0.01,3.42-0.77,4.68-1.99
					c1.15-1.11,1.95-2.47,2.72-3.86c0.16-0.29,0.32-0.57,0.51-0.85c0.09-0.14,0.18-0.27,0.28-0.4c0.04-0.05,0.08-0.11,0.13-0.16
					c0.01-0.01,0.03-0.03,0.05-0.05c0.12-0.12,0.25-0.23,0.38-0.34c0.01-0.01,0.02-0.02,0.03-0.03c0.01,0,0.02-0.01,0.03-0.01
					c0.07-0.04,0.14-0.08,0.21-0.11c0.06-0.03,0.12-0.05,0.18-0.08c0.03-0.01,0.04-0.02,0.04-0.02c0.05-0.02,0.1-0.03,0.15-0.05
					c0.19-0.07,0.37-0.15,0.53-0.29c0.43-0.38,0.57-1.01,0.32-1.52c-0.2-0.4-0.6-0.69-1.01-0.83c-0.78-0.25-1.68-0.07-2.41,0.26
					c-1,0.44-1.73,1.22-2.34,2.1c-0.08-0.27-0.17-0.53-0.25-0.8c-1.24-3.92-2.58-7.82-4.41-11.52c-0.21-0.42-0.7-0.62-1.14-0.47
					c-0.42,0.14-0.75,0.61-0.63,1.06l1.22,4.62c0.13,0.5,0.26,1,0.39,1.5c-1.7-1.68-3.4-3.36-5.11-5.03
					c-0.34-0.33-0.66-0.52-1.07-0.25c-0.39,0.26-0.34,0.83-0.14,1.26c0.84,1.81,2.16,3.46,3.43,4.98c-1.63-0.69-3.74-1.44-5.33-2.2
					c-0.42-0.2-0.95,0.08-1.15,0.46c-0.23,0.45,0.17,0.84,0.53,1.15c1.02,0.89,2.83,1.52,3.96,2.25c-1.29-0.11-3.54-0.04-4.81-0.25
					C278.57,172.82,278.14,173.3,278.09,173.77z"/>
			</g>
			<g>
				<path class="st0" d="M377.54,198.43c7.49,3.24,14.87,20.56,14.87,20.56l-11.75,7.04L377.54,198.43z"/>
				<path class="st0" d="M359.35,195.43c0,0-13.43,3.48-27.35-1.24l-3.23,11.44c0,0,10.95,7.18,21.58,8.3L359.35,195.43z"/>
				<g>
					<path class="st0" d="M359.35,195.43l-9.2,3c0,0-4.73,39.46-6.98,69.88c28.98,6.13,41.35-0.07,41.35-0.07
						c-1.72-35.82-6.98-69.81-6.98-69.81l-9.14-3H359.35z"/>
					<ellipse class="st2" cx="363.84" cy="231.34" rx="7.19" ry="20.04"/>
				</g>
			</g>
		</g>
		<g>
			<path class="st10" d="M375.49,174.25c-1.25,3.68-2.99,7.2-5.2,10.4c-0.78,1.13-1.75,2.49-3.27,2.52
				c-1.65,0.03-2.62-1.38-3.39-2.63c-3.52-5.74-10.87-7.53-14.47-13.26c-0.99-1.57-1.44-3.59-1.71-5.43
				c-0.27-1.83-0.19-3.75,0.49-5.48c0.67-1.73,1.97-3.25,3.68-3.97c1.71-0.72,3.82-0.55,5.26,0.62c0.02-0.73,0.38-1.34,1-1.73
				s1.36-0.55,2.09-0.62c4.12-0.42,8.38,1.84,10.36,5.47c0.78-0.33,1.8-0.12,2.46,0.41c0.66,0.52,1.1,1.28,1.46,2.04
				C375.91,166.08,376.73,170.58,375.49,174.25z"/>
			<path class="st11" d="M369.56,164.3c-4.08-7.49-18.45-4.93-19.57,1.02c-2.3,12.24-0.55,17.27,2.85,20.16
				c3.94,3.35,6.51,2.92,6.51,9.95c1.49,3.74,7.2,4.25,9.05,0c-0.11-9.31,3.08-16.37,3.08-16.37S371.24,167.38,369.56,164.3z"/>
			<path class="st10" d="M368.03,165.95c-2.47,3.56-7.43,2.74-7.43,2.74l2.86-2.47c0,0-7.09,4.2-14.41,2.74c0,0-1.07-2.69,2.21-7.17
				c2.1-2.87,8.22-3.57,13.44-2.61s7.49,3.23,7.66,6.98c0.17,3.74,0.55,8.42,0.55,8.42l-2.03,1.54
				C367.72,174.01,368.03,165.95,368.03,165.95z"/>
			<g>
				<g>
					<circle class="st10" cx="359.87" cy="175.84" r="0.92"/>
					<path class="st4" d="M359.87,175.58c0,0.19-0.15,0.34-0.34,0.34c-0.19,0-0.34-0.15-0.34-0.34c0-0.19,0.15-0.34,0.34-0.34
						C359.71,175.25,359.87,175.4,359.87,175.58z"/>
				</g>
				<g>
					<path class="st10" d="M353.66,175.84c0,0.51-0.41,0.92-0.92,0.92c-0.51,0-0.92-0.41-0.92-0.92c0-0.51,0.41-0.92,0.92-0.92
						C353.25,174.92,353.66,175.33,353.66,175.84z"/>
					<path class="st4" d="M352.74,175.58c0,0.19-0.15,0.34-0.34,0.34c-0.19,0-0.34-0.15-0.34-0.34c0-0.19,0.15-0.34,0.34-0.34
						C352.59,175.25,352.74,175.4,352.74,175.58z"/>
				</g>
				<path class="st10" d="M354.28,172.23c-1.16-0.81-2.66-0.76-3.75,0.18c-0.2,0.18-0.24,0.53-0.08,0.76
					c0.16,0.23,0.46,0.27,0.66,0.1c0.45-0.39,1.02-0.56,1.57-0.52c0.28,0.02,0.56,0.1,0.82,0.22c0.23,0.11,0.45,0.31,0.71,0.16
					c0.06-0.04,0.11-0.09,0.16-0.15C354.51,172.78,354.5,172.38,354.28,172.23z"/>
				<path class="st10" d="M357.87,172.23c1.33-0.81,3.05-0.76,4.3,0.18c0.23,0.18,0.27,0.53,0.1,0.76c-0.18,0.23-0.53,0.27-0.76,0.1
					c-0.51-0.39-1.17-0.55-1.8-0.51c-0.32,0.02-0.64,0.1-0.94,0.22c-0.26,0.11-0.52,0.31-0.81,0.16c-0.07-0.04-0.13-0.09-0.18-0.15
					C357.61,172.78,357.62,172.38,357.87,172.23z"/>
				<path class="st12" d="M355.94,181.07c-0.5,0-1.03-0.11-1.53-0.38c-0.24-0.12-0.33-0.41-0.2-0.65c0.12-0.23,0.41-0.33,0.65-0.2
					c1.22,0.64,2.58-0.02,2.97-0.55c0.16-0.21,0.46-0.26,0.67-0.1c0.21,0.16,0.26,0.46,0.1,0.67
					C358.15,180.49,357.1,181.07,355.94,181.07z"/>
				<path class="st12" d="M354.81,178.33c-0.05,0-0.1-0.03-0.12-0.09c-0.23-0.79,0.04-1.05,0.3-1.14c0.27-0.09,0.59-0.02,0.95,0.21
					c0.06,0.03,0.07,0.11,0.04,0.17c-0.04,0.06-0.11,0.07-0.17,0.04c-0.3-0.19-0.55-0.25-0.75-0.18c-0.24,0.08-0.29,0.36-0.15,0.84
					c0.02,0.06-0.02,0.13-0.08,0.15C354.83,178.33,354.82,178.33,354.81,178.33z"/>
			</g>
			<g>
				<path class="st11" d="M374.63,179.32c-1.23,1.47-3.17,1.87-4.34,0.89c-1.17-0.98-1.11-2.96,0.12-4.43
					c1.23-1.47,3.17-1.87,4.34-0.89S375.86,177.86,374.63,179.32z"/>
				<path class="st12" d="M373.95,175.61c-0.52-0.28-1.22-0.26-1.87,0.04c-0.32,0.15-0.55,0.33-0.71,0.56
					c-0.21,0.3-0.27,0.67-0.15,0.97c0.1,0.27,0.32,0.45,0.51,0.6c0.14,0.11,0.27,0.22,0.34,0.35c0.11,0.2,0.08,0.47-0.07,0.64
					c-0.15,0.17-0.42,0.22-0.63,0.13c-0.12-0.06-0.26,0-0.32,0.12c-0.06,0.12,0,0.26,0.12,0.32c0.13,0.06,0.28,0.09,0.42,0.09
					c0.29,0,0.57-0.12,0.77-0.33c0.29-0.32,0.35-0.83,0.13-1.2c-0.12-0.2-0.3-0.35-0.46-0.48c-0.16-0.13-0.31-0.25-0.37-0.4
					c-0.06-0.15-0.02-0.36,0.1-0.52c0.05-0.07,0.11-0.13,0.18-0.18c0.24,0,0.54,0.07,0.69,0.24c0.17,0.19,0.25,0.46,0.21,0.7
					c-0.02,0.13,0.07,0.25,0.2,0.28c0.01,0,0.03,0,0.04,0c0.12,0,0.22-0.08,0.24-0.2c0.07-0.4-0.06-0.81-0.33-1.11
					c-0.1-0.11-0.23-0.19-0.36-0.25c0.4-0.11,0.79-0.09,1.1,0.07c0.38,0.2,0.66,0.71,0.47,1.13c-0.06,0.12,0,0.26,0.12,0.32
					c0.12,0.06,0.26,0,0.32-0.12C374.91,176.76,374.6,175.96,373.95,175.61z"/>
			</g>
		</g>
	</g>
</g>
<g>
	<g>
		<rect x="175.33" y="38.62" class="st0" width="96.63" height="54.7"/>
		<g>
			<rect x="235.14" y="43.16" class="st2" width="14.67" height="3.23"/>
			<g>
				<rect x="179.33" y="58.3" class="st2" width="88.64" height="3.23"/>
				<rect x="179.33" y="72.17" class="st2" width="50.09" height="3.23"/>
				<rect x="179.33" y="79.1" class="st2" width="35.3" height="3.23"/>
			</g>
			<g>
				
					<rect x="254.48" y="74.44" transform="matrix(0.7071 -0.7071 0.7071 0.7071 20.4423 205.2715)" class="st3" width="7.04" height="7.04"/>
				
					<rect x="259.46" y="74.44" transform="matrix(0.7071 -0.7071 0.7071 0.7071 21.9014 208.794)" class="st7" width="7.04" height="7.04"/>
			</g>
			<rect x="179.33" y="42.64" class="st3" width="15.66" height="6.71"/>
			<path class="st4" d="M265.23,47.12h-9.09c-1.14,0-2.06-0.92-2.06-2.06V44.7c0-1.14,0.92-2.06,2.06-2.06h9.09
				c1.14,0,2.06,0.92,2.06,2.06v0.35C267.3,46.19,266.37,47.12,265.23,47.12z"/>
		</g>
	</g>
	<g>
		<g>
			<rect x="110.98" y="54.36" class="st3" width="38.85" height="38.85"/>
			<text transform="matrix(1 0 0 1 122.6353 83.9449)" class="st7 st5 st13">$</text>
		</g>
		<g>
			<g>
				
					<rect x="297.47" y="54.36" transform="matrix(-1 -1.224647e-16 1.224647e-16 -1 633.7831 147.564)" class="st3" width="38.85" height="38.85"/>
			</g>
			<path class="st7" d="M324.74,67.66h-2.12c0-3.16-2.57-5.72-5.72-5.72c-3.16,0-5.72,2.57-5.72,5.72h-2.12l-2.79,17.84h21.27
				L324.74,67.66z M316.89,63.65c2.49,0,4.07,1.52,4.07,4.01h-8.09C312.87,65.17,314.4,63.65,316.89,63.65z"/>
		</g>
	</g>
</g>
<g>
	<g>
		<path class="st3" d="M27.35,217.19c-0.05-1.12-0.95-2.02-2.07-2.07l-7.88-0.36c-0.61-0.03-1.2,0.2-1.63,0.63l-9.96,9.96
			c-0.85,0.85-0.84,2.22,0,3.07l8.24,8.24c0.84,0.84,2.22,0.85,3.07,0l9.96-9.96c0.43-0.43,0.66-1.03,0.63-1.63L27.35,217.19z
			 M25.26,219.15c-0.53,0.53-1.4,0.53-1.93,0c-0.53-0.53-0.53-1.4,0-1.93c0.53-0.53,1.4-0.53,1.93,0
			C25.79,217.75,25.79,218.61,25.26,219.15z"/>
		<path class="st3" d="M17.86,243.89C8.01,243.89,0,235.88,0,226.03c0-9.85,8.01-17.86,17.86-17.86c9.85,0,17.86,8.01,17.86,17.86
			C35.73,235.88,27.71,243.89,17.86,243.89z M17.86,210.08c-8.8,0-15.95,7.16-15.95,15.95c0,8.8,7.16,15.95,15.95,15.95
			c8.8,0,15.95-7.16,15.95-15.95C33.82,217.23,26.66,210.08,17.86,210.08z"/>
	</g>
	<g>
		<path class="st3" d="M63.67,65.9h-2.5h-2.23l-2.64-6.43c-0.22-0.53-0.82-0.78-1.35-0.56c-0.53,0.22-0.78,0.82-0.56,1.35l2.32,5.64
			H44.5l2.32-5.64c0.22-0.53-0.04-1.13-0.56-1.35c-0.53-0.22-1.13,0.04-1.35,0.56l-2.64,6.43h-2.23h-2.5
			c-0.57,0-1.03,0.46-1.03,1.03c0,0.57,0.46,1.03,1.03,1.03h1.73l3.16,10.6c0.13,0.44,0.53,0.74,0.99,0.74h14.38
			c0.46,0,0.86-0.3,0.99-0.74l3.16-10.6h1.73c0.57,0,1.03-0.46,1.03-1.03C64.7,66.36,64.24,65.9,63.67,65.9z M57.02,77.24H44.18
			l-1-3.37h14.85L57.02,77.24z M58.64,71.81H42.56l-1.14-3.84h1.54c0,0,0,0,0,0c0,0,0,0,0,0h15.28c0,0,0,0,0,0c0,0,0,0,0,0h1.54
			L58.64,71.81z"/>
		<path class="st3" d="M50.6,88.38c-10.65,0-19.31-8.66-19.31-19.31c0-10.65,8.66-19.31,19.31-19.31c10.65,0,19.31,8.66,19.31,19.31
			C69.91,79.72,61.25,88.38,50.6,88.38z M50.6,51.82c-9.51,0-17.25,7.74-17.25,17.25s7.74,17.24,17.25,17.24
			c9.51,0,17.24-7.74,17.24-17.24S60.11,51.82,50.6,51.82z"/>
	</g>
	<g>
		<path class="st3" d="M157.99,12.59h-0.62h-9.66l9.66-1.55V8.22c0-1.44-1.27-2.43-2.47-1.91l-13.52,5.77
			c-0.65,0.28-1.06,0.93-1.15,1.68c0,0.01-0.01,0.03,0,0.04c-0.01,0.06-0.03,0.12-0.03,0.19v0.07v13.21v1.49
			c0,0.82,0.66,1.48,1.49,1.48h16.29c0.82,0,1.48-0.66,1.48-1.48V14.07C159.46,13.25,158.8,12.59,157.99,12.59z M155.48,19.36
			c0.85,0,1.54,0.69,1.54,1.54c0,0.86-0.69,1.55-1.54,1.55c-0.85,0-1.54-0.69-1.54-1.55C153.94,20.06,154.63,19.36,155.48,19.36z"/>
		<path class="st3" d="M149.83,38.62c-10.65,0-19.31-8.66-19.31-19.31C130.52,8.66,139.19,0,149.83,0
			c10.65,0,19.31,8.66,19.31,19.31C169.14,29.96,160.48,38.62,149.83,38.62z M149.83,2.07c-9.51,0-17.25,7.74-17.25,17.25
			c0,9.51,7.74,17.24,17.25,17.24c9.51,0,17.24-7.74,17.24-17.24C167.08,9.8,159.34,2.07,149.83,2.07z"/>
	</g>
	<g>
		<g>
			<path class="st3" d="M370.77,30.16h-5.95c1.32-0.31,2.7-0.84,3.15-1.76c0.2-0.4,0.31-1.06-0.28-1.92
				c-0.48-0.7-1.08-1.03-1.75-0.99c-1.66,0.11-3.28,2.59-3.99,3.83c-0.71-1.24-2.33-3.72-3.99-3.83c-0.68-0.06-1.27,0.29-1.75,0.99
				c-0.59,0.86-0.48,1.52-0.28,1.92c0.45,0.92,1.83,1.45,3.15,1.76h-5.95c-0.48,0-0.88,0.39-0.88,0.88v2.36
				c0,0.48,0.39,0.88,0.88,0.88h17.66c0.48,0,0.88-0.39,0.88-0.88v-2.36C371.65,30.55,371.26,30.16,370.77,30.16z M356.64,28.05
				c-0.06-0.11-0.23-0.46,0.22-1.12c0.3-0.43,0.62-0.64,0.98-0.64c0.02,0,0.04,0,0.06,0c1.17,0.08,2.59,2.12,3.34,3.41
				C359.46,29.52,357.1,28.98,356.64,28.05z M365.99,26.29c0.02,0,0.04,0,0.06,0c0.36,0,0.68,0.21,0.98,0.64
				c0.45,0.65,0.28,1,0.22,1.12c-0.46,0.93-2.82,1.47-4.6,1.65C363.41,28.4,364.83,26.37,365.99,26.29z"/>
			<path class="st3" d="M369.27,35.85h-14.64c-0.69,0-1.24,0.56-1.24,1.24V48.3c0,0.69,0.56,1.24,1.24,1.24h14.64
				c0.69,0,1.24-0.56,1.24-1.24V37.09C370.51,36.4,369.95,35.85,369.27,35.85z"/>
		</g>
		<path class="st3" d="M361.95,57.93c-10.65,0-19.31-8.66-19.31-19.31c0-10.65,8.66-19.31,19.31-19.31
			c10.65,0,19.31,8.66,19.31,19.31C381.26,49.27,372.59,57.93,361.95,57.93z M361.95,21.37c-9.51,0-17.25,7.74-17.25,17.25
			c0,9.51,7.74,17.24,17.25,17.24s17.25-7.74,17.25-17.24C379.19,29.11,371.46,21.37,361.95,21.37z"/>
	</g>
	<g>
		<path class="st3" d="M430.31,148.04c-1.01-0.82-2.48-0.7-3.36,0.25c-2.2,2.39-4.83,2.28-4.83,2.28s-2.62,0.11-4.83-2.28
			c-0.88-0.95-2.35-1.07-3.36-0.25l-5.5,4.47c-0.51,0.41-0.59,1.15-0.18,1.66l2.13,2.71c0.39,0.49,1.1,0.6,1.61,0.24l2.83-1.97
			v13.47c0,0.66,0.53,1.19,1.19,1.19h6.11h6.11c0.66,0,1.19-0.53,1.19-1.19v-13.47l2.83,1.97c0.52,0.36,1.22,0.25,1.61-0.24
			l2.13-2.71c0.4-0.51,0.32-1.25-0.18-1.66L430.31,148.04z"/>
		<path class="st3" d="M422.12,176.84c-10.65,0-19.31-8.66-19.31-19.31c0-10.65,8.66-19.31,19.31-19.31s19.31,8.66,19.31,19.31
			C441.43,168.17,432.77,176.84,422.12,176.84z M422.12,140.28c-9.51,0-17.25,7.74-17.25,17.25c0,9.51,7.74,17.24,17.25,17.24
			s17.25-7.74,17.25-17.24C439.36,148.02,431.63,140.28,422.12,140.28z"/>
	</g>
	<g>
		<g>
			<polygon class="st3" points="422.44,273.55 426.89,285.12 440.31,285.12 444.23,273.55 			"/>
			<path class="st3" d="M420.62,273.46h-3.5v2.07h2.11l5.33,13.17h2.86v0.46c0,0.83,0.67,1.49,1.49,1.49c0.83,0,1.49-0.67,1.49-1.49
				v-0.46h4.15v0.46c0,0.83,0.67,1.49,1.49,1.49c0.82,0,1.49-0.67,1.49-1.49v-0.46h2.73v-2.07h-14.33L420.62,273.46z"/>
		</g>
		<path class="st3" d="M431.03,299.03c-10.65,0-19.31-8.66-19.31-19.31c0-10.65,8.66-19.31,19.31-19.31
			c10.65,0,19.31,8.66,19.31,19.31C450.34,290.37,441.68,299.03,431.03,299.03z M431.03,262.47c-9.51,0-17.25,7.74-17.25,17.25
			c0,9.51,7.74,17.24,17.25,17.24c9.51,0,17.24-7.74,17.24-17.24C448.28,270.21,440.54,262.47,431.03,262.47z"/>
	</g>
</g>
</svg>
