<svg width="450.34" height="400.31" xmlns="http://www.w3.org/2000/svg">
 <style type="text/css">.st0{fill:#075c3f;}
	.st1{fill:#25815c;}
	.st2{fill:#1f7b57;}
	.st3{fill:#fdb341;}
	.st4{fill:#FFFFFF;}
	.st5{font-family:'Montserrat-ExtraBold';}
	.st6{font-size:6.0285px;}
	.st7{fill:#f7f7f7;}
	.st8{fill:#DDD6C7;}
	.st9{fill:#1f7b57;}
	.st10{fill:#282423;}
	.st11{fill:#F0D0C6;}
	.st12{fill:#D8A99C;}
	.st13{font-size:30.3051px;}</style>

 <g>
  <title>background</title>
  <rect fill="none" id="canvas_background" height="602" width="802" y="-1" x="-1"/>
 </g>
 <g>
  <title>Layer 1</title>
  <g id="svg_1">
   <g id="svg_2">
    <path id="svg_3" d="m384.63,322.17l-321.96,0c-6.36,0 -11.51,-5.15 -11.51,-11.51l0,-194.34c0,-6.36 5.15,-11.51 11.51,-11.51l321.97,0c6.36,0 11.51,5.15 11.51,11.51l0,194.34c-0.01,6.36 -5.16,11.51 -11.52,11.51z" class="st0"/>
    <path id="svg_4" d="m387.64,117.97l0,191.04c0,2.49 -2.02,4.52 -4.52,4.52l-318.94,0c-2.49,0 -4.52,-2.03 -4.52,-4.52l0,-191.04c0,-2.49 2.03,-4.52 4.52,-4.52l318.93,0c1,0 1.92,0.33 2.67,0.87c1.13,0.82 1.86,2.16 1.86,3.65z" class="st1"/>
   </g>
   <g id="svg_5">
    <path id="svg_6" d="m422.12,309.63l0,3.26c0,5.24 -1.84,10.05 -4.92,13.81c-4.01,4.88 -10.08,8 -16.89,8l-353.31,0c-6.81,0 -12.88,-3.12 -16.89,-8c-3.08,-3.76 -4.92,-8.58 -4.92,-13.81l0,-3.26l396.93,0z" class="st0"/>
    <path id="svg_7" d="m417.2,326.71c-4.01,4.88 -10.08,8 -16.89,8l-353.31,0c-6.81,0 -12.88,-3.12 -16.89,-8l387.09,0z" class="st2"/>
   </g>
   <g stroke="null" id="svg_8">
    <g stroke="null" id="svg_9">
     <path stroke="null" id="svg_10" d="m375.3,131.78l-303.3,0c-2.66,0 -4.82,-2.16 -4.82,-4.82l0,-0.81c0,-2.66 2.16,-4.82 4.82,-4.82l303.3,0c2.66,0 4.82,2.16 4.82,4.82l0,0.81c0,2.66 -2.16,4.82 -4.82,4.82z" class="st3"/>
     <g stroke="null" id="svg_11">
      <path stroke="null" id="svg_12" d="m358.28,126.56c0,1.27 -1.03,2.3 -2.3,2.3s-2.3,-1.03 -2.3,-2.3c0,-1.27 1.03,-2.3 2.3,-2.3s2.3,1.03 2.3,2.3z" class="st4"/>
      <path stroke="null" id="svg_13" d="m366.55,126.56c0,1.27 -1.03,2.3 -2.3,2.3c-1.27,0 -2.3,-1.03 -2.3,-2.3c0,-1.27 1.03,-2.3 2.3,-2.3c1.27,0 2.3,1.03 2.3,2.3z" class="st4"/>
      <path stroke="null" id="svg_14" d="m374.81,126.56c0,1.27 -1.03,2.3 -2.3,2.3s-2.3,-1.03 -2.3,-2.3c0,-1.27 1.03,-2.3 2.3,-2.3s2.3,1.03 2.3,2.3z" class="st4"/>
     </g>
    </g>
    <g stroke="null" id="svg_15">
     <rect stroke="null" id="svg_16" height="1.08" width="11.27" class="st0" y="137.91" x="68.47"/>
     <rect stroke="null" id="svg_17" height="1.08" width="11.27" class="st0" y="141.14" x="68.47"/>
     <rect stroke="null" id="svg_18" height="1.08" width="11.27" class="st0" y="144.38" x="68.47"/>
    </g>
    <g stroke="null" id="svg_19">
     <path stroke="null" id="svg_20" d="m265.77084,303l-83.24169,0.18c-5.14505,0 -9.32915,-2.09 -9.32915,-4.66l0,-0.79c0,-2.57 4.18411,-4.66 9.32915,-4.66l83.24169,0c5.16507,0 9.32915,2.09 9.32915,4.66l0,0.79c0,2.57 -4.16409,4.48 -9.32915,4.48z" class="st0"/>
     <g stroke="null" id="svg_21">
      <text stroke="null" x="-14" y="0" id="svg_22" class="st4 st5 st6" transform="matrix(1,0,0,1,201.483,300.376) ">Adicionar ao Carrinho</text>
     </g>
    </g>
    <g stroke="null" id="svg_23">
     <path stroke="null" id="svg_24" d="m376.96,138.22l-0.89,0c0,-1.32 -1.07,-2.39 -2.39,-2.39c-1.32,0 -2.39,1.07 -2.39,2.39l-0.89,0l-1.16,7.44l8.88,0l-1.16,-7.44zm-3.28,-1.67c1.04,0 1.7,0.63 1.7,1.67l-3.38,0c0,-1.04 0.64,-1.67 1.68,-1.67z" class="st0"/>
     <path stroke="null" id="svg_25" d="m364.1,144.67l-1.27,-1.27c0.52,-0.71 0.83,-1.59 0.83,-2.54c0,-2.38 -1.94,-4.32 -4.32,-4.32c-2.38,0 -4.32,1.94 -4.32,4.32c0,2.38 1.94,4.32 4.32,4.32c0.95,0 1.82,-0.31 2.54,-0.83l1.27,1.27c0.13,0.13 0.3,0.2 0.47,0.2s0.34,-0.07 0.47,-0.2c0.27,-0.27 0.27,-0.69 0.01,-0.95zm-7.73,-3.8c0,-1.64 1.34,-2.98 2.98,-2.98c1.64,0 2.98,1.34 2.98,2.98c0,1.64 -1.34,2.98 -2.98,2.98c-1.64,-0.01 -2.98,-1.34 -2.98,-2.98z" class="st0"/>
    </g>
    <g stroke="null" id="svg_26">
     <path stroke="null" id="svg_27" d="m165.67,302.96c-0.28,0 -0.55,-0.11 -0.77,-0.32l-3.76,-3.76c-0.42,-0.42 -0.42,-1.11 0,-1.53l3.76,-3.75c0.42,-0.42 1.11,-0.42 1.53,0c0.42,0.42 0.42,1.11 0,1.53l-2.99,2.99l2.99,2.99c0.42,0.42 0.42,1.11 0,1.53c-0.2,0.21 -0.48,0.32 -0.76,0.32z" class="st2"/>
     <path stroke="null" id="svg_28" d="m281.63,302.96c-0.28,0 -0.55,-0.11 -0.77,-0.32c-0.42,-0.42 -0.42,-1.11 0,-1.53l2.99,-2.99l-2.99,-2.99c-0.42,-0.42 -0.42,-1.11 0,-1.53c0.42,-0.42 1.11,-0.42 1.53,0l3.76,3.75c0.42,0.42 0.42,1.11 0,1.53l-3.76,3.76c-0.21,0.21 -0.48,0.32 -0.76,0.32z" class="st2"/>
    </g>
    <g stroke="null" id="svg_29">
     <g stroke="null" id="svg_30">
      <g stroke="null" id="svg_31">
       <rect stroke="null" id="svg_32" height="102.69" width="102.7" class="st3" y="166.18" x="262.11"/>
       <rect stroke="null" id="svg_33" height="80.06" width="94.24" class="st7" y="171.31" x="266.34"/>
       <g stroke="null" id="svg_34">
        <rect stroke="null" id="svg_35" height="1.87" width="94.24" class="st7" y="255.83" x="266.34"/>
        <rect stroke="null" id="svg_36" height="1.87" width="47.12" class="st7" y="259.79" x="266.34"/>
        <rect stroke="null" id="svg_37" height="1.87" width="65.7" class="st7" y="263.75" x="266.34"/>
       </g>
       <ellipse stroke="null" id="svg_38" ry="25.29" rx="25.29" cy="211.34" cx="313.46" class="st3" transform="matrix(0.1615,-0.9869,0.9869,0.1615,54.2816,486.5704) "/>
      </g>
      <rect stroke="null" id="svg_39" height="102.69" width="33.37" class="st8" y="166.18" x="262.11"/>
     </g>
     <g stroke="null" id="svg_40">
      <g stroke="null" id="svg_41">
       <rect stroke="null" id="svg_42" height="102.69" width="102.69" class="st3" y="166.18" x="82.49"/>
       <rect stroke="null" id="svg_43" height="80.06" width="94.24" class="st7" y="171.31" x="86.72"/>
       <g stroke="null" id="svg_44">
        <rect stroke="null" id="svg_45" height="1.87" width="94.24" class="st7" y="255.83" x="86.72"/>
        <rect stroke="null" id="svg_46" height="1.87" width="47.12" class="st7" y="259.79" x="86.72"/>
        <rect stroke="null" id="svg_47" height="1.87" width="65.7" class="st7" y="263.75" x="86.72"/>
       </g>
       <ellipse stroke="null" id="svg_48" ry="25.29" rx="25.29" cy="211.34" cx="133.84" class="st3" transform="matrix(0.1615,-0.9869,0.9869,0.1615,-96.341,309.3036) "/>
      </g>
      <rect stroke="null" id="svg_49" height="102.69" width="33.37" class="st8" y="166.18" x="151.82"/>
     </g>
     <g stroke="null" id="svg_50">
      <g stroke="null" id="svg_51">
       <rect stroke="null" id="svg_52" height="143.38" width="123.47" class="st0" y="141.14" x="161.92"/>
       <rect stroke="null" id="svg_53" height="112.49" width="112.49" class="st3" y="146.63" x="167.4"/>
       <g stroke="null" id="svg_54">
        <rect stroke="null" id="svg_55" height="2.24" width="112.49" class="st2" y="263.39" x="167.4"/>
        <rect stroke="null" id="svg_56" height="2.24" width="56.24" class="st2" y="268.11" x="167.4"/>
        <rect stroke="null" id="svg_57" height="2.24" width="78.43" class="st2" y="272.83" x="167.4"/>
       </g>
       <path stroke="null" id="svg_58" d="m278.03,275.06c0.5,-0.5 0.81,-1.19 0.81,-1.95c0,-1.53 -1.24,-2.76 -2.76,-2.76c-1.14,0 -2.11,0.69 -2.54,1.67c-0.42,-0.98 -1.4,-1.67 -2.54,-1.67c-1.53,0 -2.76,1.24 -2.76,2.76c0,0.76 0.31,1.45 0.81,1.95l0,0l0,0c0,0 0,0 0,0l4.49,4.54l4.49,-4.54c0,0.01 0,0 0,0l0,0l0,0z" class="st3"/>
      </g>
      <g stroke="null" id="svg_59">
       <ellipse stroke="null" id="svg_60" ry="4.47" rx="46.99" cy="237.7" cx="223.65" class="st7"/>
       <g stroke="null" id="svg_61">
        <g stroke="null" id="svg_62">
         <polygon stroke="null" id="svg_63" points="196.01,218.1 211.1,218.1 211.1,197.45 190.98,197.45        " class="st2"/>
         <path stroke="null" id="svg_64" d="m214.81,218.1l0,-20.65l-9.19,0c-2.1,0 -3.68,1.91 -3.28,3.97l3.21,16.68l9.26,0z" class="st2"/>
         <path stroke="null" id="svg_65" d="m198.13,218.1l0,-20.65l-9.19,0c-2.1,0 -3.68,1.91 -3.28,3.97l3.21,16.68l9.26,0z" class="st0"/>
        </g>
        <g stroke="null" id="svg_66">
         <path stroke="null" id="svg_67" d="m221.61,218.1l0,-45.15l30.34,0c3.6,0 6.51,2.91 6.51,6.51l0,38.64l-36.85,0z" class="st2"/>
         <path stroke="null" id="svg_68" d="m211.9,218.1l0,-40.14c0,-2.77 2.24,-5.01 5.01,-5.01l26.83,0c2.77,0 5.01,2.24 5.01,5.01l0,40.14l-36.85,0z" class="st0"/>
        </g>
        <g stroke="null" id="svg_69">
         <g stroke="null" id="svg_70">
          <path stroke="null" id="svg_71" d="m249.17,218.1l0,-20.65l9.19,0c2.1,0 3.68,1.91 3.28,3.97l-3.21,16.68l-9.26,0z" class="st2"/>
          <polygon stroke="null" id="svg_72" points="251.29,218.1 236.2,218.1 236.2,197.45 256.32,197.45         " class="st2"/>
          <path stroke="null" id="svg_73" d="m232.49,218.1l0,-20.65l9.19,0c2.1,0 3.68,1.91 3.28,3.97l-3.21,16.68l-9.26,0z" class="st0"/>
         </g>
         <path stroke="null" id="svg_74" d="m232.49,218.1c-0.11,-1.72 -0.21,-3.44 -0.26,-5.16c-0.05,-1.72 -0.12,-3.44 -0.13,-5.16l-0.04,-5.16l0.05,-5.16l0,-0.38l0.37,0c1.53,0.02 3.06,0.09 4.6,0.13c1.53,0.06 3.06,0.13 4.6,0.24c-1.53,0.11 -3.06,0.19 -4.6,0.24c-1.53,0.04 -3.06,0.11 -4.6,0.13l0.37,-0.37l0.05,5.16l-0.04,5.16c0,1.72 -0.07,3.44 -0.13,5.16c-0.03,1.73 -0.13,3.45 -0.24,5.17z" class="st9"/>
        </g>
        <g stroke="null" id="svg_75">
         <path stroke="null" id="svg_76" d="m258.45,218.1l-69.59,0l-2.06,14.74c-0.36,2.57 1.64,4.86 4.23,4.86l65.64,0c2.64,0 4.64,-2.37 4.21,-4.97l-2.43,-14.63z" class="st2"/>
         <path stroke="null" id="svg_77" d="m241.76,218.1l-52.9,0l-2.09,14.98c-0.34,2.44 1.55,4.61 4.01,4.61l46.92,0c2.24,0 4.05,-1.81 4.05,-4.05l0,-15.54l0.01,0z" class="st0"/>
         <path stroke="null" id="svg_78" d="m241.76,218.1c-4.41,0.16 -8.82,0.29 -13.22,0.36c-4.41,0.08 -8.82,0.16 -13.22,0.16c-4.41,0.01 -8.82,0.09 -13.22,0.04l-13.22,-0.09l0.47,-0.4c-0.72,4.4 -1.44,8.79 -2.31,13.17c0.36,-4.45 0.87,-8.87 1.38,-13.3l0.05,-0.4l0.42,0l13.22,-0.09c4.41,-0.05 8.82,0.03 13.22,0.04c4.41,0.01 8.82,0.08 13.22,0.16c4.39,0.06 8.8,0.19 13.21,0.35z" class="st9"/>
        </g>
       </g>
      </g>
     </g>
    </g>
   </g>
  </g>
  <g id="svg_79">
   <g id="svg_80">
    <path id="svg_81" d="m280.22,375.81l-75.95,0c-0.47,0 -0.89,-0.3 -1.03,-0.75l-19.45,-60.34c-0.11,-0.33 -0.05,-0.69 0.16,-0.97c0.2,-0.28 0.53,-0.45 0.88,-0.45l114.86,0c0.35,0 0.67,0.17 0.88,0.45c0.2,0.28 0.26,0.64 0.16,0.97l-19.45,60.34c-0.17,0.44 -0.59,0.75 -1.06,0.75zm-75.16,-2.17l74.37,0l18.76,-58.17l-111.89,0l18.76,58.17z" class="st3"/>
    <path id="svg_82" d="m241.63,375.81c-0.6,0 -1.08,-0.49 -1.08,-1.08l0,-60.34c0,-0.6 0.49,-1.08 1.08,-1.08c0.6,0 1.08,0.48 1.08,1.08l0,60.34c0,0.59 -0.48,1.08 -1.08,1.08z" class="st3"/>
    <path id="svg_83" d="m233.37,375.81c-0.57,0 -1.04,-0.44 -1.08,-1.01l-4,-60.34c-0.04,-0.6 0.41,-1.11 1.01,-1.15c0.59,-0.03 1.11,0.41 1.15,1.01l4,60.34c0.04,0.6 -0.41,1.11 -1.01,1.15c-0.02,0 -0.05,0 -0.07,0z" class="st3"/>
    <path id="svg_84" d="m225.47,375.81c-0.52,0 -0.98,-0.38 -1.07,-0.91l-9.6,-60.34c-0.09,-0.59 0.31,-1.15 0.9,-1.24c0.6,-0.1 1.15,0.31 1.24,0.9l9.6,60.34c0.09,0.59 -0.31,1.15 -0.9,1.24c-0.05,0 -0.11,0.01 -0.17,0.01z" class="st3"/>
    <path id="svg_85" d="m214.99,375.81c-0.49,0 -0.94,-0.34 -1.05,-0.84l-14.23,-60.34c-0.14,-0.58 0.22,-1.17 0.81,-1.3c0.58,-0.13 1.17,0.22 1.3,0.81l14.23,60.34c0.14,0.58 -0.22,1.17 -0.81,1.3c-0.09,0.02 -0.17,0.03 -0.25,0.03z" class="st3"/>
    <path id="svg_86" d="m249.88,375.81c-0.02,0 -0.05,0 -0.07,0c-0.6,-0.04 -1.05,-0.56 -1.01,-1.15l4.01,-60.34c0.04,-0.6 0.56,-1.04 1.15,-1.01c0.6,0.04 1.05,0.56 1.01,1.15l-4.01,60.34c-0.03,0.57 -0.51,1.01 -1.08,1.01z" class="st3"/>
    <path id="svg_87" d="m257.78,375.81c-0.06,0 -0.11,0 -0.17,-0.01c-0.59,-0.09 -0.99,-0.65 -0.9,-1.24l9.6,-60.34c0.09,-0.59 0.64,-1 1.24,-0.9c0.59,0.09 0.99,0.65 0.9,1.24l-9.6,60.34c-0.09,0.53 -0.55,0.91 -1.07,0.91z" class="st3"/>
    <path id="svg_88" d="m268.27,375.81c-0.08,0 -0.17,-0.01 -0.25,-0.03c-0.58,-0.14 -0.94,-0.72 -0.81,-1.3l14.23,-60.34c0.14,-0.58 0.72,-0.94 1.3,-0.81c0.58,0.14 0.94,0.72 0.81,1.3l-14.23,60.34c-0.12,0.5 -0.56,0.84 -1.05,0.84z" class="st3"/>
    <g id="svg_89">
     <path id="svg_90" d="m284.32,363.06l-84.17,0c-0.6,0 -1.08,-0.49 -1.08,-1.08s0.49,-1.08 1.08,-1.08l84.17,0c0.6,0 1.08,0.48 1.08,1.08s-0.48,1.08 -1.08,1.08z" class="st3"/>
     <path id="svg_91" d="m289.5,347.04l-94.5,0c-0.6,0 -1.08,-0.49 -1.08,-1.08c0,-0.6 0.49,-1.08 1.08,-1.08l94.5,0c0.6,0 1.08,0.48 1.08,1.08c0,0.6 -0.48,1.08 -1.08,1.08z" class="st3"/>
     <path id="svg_92" d="m294.66,331.03l-104.83,0c-0.6,0 -1.08,-0.48 -1.08,-1.08c0,-0.6 0.49,-1.08 1.08,-1.08l104.83,0c0.6,0 1.08,0.49 1.08,1.08c0,0.59 -0.48,1.08 -1.08,1.08z" class="st3"/>
    </g>
   </g>
   <g id="svg_93">
    <ellipse id="svg_94" ry="2.82" rx="4.28" cy="300.38" cx="311.26" class="st10"/>
    <path id="svg_95" d="m299.67,315.46c-0.11,0 -0.22,-0.02 -0.33,-0.05c-0.57,-0.18 -0.88,-0.8 -0.7,-1.36l4.51,-14c0.15,-0.45 0.56,-0.75 1.03,-0.75l6.62,0c0.6,0 1.08,0.49 1.08,1.08s-0.48,1.08 -1.08,1.08l-5.83,0l-4.27,13.25c-0.14,0.46 -0.57,0.75 -1.03,0.75z" class="st3"/>
   </g>
   <path id="svg_96" d="m276.69,386.75l-69.6,0c-0.6,0 -1.08,-0.48 -1.08,-1.08c0,-0.6 0.49,-1.08 1.08,-1.08l68.81,0l5.56,-17.26c0.18,-0.57 0.8,-0.88 1.36,-0.7c0.57,0.18 0.88,0.8 0.7,1.36l-5.8,18.01c-0.14,0.45 -0.56,0.75 -1.03,0.75z" class="st3"/>
   <g id="svg_97">
    <g id="svg_98">
     <circle id="svg_99" r="4.72" cy="395.59" cx="259.63" class="st10"/>
     <path id="svg_100" d="m259.63,396.67c-0.6,0 -1.08,-0.48 -1.08,-1.08l0,-9.92c0,-0.6 0.49,-1.08 1.08,-1.08s1.08,0.48 1.08,1.08l0,9.92c0,0.6 -0.48,1.08 -1.08,1.08z" class="st3"/>
    </g>
    <g id="svg_101">
     <path id="svg_102" d="m228.75,395.59c0,2.6 -2.11,4.72 -4.72,4.72c-2.6,0 -4.72,-2.11 -4.72,-4.72c0,-2.6 2.11,-4.72 4.72,-4.72c2.61,0 4.72,2.11 4.72,4.72z" class="st10"/>
     <path id="svg_103" d="m224.03,396.67c-0.6,0 -1.08,-0.48 -1.08,-1.08l0,-9.92c0,-0.6 0.49,-1.08 1.08,-1.08c0.6,0 1.08,0.48 1.08,1.08l0,9.92c0,0.6 -0.48,1.08 -1.08,1.08z" class="st3"/>
    </g>
   </g>
  </g>
  <g id="svg_104">
   <g id="svg_105">
    <g id="svg_106">
     <rect id="svg_107" height="45.2" width="58.68" class="st2" y="353.07" x="129.78"/>
     <g id="svg_108">
      <polygon id="svg_109" points="179.5,360.86 178.88,360.16 178.34,360.86 176.73,360.03 175.28,360.86 174.16,360.16       173.37,360.86 173.37,353.07 179.5,353.07     " class="st3"/>
      <polygon id="svg_110" points="179.5,390.48 178.88,391.18 178.34,390.48 176.73,391.31 175.28,390.48 174.16,391.18       173.37,390.48 173.37,398.27 179.5,398.27     " class="st3"/>
     </g>
    </g>
    <g id="svg_111">
     <rect id="svg_112" height="45.2" width="50.23" class="st0" y="353.07" x="115.19"/>
     <g id="svg_113">
      <rect id="svg_114" height="45.2" width="0.81" class="st2" y="353.07" x="139.9"/>
      <rect id="svg_115" height="0.81" width="50.23" class="st2" y="375.26" x="115.19"/>
     </g>
    </g>
   </g>
   <g id="svg_116">
    <rect id="svg_117" height="55.48" width="62.89" class="st2" y="342.79" x="63.55"/>
    <rect id="svg_118" height="55.48" width="34.67" class="st0" y="342.79" x="63.55"/>
    <polygon id="svg_119" points="58.58,351.88 93.25,351.88 98.22,342.79 63.55,342.79   " class="st2"/>
    <polygon id="svg_120" points="131.41,351.88 103.19,351.88 98.22,342.79 126.44,342.79   " class="st0"/>
    <path id="svg_121" d="m87.11,370.53c0,8.76 -2.79,15.86 -6.23,15.86c-3.44,0 -6.23,-7.1 -6.23,-15.86s2.79,-15.86 6.23,-15.86c3.44,0.01 6.23,7.1 6.23,15.86z" class="st2"/>
   </g>
  </g>
  <g id="svg_122">
   <g id="svg_123">
    <path id="svg_124" d="m346.15,390.02c-6.06,4.45 -16.27,3.01 -16.18,8.52c13.36,1.42 20.08,-1.79 20.08,-1.79l0.03,1.77l4.66,-0.59c0,0 1.81,-4.49 0.56,-8.14l-9.15,0.23z" class="st10"/>
    <path id="svg_125" d="m382.29,389.38c-6.06,4.45 -16.27,3.01 -16.18,8.52c13.36,1.42 20.08,-1.79 20.08,-1.79l0.03,1.77l4.66,-0.59c0,0 1.81,-4.49 0.56,-8.14l-9.15,0.23z" class="st10"/>
    <g id="svg_126">
     <path id="svg_127" d="m383.52,265.13l-39.5,0.63c0,0 -5.16,50.54 2.13,124.26c3.05,1.85 6.1,1.73 9.15,-0.23c0,0 2.54,-61.24 6.88,-105.19c0.77,-0.03 10.94,62.12 20.11,104.78c3.01,1.87 6.07,1.7 9.15,-0.23c0,0.01 -5.52,-44.21 -7.92,-124.02z" class="st3"/>
     <g id="svg_128">
      <path id="svg_129" d="m362.22,273.01c0.03,-0.69 -1.05,-0.69 -1.08,0c-0.14,3.32 -0.11,6.63 0.09,9.95c0.04,0.69 1.12,0.69 1.08,0c-0.19,-3.32 -0.22,-6.64 -0.09,-9.95z" class="st7"/>
      <path id="svg_130" d="m385.01,341.51c-1.08,-14.65 -1.83,-29.33 -2.25,-44.01c-0.24,-8.33 -0.37,-16.66 -0.4,-24.99c0,-0.69 -1.08,-0.7 -1.08,0c0.05,14.78 0.44,29.56 1.15,44.33c0.71,14.67 1.75,29.33 3.12,43.96c0.77,8.3 1.66,16.58 2.64,24.85c0.08,0.68 1.16,0.69 1.08,0c-1.76,-14.68 -3.18,-29.39 -4.26,-44.14z" class="st7"/>
      <path id="svg_131" d="m359.06,285.13c-1.39,13.45 -2.54,26.92 -3.46,40.41c-0.92,13.49 -1.61,27 -2.06,40.51c-0.25,7.61 -0.43,15.22 -0.54,22.83c-0.01,0.69 1.07,0.67 1.08,-0.02c0.19,-13.52 0.61,-27.04 1.27,-40.54c0.66,-13.51 1.55,-27 2.67,-40.47c0.63,-7.58 1.34,-15.16 2.12,-22.73c0.07,-0.7 -1.01,-0.67 -1.08,0.01z" class="st7"/>
     </g>
    </g>
   </g>
   <g id="svg_132">
    <g id="svg_133">
     <g id="svg_134">
      <path id="svg_135" d="m382.57,204.1c0,0 16.3,19.18 17.11,75.62l-6.63,0c0,0 -1.25,-34.53 -12.46,-55.56l1.98,-20.06z" class="st11"/>
      <path id="svg_136" d="m392.1,286.32c0.06,0.47 0.09,1.18 0.6,1.41c0.52,0.23 0.99,-0.2 1.11,-0.68c0.17,-0.66 0.19,-1.4 0.27,-2.08c0.03,-0.23 0.06,-0.46 0.09,-0.68c0.47,1.33 0.74,2.73 0.78,4.15c0.02,0.92 -0.04,1.83 -0.21,2.74c-0.13,0.69 -0.31,1.53 0.36,2.01c0.34,0.24 0.71,0.21 1.03,0.04c0.37,0.17 0.82,0.12 1.18,-0.16c0.1,-0.08 0.19,-0.17 0.27,-0.27c0.1,0.13 0.28,0.2 0.46,0.09c0.55,-0.34 0.93,-0.84 1.19,-1.42c0.13,0.01 0.26,-0.03 0.35,-0.17c1.69,-2.6 2.17,-5.88 1.4,-8.87c-0.36,-1.4 -1.01,-3.03 -2.11,-4.03c-1.35,-1.23 -3.17,-0.75 -4.7,-0.21c-0.04,0.02 -0.07,0.04 -0.11,0.06c-0.16,-0.11 -0.4,-0.11 -0.52,0.11c-1.29,2.43 -1.81,5.23 -1.44,7.96z" class="st11"/>
     </g>
     <g id="svg_137">
      <g id="svg_138">
       <path id="svg_139" d="m366.25,213.91c0,0 -24.65,1.94 -76.63,-29.33l3.76,-6.05c0,0 32.23,18.44 57.79,20.12l15.08,15.26z" class="st11"/>
      </g>
      <path id="svg_140" d="m278.09,173.77c-0.06,0.53 0.38,0.93 0.86,1.01c1.55,0.26 3.12,0.44 4.69,0.55c-0.09,1.85 0.25,3.74 1.02,5.43c0.77,1.68 2.21,3.2 4.07,3.52c0.12,0.08 0.26,0.12 0.41,0.12c1.76,0.01 3.42,-0.77 4.68,-1.99c1.15,-1.11 1.95,-2.47 2.72,-3.86c0.16,-0.29 0.32,-0.57 0.51,-0.85c0.09,-0.14 0.18,-0.27 0.28,-0.4c0.04,-0.05 0.08,-0.11 0.13,-0.16c0.01,-0.01 0.03,-0.03 0.05,-0.05c0.12,-0.12 0.25,-0.23 0.38,-0.34c0.01,-0.01 0.02,-0.02 0.03,-0.03c0.01,0 0.02,-0.01 0.03,-0.01c0.07,-0.04 0.14,-0.08 0.21,-0.11c0.06,-0.03 0.12,-0.05 0.18,-0.08c0.03,-0.01 0.04,-0.02 0.04,-0.02c0.05,-0.02 0.1,-0.03 0.15,-0.05c0.19,-0.07 0.37,-0.15 0.53,-0.29c0.43,-0.38 0.57,-1.01 0.32,-1.52c-0.2,-0.4 -0.6,-0.69 -1.01,-0.83c-0.78,-0.25 -1.68,-0.07 -2.41,0.26c-1,0.44 -1.73,1.22 -2.34,2.1c-0.08,-0.27 -0.17,-0.53 -0.25,-0.8c-1.24,-3.92 -2.58,-7.82 -4.41,-11.52c-0.21,-0.42 -0.7,-0.62 -1.14,-0.47c-0.42,0.14 -0.75,0.61 -0.63,1.06l1.22,4.62c0.13,0.5 0.26,1 0.39,1.5c-1.7,-1.68 -3.4,-3.36 -5.11,-5.03c-0.34,-0.33 -0.66,-0.52 -1.07,-0.25c-0.39,0.26 -0.34,0.83 -0.14,1.26c0.84,1.81 2.16,3.46 3.43,4.98c-1.63,-0.69 -3.74,-1.44 -5.33,-2.2c-0.42,-0.2 -0.95,0.08 -1.15,0.46c-0.23,0.45 0.17,0.84 0.53,1.15c1.02,0.89 2.83,1.52 3.96,2.25c-1.29,-0.11 -3.54,-0.04 -4.81,-0.25c-0.54,-0.11 -0.97,0.37 -1.02,0.84z" class="st11"/>
     </g>
     <g id="svg_141">
      <path id="svg_142" d="m377.54,198.43c7.49,3.24 14.87,20.56 14.87,20.56l-11.75,7.04l-3.12,-27.6z" class="st0"/>
      <path id="svg_143" d="m359.35,195.43c0,0 -13.43,3.48 -27.35,-1.24l-3.23,11.44c0,0 10.95,7.18 21.58,8.3l9,-18.5z" class="st0"/>
      <g id="svg_144">
       <path id="svg_145" d="m359.35,195.43l-9.2,3c0,0 -4.73,39.46 -6.98,69.88c28.98,6.13 41.35,-0.07 41.35,-0.07c-1.72,-35.82 -6.98,-69.81 -6.98,-69.81l-9.14,-3l-9.05,0z" class="st0"/>
       <ellipse id="svg_146" ry="20.04" rx="7.19" cy="231.34" cx="363.84" class="st2"/>
      </g>
     </g>
    </g>
    <g id="svg_147">
     <path id="svg_148" d="m375.49,174.25c-1.25,3.68 -2.99,7.2 -5.2,10.4c-0.78,1.13 -1.75,2.49 -3.27,2.52c-1.65,0.03 -2.62,-1.38 -3.39,-2.63c-3.52,-5.74 -10.87,-7.53 -14.47,-13.26c-0.99,-1.57 -1.44,-3.59 -1.71,-5.43c-0.27,-1.83 -0.19,-3.75 0.49,-5.48c0.67,-1.73 1.97,-3.25 3.68,-3.97c1.71,-0.72 3.82,-0.55 5.26,0.62c0.02,-0.73 0.38,-1.34 1,-1.73s1.36,-0.55 2.09,-0.62c4.12,-0.42 8.38,1.84 10.36,5.47c0.78,-0.33 1.8,-0.12 2.46,0.41c0.66,0.52 1.1,1.28 1.46,2.04c1.66,3.49 2.48,7.99 1.24,11.66z" class="st10"/>
     <path id="svg_149" d="m369.56,164.3c-4.08,-7.49 -18.45,-4.93 -19.57,1.02c-2.3,12.24 -0.55,17.27 2.85,20.16c3.94,3.35 6.51,2.92 6.51,9.95c1.49,3.74 7.2,4.25 9.05,0c-0.11,-9.31 3.08,-16.37 3.08,-16.37s-0.24,-11.68 -1.92,-14.76z" class="st11"/>
     <path id="svg_150" d="m368.03,165.95c-2.47,3.56 -7.43,2.74 -7.43,2.74l2.86,-2.47c0,0 -7.09,4.2 -14.41,2.74c0,0 -1.07,-2.69 2.21,-7.17c2.1,-2.87 8.22,-3.57 13.44,-2.61s7.49,3.23 7.66,6.98c0.17,3.74 0.55,8.42 0.55,8.42l-2.03,1.54c-3.16,-2.11 -2.85,-10.17 -2.85,-10.17z" class="st10"/>
     <g id="svg_151">
      <g id="svg_152">
       <circle id="svg_153" r="0.92" cy="175.84" cx="359.87" class="st10"/>
       <path id="svg_154" d="m359.87,175.58c0,0.19 -0.15,0.34 -0.34,0.34c-0.19,0 -0.34,-0.15 -0.34,-0.34c0,-0.19 0.15,-0.34 0.34,-0.34c0.18,0.01 0.34,0.16 0.34,0.34z" class="st4"/>
      </g>
      <g id="svg_155">
       <path id="svg_156" d="m353.66,175.84c0,0.51 -0.41,0.92 -0.92,0.92c-0.51,0 -0.92,-0.41 -0.92,-0.92c0,-0.51 0.41,-0.92 0.92,-0.92c0.51,0 0.92,0.41 0.92,0.92z" class="st10"/>
       <path id="svg_157" d="m352.74,175.58c0,0.19 -0.15,0.34 -0.34,0.34c-0.19,0 -0.34,-0.15 -0.34,-0.34c0,-0.19 0.15,-0.34 0.34,-0.34c0.19,0.01 0.34,0.16 0.34,0.34z" class="st4"/>
      </g>
      <path id="svg_158" d="m354.28,172.23c-1.16,-0.81 -2.66,-0.76 -3.75,0.18c-0.2,0.18 -0.24,0.53 -0.08,0.76c0.16,0.23 0.46,0.27 0.66,0.1c0.45,-0.39 1.02,-0.56 1.57,-0.52c0.28,0.02 0.56,0.1 0.82,0.22c0.23,0.11 0.45,0.31 0.71,0.16c0.06,-0.04 0.11,-0.09 0.16,-0.15c0.14,-0.2 0.13,-0.6 -0.09,-0.75z" class="st10"/>
      <path id="svg_159" d="m357.87,172.23c1.33,-0.81 3.05,-0.76 4.3,0.18c0.23,0.18 0.27,0.53 0.1,0.76c-0.18,0.23 -0.53,0.27 -0.76,0.1c-0.51,-0.39 -1.17,-0.55 -1.8,-0.51c-0.32,0.02 -0.64,0.1 -0.94,0.22c-0.26,0.11 -0.52,0.31 -0.81,0.16c-0.07,-0.04 -0.13,-0.09 -0.18,-0.15c-0.17,-0.21 -0.16,-0.61 0.09,-0.76z" class="st10"/>
      <path id="svg_160" d="m355.94,181.07c-0.5,0 -1.03,-0.11 -1.53,-0.38c-0.24,-0.12 -0.33,-0.41 -0.2,-0.65c0.12,-0.23 0.41,-0.33 0.65,-0.2c1.22,0.64 2.58,-0.02 2.97,-0.55c0.16,-0.21 0.46,-0.26 0.67,-0.1c0.21,0.16 0.26,0.46 0.1,0.67c-0.45,0.63 -1.5,1.21 -2.66,1.21z" class="st12"/>
      <path id="svg_161" d="m354.81,178.33c-0.05,0 -0.1,-0.03 -0.12,-0.09c-0.23,-0.79 0.04,-1.05 0.3,-1.14c0.27,-0.09 0.59,-0.02 0.95,0.21c0.06,0.03 0.07,0.11 0.04,0.17c-0.04,0.06 -0.11,0.07 -0.17,0.04c-0.3,-0.19 -0.55,-0.25 -0.75,-0.18c-0.24,0.08 -0.29,0.36 -0.15,0.84c0.02,0.06 -0.02,0.13 -0.08,0.15c0,0 -0.01,0 -0.02,0z" class="st12"/>
     </g>
     <g id="svg_162">
      <path id="svg_163" d="m374.63,179.32c-1.23,1.47 -3.17,1.87 -4.34,0.89c-1.17,-0.98 -1.11,-2.96 0.12,-4.43c1.23,-1.47 3.17,-1.87 4.34,-0.89s1.11,2.97 -0.12,4.43z" class="st11"/>
      <path id="svg_164" d="m373.95,175.61c-0.52,-0.28 -1.22,-0.26 -1.87,0.04c-0.32,0.15 -0.55,0.33 -0.71,0.56c-0.21,0.3 -0.27,0.67 -0.15,0.97c0.1,0.27 0.32,0.45 0.51,0.6c0.14,0.11 0.27,0.22 0.34,0.35c0.11,0.2 0.08,0.47 -0.07,0.64c-0.15,0.17 -0.42,0.22 -0.63,0.13c-0.12,-0.06 -0.26,0 -0.32,0.12c-0.06,0.12 0,0.26 0.12,0.32c0.13,0.06 0.28,0.09 0.42,0.09c0.29,0 0.57,-0.12 0.77,-0.33c0.29,-0.32 0.35,-0.83 0.13,-1.2c-0.12,-0.2 -0.3,-0.35 -0.46,-0.48c-0.16,-0.13 -0.31,-0.25 -0.37,-0.4c-0.06,-0.15 -0.02,-0.36 0.1,-0.52c0.05,-0.07 0.11,-0.13 0.18,-0.18c0.24,0 0.54,0.07 0.69,0.24c0.17,0.19 0.25,0.46 0.21,0.7c-0.02,0.13 0.07,0.25 0.2,0.28c0.01,0 0.03,0 0.04,0c0.12,0 0.22,-0.08 0.24,-0.2c0.07,-0.4 -0.06,-0.81 -0.33,-1.11c-0.1,-0.11 -0.23,-0.19 -0.36,-0.25c0.4,-0.11 0.79,-0.09 1.1,0.07c0.38,0.2 0.66,0.71 0.47,1.13c-0.06,0.12 0,0.26 0.12,0.32c0.12,0.06 0.26,0 0.32,-0.12c0.27,-0.62 -0.04,-1.42 -0.69,-1.77z" class="st12"/>
     </g>
    </g>
   </g>
  </g>
  <g id="svg_165">
   <g id="svg_166">
    <rect id="svg_167" height="54.7" width="96.63" class="st0" y="38.62" x="175.33"/>
    <g id="svg_168">
     <rect id="svg_169" height="3.23" width="14.67" class="st2" y="43.16" x="235.14"/>
     <g id="svg_170">
      <rect id="svg_171" height="3.23" width="88.64" class="st2" y="58.3" x="179.33"/>
      <rect id="svg_172" height="3.23" width="50.09" class="st2" y="72.17" x="179.33"/>
      <rect id="svg_173" height="3.23" width="35.3" class="st2" y="79.1" x="179.33"/>
     </g>
     <g id="svg_174">
      <rect id="svg_175" height="7.04" width="7.04" class="st3" transform="matrix(0.7071,-0.7071,0.7071,0.7071,20.4423,205.2715) " y="74.44" x="254.48"/>
      <rect id="svg_176" height="7.04" width="7.04" class="st7" transform="matrix(0.7071,-0.7071,0.7071,0.7071,21.9014,208.794) " y="74.44" x="259.46"/>
     </g>
     <rect id="svg_177" height="6.71" width="15.66" class="st3" y="42.64" x="179.33"/>
     <path id="svg_178" d="m265.23,47.12l-9.09,0c-1.14,0 -2.06,-0.92 -2.06,-2.06l0,-0.36c0,-1.14 0.92,-2.06 2.06,-2.06l9.09,0c1.14,0 2.06,0.92 2.06,2.06l0,0.35c0.01,1.14 -0.92,2.07 -2.06,2.07z" class="st4"/>
    </g>
   </g>
   <g id="svg_179">
    <g id="svg_180">
     <rect id="svg_181" height="38.85" width="38.85" class="st3" y="54.36" x="110.98"/>
     <text id="svg_182" class="st7 st5 st13" transform="matrix(1,0,0,1,122.6353,83.9449) ">$</text>
    </g>
    <g id="svg_183">
     <g id="svg_184">
      <rect id="svg_185" height="38.85" width="38.85" class="st3" transform="matrix(-1,-1.224647e-16,1.224647e-16,-1,633.7831,147.564) " y="54.36" x="297.47"/>
     </g>
     <path id="svg_186" d="m324.74,67.66l-2.12,0c0,-3.16 -2.57,-5.72 -5.72,-5.72c-3.16,0 -5.72,2.57 -5.72,5.72l-2.12,0l-2.79,17.84l21.27,0l-2.8,-17.84zm-7.85,-4.01c2.49,0 4.07,1.52 4.07,4.01l-8.09,0c0,-2.49 1.53,-4.01 4.02,-4.01z" class="st7"/>
    </g>
   </g>
  </g>
  <g id="svg_187">
   <g id="svg_188">
    <path id="svg_189" d="m27.35,217.19c-0.05,-1.12 -0.95,-2.02 -2.07,-2.07l-7.88,-0.36c-0.61,-0.03 -1.2,0.2 -1.63,0.63l-9.96,9.96c-0.85,0.85 -0.84,2.22 0,3.07l8.24,8.24c0.84,0.84 2.22,0.85 3.07,0l9.96,-9.96c0.43,-0.43 0.66,-1.03 0.63,-1.63l-0.36,-7.88zm-2.09,1.96c-0.53,0.53 -1.4,0.53 -1.93,0c-0.53,-0.53 -0.53,-1.4 0,-1.93c0.53,-0.53 1.4,-0.53 1.93,0c0.53,0.53 0.53,1.39 0,1.93z" class="st3"/>
    <path id="svg_190" d="m17.86,243.89c-9.85,0 -17.86,-8.01 -17.86,-17.86c0,-9.85 8.01,-17.86 17.86,-17.86c9.85,0 17.86,8.01 17.86,17.86c0.01,9.85 -8.01,17.86 -17.86,17.86zm0,-33.81c-8.8,0 -15.95,7.16 -15.95,15.95c0,8.8 7.16,15.95 15.95,15.95c8.8,0 15.95,-7.16 15.95,-15.95c0.01,-8.8 -7.15,-15.95 -15.95,-15.95z" class="st3"/>
   </g>
   <g id="svg_191">
    <path id="svg_192" d="m63.67,65.9l-2.5,0l-2.23,0l-2.64,-6.43c-0.22,-0.53 -0.82,-0.78 -1.35,-0.56c-0.53,0.22 -0.78,0.82 -0.56,1.35l2.32,5.64l-12.21,0l2.32,-5.64c0.22,-0.53 -0.04,-1.13 -0.56,-1.35c-0.53,-0.22 -1.13,0.04 -1.35,0.56l-2.64,6.43l-2.23,0l-2.5,0c-0.57,0 -1.03,0.46 -1.03,1.03c0,0.57 0.46,1.03 1.03,1.03l1.73,0l3.16,10.6c0.13,0.44 0.53,0.74 0.99,0.74l14.38,0c0.46,0 0.86,-0.3 0.99,-0.74l3.16,-10.6l1.73,0c0.57,0 1.03,-0.46 1.03,-1.03c-0.01,-0.57 -0.47,-1.03 -1.04,-1.03zm-6.65,11.34l-12.84,0l-1,-3.37l14.85,0l-1.01,3.37zm1.62,-5.43l-16.08,0l-1.14,-3.84l1.54,0c0,0 0,0 0,0c0,0 0,0 0,0l15.28,0c0,0 0,0 0,0c0,0 0,0 0,0l1.54,0l-1.14,3.84z" class="st3"/>
    <path id="svg_193" d="m50.6,88.38c-10.65,0 -19.31,-8.66 -19.31,-19.31c0,-10.65 8.66,-19.31 19.31,-19.31c10.65,0 19.31,8.66 19.31,19.31c0,10.65 -8.66,19.31 -19.31,19.31zm0,-36.56c-9.51,0 -17.25,7.74 -17.25,17.25s7.74,17.24 17.25,17.24c9.51,0 17.24,-7.74 17.24,-17.24s-7.73,-17.25 -17.24,-17.25z" class="st3"/>
   </g>
   <g id="svg_194">
    <path id="svg_195" d="m157.99,12.59l-0.62,0l-9.66,0l9.66,-1.55l0,-2.82c0,-1.44 -1.27,-2.43 -2.47,-1.91l-13.52,5.77c-0.65,0.28 -1.06,0.93 -1.15,1.68c0,0.01 -0.01,0.03 0,0.04c-0.01,0.06 -0.03,0.12 -0.03,0.19l0,0.07l0,13.21l0,1.49c0,0.82 0.66,1.48 1.49,1.48l16.29,0c0.82,0 1.48,-0.66 1.48,-1.48l0,-14.69c0,-0.82 -0.66,-1.48 -1.47,-1.48zm-2.51,6.77c0.85,0 1.54,0.69 1.54,1.54c0,0.86 -0.69,1.55 -1.54,1.55c-0.85,0 -1.54,-0.69 -1.54,-1.55c0,-0.84 0.69,-1.54 1.54,-1.54z" class="st3"/>
    <path id="svg_196" d="m149.83,38.62c-10.65,0 -19.31,-8.66 -19.31,-19.31c0,-10.65 8.67,-19.31 19.31,-19.31c10.65,0 19.31,8.66 19.31,19.31c0,10.65 -8.66,19.31 -19.31,19.31zm0,-36.55c-9.51,0 -17.25,7.74 -17.25,17.25c0,9.51 7.74,17.24 17.25,17.24c9.51,0 17.24,-7.74 17.24,-17.24c0.01,-9.52 -7.73,-17.25 -17.24,-17.25z" class="st3"/>
   </g>
   <g id="svg_197">
    <g id="svg_198">
     <path id="svg_199" d="m370.77,30.16l-5.95,0c1.32,-0.31 2.7,-0.84 3.15,-1.76c0.2,-0.4 0.31,-1.06 -0.28,-1.92c-0.48,-0.7 -1.08,-1.03 -1.75,-0.99c-1.66,0.11 -3.28,2.59 -3.99,3.83c-0.71,-1.24 -2.33,-3.72 -3.99,-3.83c-0.68,-0.06 -1.27,0.29 -1.75,0.99c-0.59,0.86 -0.48,1.52 -0.28,1.92c0.45,0.92 1.83,1.45 3.15,1.76l-5.95,0c-0.48,0 -0.88,0.39 -0.88,0.88l0,2.36c0,0.48 0.39,0.88 0.88,0.88l17.66,0c0.48,0 0.88,-0.39 0.88,-0.88l0,-2.36c-0.02,-0.49 -0.41,-0.88 -0.9,-0.88zm-14.13,-2.11c-0.06,-0.11 -0.23,-0.46 0.22,-1.12c0.3,-0.43 0.62,-0.64 0.98,-0.64c0.02,0 0.04,0 0.06,0c1.17,0.08 2.59,2.12 3.34,3.41c-1.78,-0.18 -4.14,-0.72 -4.6,-1.65zm9.35,-1.76c0.02,0 0.04,0 0.06,0c0.36,0 0.68,0.21 0.98,0.64c0.45,0.65 0.28,1 0.22,1.12c-0.46,0.93 -2.82,1.47 -4.6,1.65c0.76,-1.3 2.18,-3.33 3.34,-3.41z" class="st3"/>
     <path id="svg_200" d="m369.27,35.85l-14.64,0c-0.69,0 -1.24,0.56 -1.24,1.24l0,11.21c0,0.69 0.56,1.24 1.24,1.24l14.64,0c0.69,0 1.24,-0.56 1.24,-1.24l0,-11.21c0,-0.69 -0.56,-1.24 -1.24,-1.24z" class="st3"/>
    </g>
    <path id="svg_201" d="m361.95,57.93c-10.65,0 -19.31,-8.66 -19.31,-19.31c0,-10.65 8.66,-19.31 19.31,-19.31c10.65,0 19.31,8.66 19.31,19.31c0,10.65 -8.67,19.31 -19.31,19.31zm0,-36.56c-9.51,0 -17.25,7.74 -17.25,17.25c0,9.51 7.74,17.24 17.25,17.24s17.25,-7.74 17.25,-17.24c-0.01,-9.51 -7.74,-17.25 -17.25,-17.25z" class="st3"/>
   </g>
   <g id="svg_202">
    <path id="svg_203" d="m430.31,148.04c-1.01,-0.82 -2.48,-0.7 -3.36,0.25c-2.2,2.39 -4.83,2.28 -4.83,2.28s-2.62,0.11 -4.83,-2.28c-0.88,-0.95 -2.35,-1.07 -3.36,-0.25l-5.5,4.47c-0.51,0.41 -0.59,1.15 -0.18,1.66l2.13,2.71c0.39,0.49 1.1,0.6 1.61,0.24l2.83,-1.97l0,13.47c0,0.66 0.53,1.19 1.19,1.19l6.11,0l6.11,0c0.66,0 1.19,-0.53 1.19,-1.19l0,-13.47l2.83,1.97c0.52,0.36 1.22,0.25 1.61,-0.24l2.13,-2.71c0.4,-0.51 0.32,-1.25 -0.18,-1.66l-5.5,-4.47z" class="st3"/>
    <path id="svg_204" d="m422.12,176.84c-10.65,0 -19.31,-8.66 -19.31,-19.31c0,-10.65 8.66,-19.31 19.31,-19.31s19.31,8.66 19.31,19.31c0,10.64 -8.66,19.31 -19.31,19.31zm0,-36.56c-9.51,0 -17.25,7.74 -17.25,17.25c0,9.51 7.74,17.24 17.25,17.24s17.25,-7.74 17.25,-17.24c-0.01,-9.51 -7.74,-17.25 -17.25,-17.25z" class="st3"/>
   </g>
   <g id="svg_205">
    <g id="svg_206">
     <polygon id="svg_207" points="422.44,273.55 426.89,285.12 440.31,285.12 444.23,273.55    " class="st3"/>
     <path id="svg_208" d="m420.62,273.46l-3.5,0l0,2.07l2.11,0l5.33,13.17l2.86,0l0,0.46c0,0.83 0.67,1.49 1.49,1.49c0.83,0 1.49,-0.67 1.49,-1.49l0,-0.46l4.15,0l0,0.46c0,0.83 0.67,1.49 1.49,1.49c0.82,0 1.49,-0.67 1.49,-1.49l0,-0.46l2.73,0l0,-2.07l-14.33,0l-5.31,-13.17z" class="st3"/>
    </g>
    <path id="svg_209" d="m431.03,299.03c-10.65,0 -19.31,-8.66 -19.31,-19.31c0,-10.65 8.66,-19.31 19.31,-19.31c10.65,0 19.31,8.66 19.31,19.31c0,10.65 -8.66,19.31 -19.31,19.31zm0,-36.56c-9.51,0 -17.25,7.74 -17.25,17.25c0,9.51 7.74,17.24 17.25,17.24c9.51,0 17.24,-7.74 17.24,-17.24c0.01,-9.51 -7.73,-17.25 -17.24,-17.25z" class="st3"/>
   </g>
  </g>
 </g>
</svg>