<!-- Generator: Adobe Illustrator 24.0.2, SVG Export Plug-In  -->
<svg version="1.1" xmlns="http://www.w3.org/2000/svg" xmlns:xlink="http://www.w3.org/1999/xlink" x="0px" y="0px"
	 width="364.39px" height="280.48px" viewBox="0 0 364.39 280.48" style="enable-background:new 0 0 364.39 280.48;"
	 xml:space="preserve">
<style type="text/css">
	.st0{fill:#fdb341;}
	.st1{fill:#008c5d;}
	.st2{fill:#FFD175;}
	.st3{fill:#00B1B1;}
	.st4{fill:#E75C52;}
	.st5{fill:none;stroke:#000000;stroke-width:0.9641;stroke-linecap:round;stroke-linejoin:round;stroke-miterlimit:10;}
	.st6{fill:#009995;}
	.st7{fill:#16D9D9;}
	.st8{fill:#000000;stroke:#000000;stroke-linecap:round;stroke-linejoin:round;stroke-miterlimit:10;}
	.st9{fill:none;stroke:#000000;stroke-linecap:round;stroke-linejoin:round;stroke-miterlimit:10;}
	.st10{fill:#F39780;}
	.st11{fill:#000000;}
	.st12{fill:#02583c;}
	.st13{fill:#ED7C70;}
</style>
<defs>
</defs>
<g id="WEBPAGE_1_">
	<g>
		
			<rect x="8.8" y="73.32" transform="matrix(0.9848 -0.1736 0.1736 0.9848 -20.8948 17.3088)" class="st0" width="159.35" height="109.51"/>
		
			<rect x="-0.04" y="74.09" transform="matrix(0.9848 -0.1736 0.1736 0.9848 -12.3217 15.0117)" class="st1" width="159.35" height="7.67"/>
		
			<rect x="17.64" y="174.38" transform="matrix(0.9848 -0.1736 0.1736 0.9848 -29.4678 19.606)" class="st1" width="159.35" height="7.67"/>
		<path class="st2" d="M144.38,90.41L23.06,111.81c-3.07,0.54-6-1.51-6.55-4.58l0,0c-0.54-3.07,1.51-6,4.58-6.55l121.33-21.39
			c3.07-0.54,6,1.51,6.55,4.58l0,0C149.51,86.94,147.46,89.87,144.38,90.41z"/>
		<path class="st2" d="M69.01,174.68l-33.81,5.96c-3.07,0.54-6-1.51-6.55-4.58v0c-0.54-3.07,1.51-6,4.58-6.55l33.81-5.96
			c3.07-0.54,6,1.51,6.55,4.58l0,0C74.13,171.21,72.08,174.14,69.01,174.68z"/>
		<path class="st0" d="M145.11,84.55c-0.14-0.79-0.9-1.32-1.69-1.18c-0.79,0.14-1.32,0.9-1.18,1.69c0.14,0.79,0.9,1.32,1.69,1.18
			C144.72,86.09,145.25,85.34,145.11,84.55z"/>
		<path class="st3" d="M139.71,85.5c-0.14-0.79-0.9-1.32-1.69-1.18c-0.79,0.14-1.32,0.9-1.18,1.69c0.14,0.79,0.9,1.32,1.69,1.18
			C139.32,87.05,139.85,86.29,139.71,85.5z"/>
		<path class="st4" d="M134.31,86.45c-0.14-0.79-0.9-1.32-1.69-1.18c-0.79,0.14-1.32,0.9-1.18,1.69c0.14,0.79,0.9,1.32,1.69,1.18
			C133.92,88,134.45,87.24,134.31,86.45z"/>
		<g>
			<path class="st5" d="M23.55,104.21c-0.87-0.61-2.06-0.4-2.67,0.47c-0.61,0.87-0.4,2.06,0.47,2.67c0.87,0.61,2.06,0.4,2.67-0.47
				C24.63,106.01,24.42,104.82,23.55,104.21z"/>
			<line class="st5" x1="24.02" y1="106.88" x2="25.44" y2="107.87"/>
		</g>
		<path class="st2" d="M64.96,157.75l-31.75,5.6c-3.64,0.64-7.12-1.79-7.76-5.43l-5.6-31.75c-0.64-3.64,1.79-7.12,5.43-7.76
			l31.75-5.6c3.64-0.64,7.12,1.79,7.76,5.43l5.6,31.75C71.03,153.64,68.6,157.11,64.96,157.75z"/>
		
			<rect x="30.31" y="127.65" transform="matrix(0.9848 -0.1736 0.1736 0.9848 -23.463 9.2957)" class="st3" width="22.17" height="22.17"/>
		
			<rect x="52.25" y="125.07" transform="matrix(0.9848 -0.1737 0.1737 0.9848 -22.7923 11.7996)" class="st6" width="7.57" height="22.17"/>
		<polygon class="st7" points="48.54,131.58 32.23,134.46 28.55,129.75 50.38,125.9 		"/>
		
			<rect x="73.47" y="109.03" transform="matrix(0.9848 -0.1736 0.1736 0.9848 -17.7306 21.3921)" class="st2" width="79.85" height="6"/>
		
			<rect x="75.46" y="120.33" transform="matrix(0.9848 -0.1736 0.1736 0.9848 -19.662 21.9095)" class="st2" width="79.85" height="6"/>
		
			<rect x="77.63" y="133.7" transform="matrix(0.9848 -0.1736 0.1736 0.9848 -22.1323 20.4169)" class="st2" width="55.97" height="6"/>
		<polygon class="st4" points="121.11,155.79 118.13,158.21 118.07,154.22 114.92,151.94 118.51,150.72 119.54,146.9 121.82,150.14 
			125.61,150.06 123.42,153.28 124.74,157.04 		"/>
		<polygon class="st4" points="104.12,158.79 101.14,161.2 101.09,157.21 97.93,154.94 101.53,153.72 102.56,149.9 104.83,153.14 
			108.62,153.05 106.44,156.27 107.75,160.04 		"/>
		<polygon class="st4" points="87.14,161.78 84.16,164.2 84.1,160.21 80.94,157.93 84.54,156.71 85.57,152.89 87.84,156.13 
			91.64,156.05 89.45,159.27 90.77,163.03 		"/>
		<polygon class="st2" points="155.08,149.8 152.1,152.22 152.04,148.23 148.89,145.95 152.48,144.73 153.51,140.91 155.79,144.15 
			159.58,144.07 157.39,147.29 158.71,151.05 		"/>
		<polygon class="st4" points="138.09,152.8 135.11,155.21 135.06,151.22 131.9,148.95 135.5,147.73 136.53,143.91 138.8,147.15 
			142.6,147.06 140.41,150.28 141.72,154.05 		"/>
		
			<rect x="166.9" y="59.07" transform="matrix(0.9848 -0.1736 0.1736 0.9848 -17.1931 31.1183)" class="st8" width="4.71" height="109.51"/>
		<g>
			
				<rect x="8.8" y="73.32" transform="matrix(0.9848 -0.1736 0.1736 0.9848 -20.8948 17.3088)" class="st9" width="159.35" height="109.51"/>
		</g>
	</g>
</g>
<g id="ICONS_1_">
	<g>
		
			<ellipse transform="matrix(0.9873 -0.1591 0.1591 0.9873 -2.4527 15.3059)" class="st3" cx="94.38" cy="22.97" rx="22.47" ry="22.47"/>
		<g>
			<g>
				<polyline class="st0" points="87.82,27.56 104.13,27.56 106.88,16.69 85.07,16.69 				"/>
				<polyline class="st9" points="79.75,13.71 84.32,13.71 88.61,30.68 103.34,30.68 				"/>
				<polyline class="st9" points="87.82,27.56 104.13,27.56 106.88,16.69 85.07,16.69 				"/>
				<circle class="st9" cx="90.79" cy="33.41" r="1.68"/>
				<circle class="st9" cx="101.66" cy="33.41" r="1.68"/>
			</g>
		</g>
		
			<ellipse transform="matrix(0.9873 -0.1591 0.1591 0.9873 -2.4527 15.3059)" class="st9" cx="94.38" cy="22.97" rx="22.47" ry="22.47"/>
	</g>
	<g>
		
			<ellipse transform="matrix(0.3775 -0.926 0.926 0.3775 86.1473 391.8069)" class="st3" cx="334.49" cy="131.83" rx="22.47" ry="22.47"/>
		<path class="st4" d="M334.49,127.76c-3.46-4.98-11.2-3.63-11.2,2.77c0,8.3,11.2,12.72,11.2,12.72s11.2-4.43,11.2-12.72
			C345.69,124.13,337.95,122.78,334.49,127.76z"/>
		<path class="st9" d="M334.49,127.76c-3.46-4.98-11.2-3.63-11.2,2.77c0,8.3,11.2,12.72,11.2,12.72s11.2-4.43,11.2-12.72
			C345.69,124.13,337.95,122.78,334.49,127.76z"/>
		
			<ellipse transform="matrix(0.3775 -0.926 0.926 0.3775 86.1473 391.8069)" class="st9" cx="334.49" cy="131.83" rx="22.47" ry="22.47"/>
	</g>
	<g>
		<circle class="st3" cx="40.93" cy="235.28" r="22.47"/>
		<path class="st2" d="M49.25,229.46c0-4.59-3.72-8.32-8.32-8.32c-4.59,0-8.32,3.72-8.32,8.32c0,0-0.52,7.52,8.32,13.91
			C49.77,236.98,49.25,229.46,49.25,229.46z M40.14,233.19c-1.58-0.3-2.86-1.58-3.16-3.16c-0.54-2.83,1.9-5.27,4.73-4.73
			c1.58,0.3,2.86,1.58,3.16,3.16C45.41,231.29,42.98,233.73,40.14,233.19z"/>
		<path class="st2" d="M35.05,245.66h11.77c0.86,0,1.56,0.7,1.56,1.56l0,0c0,0.86-0.7,1.56-1.56,1.56H35.05
			c-0.86,0-1.56-0.7-1.56-1.56l0,0C33.49,246.36,34.19,245.66,35.05,245.66z"/>
		<path class="st9" d="M49.25,229.46c0-4.59-3.72-8.32-8.32-8.32c-4.59,0-8.32,3.72-8.32,8.32c0,0-0.52,7.52,8.32,13.91
			C49.77,236.98,49.25,229.46,49.25,229.46z M40.14,233.19c-1.58-0.3-2.86-1.58-3.16-3.16c-0.54-2.83,1.9-5.27,4.73-4.73
			c1.58,0.3,2.86,1.58,3.16,3.16C45.41,231.29,42.98,233.73,40.14,233.19z"/>
		<path class="st9" d="M35.05,245.66h11.77c0.86,0,1.56,0.7,1.56,1.56l0,0c0,0.86-0.7,1.56-1.56,1.56H35.05
			c-0.86,0-1.56-0.7-1.56-1.56l0,0C33.49,246.36,34.19,245.66,35.05,245.66z"/>
		<circle class="st9" cx="40.93" cy="235.28" r="22.47"/>
	</g>
</g>
<g id="BOY_SHOPPING_1_">
	<path class="st3" d="M160.88,98.45c5.29,15.44,7.02,33.06,9.15,49.92l31.5,6.63l29.75-21.24l0,0
		c-10.7-23.12-15.79-43.62-15.79-43.62c4.55,1.99,9.19,3.63,13.82,4.97l9.55-5.35l-1.56-14.44c-2.48-1.03-4.77-2.12-6.82-3.26
		c-11.85-6.57-25.68-13.43-38.88-14.24l0,0l-10.81,8.67l-15.66-0.95l0,0c-9.64,5.98-17.19,14.66-27.74,28.73v0l0.75,13.15
		l10.23,2.82C156.37,103.53,160.88,98.45,160.88,98.45z"/>
	<g>
		<path class="st10" d="M137.39,94.28c-0.1,0.13-0.19,0.25-0.29,0.38c-14.84,19.82-47.89,35.49-47.89,35.49
			c-11.62,4.06-15.4,9.26-14.84,10.65c0.55,1.38,2.35,0.46,2.35,0.46s-2.44,2.17-1.52,3.41c0.92,1.24,4.56-1.43,4.56-1.43
			s-2.21,3.46-0.6,4.38c1.61,0.92,4.43-2.77,4.43-2.77s-1.34,4.33,0.74,4.79c2.07,0.46,6.41-9.4,6.41-9.4s-1.06,5.25,1.2,5.58
			c2.26,0.32,2.58-6.45,2.58-6.45c23.26-6.14,42.24-19.36,53.86-29.12L137.39,94.28z"/>
		<path class="st9" d="M89.2,130.16c-11.62,4.06-15.4,9.26-14.84,10.65c0.55,1.38,2.35,0.46,2.35,0.46s-2.44,2.17-1.52,3.41
			c0.92,1.24,4.56-1.43,4.56-1.43s-2.21,3.46-0.6,4.38c1.61,0.92,4.43-2.77,4.43-2.77s-1.34,4.33,0.74,4.79
			c2.07,0.46,6.41-9.4,6.41-9.4s-1.06,5.25,1.2,5.58c2.26,0.32,2.58-6.45,2.58-6.45"/>
		<g>
			<g>
				<g>
					<path class="st9" d="M76.71,141.27c1.71-1.75,5.07-4.38,5.07-4.38"/>
				</g>
				<g>
					<path class="st9" d="M79.76,143.25c1.66-2.54,3.78-4.52,3.78-4.52"/>
				</g>
				<g>
					<path class="st9" d="M83.58,144.86c1.29-2.86,2.72-5.49,2.72-5.49"/>
				</g>
			</g>
		</g>
	</g>
	<g>
		<path class="st10" d="M229.32,95.12c34.67,10.07,69.39,3.7,69.39,3.7c14.78-1.12,20.02-3.22,19.6-4.84
			c-0.36-1.42-1.91-1.23-2.3-1.16c0.54-0.12,3.35-0.78,2.85-2.12c-0.55-1.49-2.8-1.59-2.8-1.59s2.94-0.8,2.35-2.45
			c-0.59-1.66-4.04-0.73-4.04-0.73s2.77-1.38,1.31-3c-1.45-1.61-12.28,2.47-12.28,2.47s1.34-5.62-0.37-5.99
			c-1.71-0.37-4.91,6.38-4.91,6.38c-17.79,1.13-43.77-3.35-60.82-10.45L229.32,95.12z"/>
		<path class="st9" d="M303.41,98.41c11.21-1.17,15.28-2.98,14.91-4.42c-0.36-1.42-1.91-1.23-2.3-1.16
			c0.54-0.12,3.35-0.78,2.85-2.12c-0.55-1.49-2.8-1.59-2.8-1.59s2.94-0.8,2.35-2.45c-0.59-1.66-4.04-0.73-4.04-0.73
			s2.77-1.38,1.31-3c-1.45-1.61-12.28,2.47-12.28,2.47s1.34-5.62-0.37-5.99c-1.71-0.37-4.91,6.38-4.91,6.38"/>
		<path class="st9" d="M314.38,85.93c0,0-3.6,0.81-6.3,1.61"/>
		<path class="st9" d="M316.07,89.11c-2.03,0.16-5.42,0.95-6.98,1.33"/>
		<path class="st9" d="M315.93,92.85c-2.05,0.33-4.94,0.79-6.29,1.01"/>
		<path class="st9" d="M307.55,86.56c0,0,2.07,3.18,2.17,8.85"/>
		<path class="st9" d="M303.41,85.4c-0.48,2.42-1.5,3.94-1.5,3.94"/>
	</g>
	<g>
		<path class="st11" d="M274,148.02c0,0,4.4-7.21,6.57-7.05c4.63,0.33,21.23,15.57,20.16,18.35c-1,2.59-16.77-2.07-16.77-2.07
			L274,148.02z"/>
		<path class="st1" d="M270.26,160.62l-9.04-1.15l0,0c-7.56,6.35-12.68,9.93-12.68,9.93l14.1,15.26c4.06-3.15,7.81-7.31,11-11.43
			L270.26,160.62z"/>
		<path class="st10" d="M273.66,173.21c6.23-8.05,10.3-15.96,10.3-15.96c-0.69-6.78-9.96-9.23-9.96-9.23
			c-4.64,4.44-9.01,8.28-12.77,11.44L273.66,173.21z"/>
		<path class="st12" d="M270.41,177.16c-7.1-4.02-12.99-9.58-15.74-12.37c-3.8,2.98-6.12,4.6-6.12,4.6l14.1,15.26
			C265.41,182.51,268.02,179.9,270.41,177.16z"/>
	</g>
	<g>
		<path class="st10" d="M177.66,59.64c-4.7,1.67-8.77,3.59-12.53,5.92c2.71,2.97,8.79,8.06,17.14,5.79
			c6.61-1.8,8.73-8.29,9.34-13.51C186.83,57.55,182.14,58.04,177.66,59.64z"/>
		<path class="st11" d="M157.49,44.68c0,0-14.1,0-16.44-10.46c-1.56-6.97,2.34-9.2,2.34-9.2s-3.87-7.05,0.69-13.97
			c4.56-6.91,12.03-4.56,15.76-1.73c3.73,2.83,4.72-2.21,13.15-1.73c8.42,0.48,8.77,6.78,8.77,6.78s7.59,0.28,9.84,11.23
			c1.77,8.62-3.48,13.93-3.48,13.93s5.46,12.38-7.2,10.37L157.49,44.68z"/>
		<polygon class="st10" points="170.56,54.89 172.91,63.67 182.59,61.39 179.34,51.92 		"/>
		<path class="st13" d="M179.34,51.92l-8.78,2.97l1.05,3.93c1.84,0.19,5.76,0.18,9.21-2.6L179.34,51.92z"/>
		<path class="st10" d="M151.2,30.27c0,0,1.11,3.66-0.69,5.88c0,0,4.15,16.87,14.1,20.12c9.96,3.25,23.85-2.56,21.02-18.94
			c0,0,10.42-3.46,8.16-11.66c-2.26-8.2-9.96-2.95-11.2-0.41c0,0,1.29,5.39-3.96,5.67c-5.25,0.28-8.07-5.3-8.07-5.3
			s-0.83,3.5-4.29,4.01c-3.46,0.51-4.89-3.6-4.89-3.6s-0.97,4.51-4.21,5.65C154.11,32.76,151.2,30.27,151.2,30.27z"/>
		<g>
			<line class="st9" x1="186.64" y1="26.44" x2="190.8" y2="28.52"/>
			<line class="st9" x1="188.72" y1="27.48" x2="187.38" y2="30.56"/>
		</g>
		<g>
			<path class="st9" d="M155.26,39.54c0,0,1.24-4.29,5.67-1.52"/>
			<path class="st9" d="M169.41,35.57c0,0,1.29-4.79,7.17-1.61"/>
			<path class="st9" d="M164.45,37.09c0,0-0.56,3.07,0.32,4.46c0.33,0.52,0.96,0.69,1.63,0.69"/>
			<path class="st9" d="M162.13,46.13c0.23-0.09,5.99,1.98,9.59-3.23"/>
		</g>
		<g>
			<path class="st13" d="M183.19,46.46c0-2.44-1.98-4.42-4.43-4.42c-2.44,0-4.43,1.98-4.43,4.42s1.98,4.43,4.43,4.43
				C181.21,50.89,183.19,48.91,183.19,46.46z"/>
			<path class="st13" d="M159.68,48.29c-1.23,0-2.35,0.51-3.15,1.32c1.74,2.49,3.89,4.71,6.49,6c0.68-0.78,1.09-1.79,1.09-2.9
				C164.11,50.27,162.13,48.29,159.68,48.29z"/>
		</g>
		<path class="st10" d="M150.51,36.15c0,0-3.53-1.39-3.8,3.04c-0.28,4.43,4.29,8.32,9.26,7.27L150.51,36.15z"/>
	</g>
	<g>
		<path class="st11" d="M345.81,190.64c0,0,7.3-4.25,9.13-3.09c3.92,2.49,11.29,23.78,9.03,25.72c-2.11,1.81-14.57-8.8-14.57-8.8
			L345.81,190.64z"/>
		<path class="st10" d="M345.81,190.64c0,0-7.98,1.44-19.52,1.96l0,0l-9.56,13.43l12.26,7.28c13.11-3.97,20.42-8.85,20.42-8.85
			C351.53,197.37,345.81,190.64,345.81,190.64z"/>
		<path class="st1" d="M326.29,192.6c-11.83,0.54-27.41,0.11-41.97-3.81c-28.76-7.74-38.72-25.63-50.89-50.52
			c-0.74-1.51-1.45-3.01-2.14-4.5c-27.14,14-51.26,14.95-61.26,14.6c3.33,26.37,7.61,50.89,27.91,62.36
			c25.74,14.54,41.76-3.73,41.76-3.73c38.93,15.9,70.23,12.07,89.28,6.31L326.29,192.6z"/>
		<path class="st12" d="M205.13,168.56c0,0,4.62,29.54,20.87,46.58c8.77-2.53,13.71-8.14,13.71-8.14
			C216.19,196.21,205.13,168.56,205.13,168.56z"/>
		<path class="st9" d="M309.7,217.37c-18.33,2.28-42.22,0.97-69.99-10.37c-23.51-10.79-34.57-38.44-34.57-38.44"/>
	</g>
</g>
<g id="CREDIT_CARD_1_">
	<g>
		<path class="st3" d="M216.38,279.69l-91.42-25.56c-4.19-1.17-6.63-5.51-5.46-9.7l14.57-52.13c1.17-4.19,5.51-6.63,9.7-5.46
			l91.42,25.56c4.19,1.17,6.63,5.51,5.46,9.7l-14.57,52.13C224.9,278.41,220.56,280.86,216.38,279.69z"/>
		
			<rect x="178.7" y="162.6" transform="matrix(0.2692 -0.9631 0.9631 0.2692 -75.1582 336.8079)" class="st0" width="11.32" height="110.66"/>
		<path class="st0" d="M148.6,251.31l-16.47-4.6c-2.1-0.59-3.33-2.76-2.74-4.86l0,0c0.59-2.1,2.76-3.33,4.86-2.74l16.47,4.61
			c2.1,0.59,3.33,2.76,2.74,4.86l0,0C152.88,250.67,150.7,251.9,148.6,251.31z"/>
		<path class="st0" d="M193.58,263.88l-31.89-8.92c-2.1-0.59-3.33-2.76-2.74-4.86l0,0c0.59-2.1,2.76-3.33,4.86-2.74l31.89,8.92
			c2.1,0.59,3.33,2.76,2.74,4.86l0,0C197.86,263.24,195.68,264.47,193.58,263.88z"/>
		<path class="st0" d="M206.67,267.54l7.42,2.07c2.1,0.59,4.28-0.64,4.86-2.74l0,0c0.59-2.1-0.64-4.28-2.74-4.86l-7.42-2.07
			c-2.1-0.59-4.28,0.64-4.86,2.74v0C203.35,264.78,204.58,266.96,206.67,267.54z"/>
		
			<rect x="164.38" y="197.04" transform="matrix(0.2692 -0.9631 0.9631 0.2692 -99.3072 328.0635)" class="st2" width="4.27" height="64.86"/>
		
			<rect x="211.36" y="230.8" transform="matrix(0.2692 -0.9631 0.9631 0.2692 -77.6274 382.8973)" class="st2" width="4.28" height="23.6"/>
		
			<rect x="152.05" y="212.25" transform="matrix(0.2692 -0.9631 0.9631 0.2692 -112.7077 319.507)" class="st2" width="4.27" height="43.55"/>
		<g>
			<path class="st9" d="M216.38,279.69l-91.42-25.56c-4.19-1.17-6.63-5.51-5.46-9.7l14.57-52.13c1.17-4.19,5.51-6.63,9.7-5.46
				l91.42,25.56c4.19,1.17,6.63,5.51,5.46,9.7l-14.57,52.13C224.9,278.41,220.56,280.86,216.38,279.69z"/>
		</g>
	</g>
</g>
<g id="OBJECT_INFO_1_">
	<g>
		
			<rect x="214.39" y="20.64" transform="matrix(0.9659 -0.2588 0.2588 0.9659 -1.4086 75.1708)" class="st0" width="140.78" height="44.58"/>
		
			<rect x="352.69" y="1.73" transform="matrix(0.9659 -0.2588 0.2588 0.9659 5.8924 92.7968)" class="st8" width="5.39" height="44.58"/>
		<path class="st2" d="M223.47,43.24l25.25-6.77c2.5-0.67,5.07,0.81,5.74,3.31l5.63,21.02c0.67,2.5-0.81,5.07-3.31,5.74l-25.25,6.77
			c-2.5,0.67-5.07-0.81-5.74-3.31l-5.63-21.02C219.48,46.49,220.96,43.92,223.47,43.24z"/>
		<g>
			
				<rect x="230.33" y="48.19" transform="matrix(0.9659 -0.2588 0.2588 0.9659 -6.2793 63.4116)" class="st3" width="14.73" height="14.73"/>
			
				<rect x="244.72" y="45.63" transform="matrix(0.9659 -0.2588 0.2588 0.9659 -5.2923 65.7953)" class="st6" width="5.03" height="14.73"/>
			<polygon class="st7" points="242,50.4 231.38,53.25 228.67,50.35 242.9,46.53 			"/>
		</g>
		
			<rect x="260.44" y="22.17" transform="matrix(0.9659 -0.2588 0.2588 0.9659 3.7302 79.1695)" class="st2" width="84.2" height="6.49"/>
		
			<rect x="263.85" y="36.53" transform="matrix(0.9659 -0.2588 0.2588 0.9659 0.5511 80.4864)" class="st2" width="84.2" height="3.25"/>
		
			<rect x="265.54" y="42.81" transform="matrix(0.9659 -0.2588 0.2588 0.9659 -1.0184 81.1365)" class="st2" width="84.2" height="3.25"/>
		
			<rect x="267.51" y="51.3" transform="matrix(0.9659 -0.2588 0.2588 0.9659 -3.4384 79.7331)" class="st2" width="67.17" height="3.25"/>
		<g>
			
				<rect x="214.39" y="20.64" transform="matrix(0.9659 -0.2588 0.2588 0.9659 -1.4086 75.1708)" class="st9" width="140.78" height="44.58"/>
		</g>
	</g>
</g>
</svg>
