<!-- Generator: Adobe Illustrator 24.0.2, SVG Export Plug-In  -->
<svg version="1.1" xmlns="http://www.w3.org/2000/svg" xmlns:xlink="http://www.w3.org/1999/xlink" x="0px" y="0px"
	 width="709.83px" height="533.29px" viewBox="0 0 709.83 533.29" style="enable-background:new 0 0 709.83 533.29;"
	 xml:space="preserve">
<style type="text/css">
	.st0{fill:#A7E56C;}
	.st1{opacity:0.2;fill:#C1C1C1;}
	.st2{display:none;}
	.st3{display:inline;}
	.st4{fill:#FFFFFF;}
	.st5{fill:#E2E2E2;}
	.st6{display:inline;clip-path:url(#SVGID_4_);fill:url(#SVGID_5_);}
	.st7{display:inline;clip-path:url(#SVGID_4_);fill:#FFFFFF;}
	.st8{display:inline;clip-path:url(#SVGID_4_);}
	.st9{fill:none;stroke:#E2E2E2;stroke-linecap:round;stroke-miterlimit:10;}
	.st10{fill:none;}
	.st11{display:none;fill:#FFFFFF;stroke:#E2E2E2;stroke-linecap:round;stroke-linejoin:round;stroke-miterlimit:10;}
	.st12{fill:#EDA11B;}
	.st13{fill:#0E263F;stroke:#0E263F;stroke-miterlimit:10;}
	.st14{fill:#EFEFEF;}
	.st15{display:inline;fill:#E2E2E2;}
	.st16{display:inline;opacity:0.5;fill:#E2E2E2;}
	.st17{opacity:0.3;fill:#9B9B9B;}
	.st18{fill:#0E263F;}
	.st19{fill:#153556;}
	.st20{fill:#98B2F4;}
	.st21{opacity:0.4;fill:#E2E2E2;}
	.st22{clip-path:url(#SVGID_7_);}
	.st23{fill:#FFA288;}
	.st24{fill:none;stroke:#0E263F;stroke-linecap:round;stroke-linejoin:round;stroke-miterlimit:10;}
	.st25{opacity:0.5;fill:#E2E2E2;}
	.st26{fill:#2F5EE0;}
	.st27{clip-path:url(#SVGID_9_);}
	.st28{fill:#EFA630;}
	.st29{fill:#C1C1C1;}
	.st30{opacity:0.5;clip-path:url(#SVGID_11_);fill:#C1C1C1;}
	.st31{opacity:0.7;fill:#E2E2E2;}
	.st32{clip-path:url(#SVGID_13_);}
	.st33{fill:none;stroke:#123456;stroke-linejoin:round;stroke-miterlimit:10;}
	.st34{fill:#DCDEE2;}
	.st35{fill:#102B51;}
	.st36{fill:#153556;stroke:#153556;stroke-width:0.5;stroke-linecap:round;stroke-linejoin:round;stroke-miterlimit:10;}
	.st37{fill:#123456;stroke:#123456;stroke-width:0.5;stroke-linecap:round;stroke-linejoin:round;stroke-miterlimit:10;}
	.st38{fill:none;stroke:#153556;stroke-linecap:round;stroke-linejoin:round;stroke-miterlimit:10;}
	.st39{fill:none;stroke:#153556;stroke-width:0.5;stroke-linecap:round;stroke-linejoin:round;}
	.st40{fill:none;stroke:#153556;stroke-width:0.5;stroke-linecap:round;stroke-linejoin:round;stroke-dasharray:2.8186,2.8186;}
	.st41{clip-path:url(#SVGID_15_);}
	.st42{fill:#858AE8;}
	.st43{opacity:0.5;fill:#99B5C6;}
	.st44{opacity:0.4;}
	.st45{fill:url(#SVGID_16_);}
	.st46{fill:url(#SVGID_17_);}
	.st47{fill:#FFAF99;}
	.st48{fill:#FFFFFF;stroke:#FFFFFF;stroke-width:0.5;stroke-linecap:round;stroke-linejoin:round;stroke-miterlimit:10;}
	.st49{fill:#E88379;}
	.st50{fill:#0A1D35;}
	.st51{fill:#EDEDED;}
	.st52{display:inline;clip-path:url(#SVGID_21_);fill:url(#SVGID_22_);}
	.st53{display:inline;clip-path:url(#SVGID_21_);fill:#FFFFFF;}
	.st54{display:inline;clip-path:url(#SVGID_21_);}
	.st55{clip-path:url(#SVGID_24_);}
	.st56{clip-path:url(#SVGID_26_);}
	.st57{opacity:0.5;clip-path:url(#SVGID_28_);fill:#C1C1C1;}
	.st58{clip-path:url(#SVGID_30_);}
	.st59{clip-path:url(#SVGID_32_);}
	.st60{fill:url(#SVGID_33_);}
	.st61{fill:url(#SVGID_34_);}
</style>
<defs>
</defs>
<g>
	<g>
		<g>
			<path class="st0" d="M231.14,399.09c0.17-3.65-3.73-7.88-4.69-11.83c-1.3-5.37,1.88-8.6,4.99-12.65
				c3.65-4.76,10.1-12.38,9.26-18.97c-0.9-7.1-7.03-5.4-12.45-4.36c-4.46,0.85-10.73,3.58-12.26-2.25
				c-1.12-4.26,3.71-10.77,4.98-14.57c4.55-13.54-0.84-21.5-9.64-31.4c-6.89-7.75-9.03-12.28-8.81-22.85
				c0.22-10.26,0.63-22.61-4.08-32.07c-7.14-14.34-31.03-26.48-46.4-26.83c4.27,7.7,9.28,14.33,11.49,23.3
				c2.73,11.07-1.63,21.2-3.43,32.08c-2.79,16.85,4.03,27.2,16.71,37.01c11.27,8.72,17.22,16.05,16.46,30.88
				c-0.41,7.94-1.51,14.9,4.64,21c3.98,3.95,9.41,6.5,14.05,9.65c9.54,6.48,14.97,15.82,16.3,27.44L231.14,399.09z"/>
			<g>
				<path class="st1" d="M183.82,283.95c2.35,23.98,17.68,32.32,19.2,48.29c1.52,15.97,3.39,27.6,14.44,29.94
					c11.05,2.33,2.83,13.95,7.01,23.85c4.18,9.89,5.23,14.89,5.23,14.89l0,0l1.46-1.82c0.17-3.65-3.73-7.88-4.69-11.83
					c-1.3-5.37,1.88-8.6,4.99-12.65c3.65-4.76,10.1-12.38,9.26-18.97c-0.9-7.1-7.03-5.4-12.45-4.36
					c-4.46,0.85-10.73,3.58-12.26-2.25c-1.12-4.26,3.71-10.77,4.98-14.57c4.55-13.54-0.84-21.5-9.64-31.4
					c-6.89-7.75-9.03-12.28-8.81-22.85c0.22-10.26,0.63-22.61-4.08-32.07c-7.14-14.34-31.03-26.48-46.4-26.83
					C177.09,238.91,181.47,259.96,183.82,283.95z"/>
			</g>
		</g>
		<g class="st2">
			<g class="st3">
				<g>
					
						<rect x="572.52" y="102.98" transform="matrix(0.2638 -0.9646 0.9646 0.2638 329.039 664.898)" class="st4" width="55.15" height="27.83"/>
					<path class="st5" d="M606.6,147.78l-27.81-7.61l14.81-54.16l27.81,7.61L606.6,147.78z M580.01,139.47l25.88,7.08l14.28-52.23
						l-25.88-7.08L580.01,139.47z"/>
				</g>
				<g>
					<path class="st4" d="M580.73,134.96c2.68,0.73,4.27,3.51,3.53,6.19"/>
					<path class="st5" d="M584.74,141.28l-0.97-0.26c0.66-2.41-0.77-4.92-3.18-5.58l0.26-0.96
						C583.81,135.28,585.55,138.34,584.74,141.28z"/>
				</g>
				<g>
					<path class="st4" d="M598.81,87.96c-0.73,2.68-3.51,4.27-6.19,3.53"/>
					<path class="st5" d="M595.39,91.97c-0.92,0.25-1.92,0.27-2.91,0l0.26-0.96c2.42,0.66,4.92-0.77,5.58-3.18l0.97,0.26
						C598.76,90.05,597.23,91.47,595.39,91.97z"/>
				</g>
				<g>
					<path class="st4" d="M619.16,98.75c-2.69-0.73-4.27-3.51-3.53-6.19"/>
					<path class="st5" d="M619.03,99.23c-1.43-0.39-2.62-1.31-3.35-2.6c-0.73-1.29-0.92-2.78-0.53-4.21l0.96,0.26
						c-0.32,1.17-0.17,2.39,0.44,3.45c0.6,1.05,1.58,1.81,2.75,2.13L619.03,99.23z"/>
				</g>
				<g>
					<path class="st4" d="M601.08,145.75c0.73-2.68,3.51-4.27,6.19-3.53"/>
					<path class="st5" d="M601.56,145.88l-0.96-0.26c0.81-2.95,3.86-4.69,6.81-3.88l-0.26,0.96
						C604.72,142.04,602.22,143.47,601.56,145.88z"/>
				</g>
				<g>
					<path class="st4" d="M601.8,110.65c3.45,0.94,5.47,4.5,4.53,7.95c-0.94,3.44-4.5,5.47-7.94,4.53c-3.45-0.94-5.47-4.5-4.53-7.94
						C594.8,111.74,598.36,109.71,601.8,110.65z"/>
					<path class="st5" d="M601.92,123.62c-1.2,0.33-2.46,0.32-3.66,0c-1.79-0.49-3.29-1.65-4.21-3.27c-0.92-1.62-1.16-3.5-0.67-5.29
						c0.65-2.37,2.52-4.24,4.89-4.89c1.19-0.33,2.46-0.32,3.66,0c1.8,0.49,3.29,1.65,4.21,3.27c0.92,1.62,1.16,3.5,0.67,5.29
						C606.17,121.1,604.3,122.97,601.92,123.62z M598.53,111.13c-2.03,0.55-3.64,2.16-4.19,4.19c-0.42,1.54-0.22,3.15,0.57,4.53
						c0.79,1.38,2.07,2.38,3.61,2.8c1.03,0.28,2.11,0.28,3.14,0c2.03-0.55,3.64-2.16,4.19-4.19c0.42-1.54,0.22-3.15-0.57-4.53
						c-0.79-1.39-2.07-2.38-3.61-2.8C600.64,110.86,599.56,110.85,598.53,111.13z"/>
				</g>
			</g>
			<g class="st3">
				<g>
					
						<rect x="581.68" y="120.42" transform="matrix(0.4674 -0.8841 0.8841 0.4674 205.7341 610.1633)" class="st4" width="55.15" height="27.83"/>
					<path class="st5" d="M608.88,165.9l-25.49-13.48l26.24-49.64l25.49,13.48L608.88,165.9z M584.74,152l23.72,12.54l25.31-47.87
						l-23.72-12.54L584.74,152z"/>
				</g>
				<g>
					<path class="st4" d="M586.42,147.76c2.46,1.3,3.4,4.35,2.1,6.81"/>
					<path class="st5" d="M588.96,154.8l-0.88-0.47c1.17-2.21,0.32-4.96-1.89-6.14l0.47-0.88
						C589.35,148.74,590.39,152.1,588.96,154.8z"/>
				</g>
				<g>
					<path class="st4" d="M614.29,105.81c-1.3,2.46-4.35,3.4-6.81,2.1"/>
					<path class="st5" d="M610.09,108.99c-0.95,0.04-1.93-0.16-2.84-0.64l0.47-0.88c2.22,1.17,4.97,0.32,6.14-1.89l0.88,0.47
						C613.79,107.84,611.98,108.9,610.09,108.99z"/>
				</g>
				<g>
					<path class="st4" d="M631.81,120.77c-2.46-1.3-3.4-4.35-2.1-6.81"/>
					<path class="st5" d="M631.57,121.22c-1.31-0.69-2.27-1.85-2.71-3.27c-0.44-1.41-0.29-2.91,0.4-4.22l0.88,0.47
						c-0.57,1.07-0.68,2.3-0.33,3.46c0.36,1.16,1.15,2.11,2.22,2.68L631.57,121.22z"/>
				</g>
				<g>
					<path class="st4" d="M603.93,162.72c1.3-2.46,4.35-3.4,6.81-2.1"/>
					<path class="st5" d="M604.37,162.95l-0.88-0.47c1.43-2.7,4.78-3.73,7.49-2.31l-0.47,0.88
						C608.3,159.89,605.54,160.74,604.37,162.95z"/>
				</g>
				<g>
					<path class="st4" d="M612.28,128.62c3.16,1.67,4.36,5.58,2.69,8.74c-1.67,3.16-5.58,4.37-8.74,2.69
						c-3.16-1.67-4.36-5.58-2.69-8.74C605.21,128.16,609.12,126.95,612.28,128.62z"/>
					<path class="st5" d="M609.57,141.3c-1.24,0.06-2.47-0.22-3.57-0.8c-1.65-0.87-2.85-2.33-3.4-4.11
						c-0.55-1.78-0.37-3.67,0.5-5.31c1.15-2.17,3.39-3.59,5.84-3.71c1.24-0.06,2.47,0.22,3.57,0.8c1.64,0.87,2.85,2.33,3.4,4.11
						c0.55,1.78,0.37,3.66-0.5,5.31C614.27,139.77,612.03,141.19,609.57,141.3z M608.98,128.38c-2.1,0.1-4.02,1.31-5,3.17
						c-0.75,1.41-0.9,3.02-0.43,4.55c0.47,1.52,1.5,2.77,2.91,3.52c0.94,0.5,2,0.74,3.06,0.69c2.1-0.1,4.02-1.31,5-3.17
						c0.75-1.41,0.9-3.02,0.43-4.55c-0.47-1.52-1.5-2.77-2.91-3.52C611.1,128.56,610.04,128.33,608.98,128.38z"/>
				</g>
			</g>
			<g class="st3">
				<g>
					
						<rect x="584.56" y="135.66" transform="matrix(0.742 -0.6704 0.6704 0.742 57.6626 448.9817)" class="st4" width="55.15" height="27.83"/>
					<path class="st5" d="M600.97,179.1l-19.33-21.39l41.66-37.64l19.33,21.39L600.97,179.1z M583.05,157.77l17.99,19.91l40.18-36.3
						l-17.99-19.91L583.05,157.77z"/>
				</g>
				<g>
					<path class="st4" d="M586.08,154.36c1.86,2.07,1.7,5.25-0.36,7.12"/>
					<path class="st5" d="M586.05,161.85l-0.67-0.74c1.86-1.68,2-4.55,0.33-6.41l0.74-0.67C588.5,156.29,588.32,159.8,586.05,161.85
						z"/>
				</g>
				<g>
					<path class="st4" d="M626.64,124.51c-2.06,1.87-5.25,1.7-7.12-0.36"/>
					<path class="st5" d="M621.6,126.05c-0.91-0.29-1.76-0.81-2.45-1.57l0.74-0.67c1.68,1.86,4.56,2,6.41,0.33l0.67,0.74
						C625.47,126.24,623.41,126.62,621.6,126.05z"/>
				</g>
				<g>
					<path class="st4" d="M637.97,144.56c-1.87-2.07-1.7-5.25,0.36-7.12"/>
					<path class="st5" d="M637.6,144.9c-0.99-1.1-1.5-2.52-1.42-4c0.08-1.48,0.72-2.84,1.82-3.83l0.67,0.74
						c-0.9,0.81-1.43,1.93-1.49,3.14c-0.06,1.21,0.35,2.37,1.17,3.27L637.6,144.9z"/>
				</g>
				<g>
					<path class="st4" d="M597.41,174.41c2.06-1.87,5.25-1.7,7.12,0.36"/>
					<path class="st5" d="M597.74,174.79l-0.67-0.74c2.27-2.05,5.77-1.87,7.82,0.4l-0.74,0.67
						C602.48,173.25,599.6,173.11,597.74,174.79z"/>
				</g>
				<g>
					<path class="st4" d="M616.93,145.24c2.39,2.65,2.19,6.74-0.46,9.13c-2.65,2.39-6.74,2.19-9.13-0.46
						c-2.39-2.65-2.19-6.74,0.46-9.13C610.44,142.38,614.53,142.59,616.93,145.24z"/>
					<path class="st5" d="M610.04,156.23c-1.18-0.37-2.25-1.05-3.08-1.98c-1.25-1.38-1.88-3.16-1.79-5.02
						c0.09-1.86,0.91-3.57,2.29-4.82c1.82-1.65,4.41-2.21,6.76-1.48c1.18,0.37,2.25,1.05,3.08,1.98c1.25,1.38,1.88,3.16,1.79,5.02
						c-0.1,1.86-0.91,3.57-2.29,4.82C614.98,156.39,612.39,156.96,610.04,156.23z M613.92,143.88c-2.01-0.63-4.23-0.14-5.79,1.27
						c-1.18,1.07-1.88,2.53-1.96,4.13c-0.08,1.59,0.46,3.12,1.53,4.3c0.72,0.79,1.63,1.38,2.64,1.69c2.01,0.63,4.23,0.14,5.79-1.27
						c1.18-1.07,1.88-2.53,1.96-4.13c0.08-1.59-0.46-3.12-1.53-4.3C615.84,144.78,614.93,144.2,613.92,143.88z"/>
				</g>
			</g>
		</g>
		<g>
			<defs>
				<rect id="SVGID_1_" x="50.67" width="610" height="500"/>
			</defs>
			<clipPath id="SVGID_2_">
				<use xlink:href="#SVGID_1_"  style="overflow:visible;"/>
			</clipPath>
		</g>
		<g class="st2">
			<defs>
				<rect id="SVGID_3_" y="40.33" width="660.67" height="459.67"/>
			</defs>
			<clipPath id="SVGID_4_" class="st3">
				<use xlink:href="#SVGID_3_"  style="overflow:visible;"/>
			</clipPath>
			<linearGradient id="SVGID_5_" gradientUnits="userSpaceOnUse" x1="529.0731" y1="107.4046" x2="361.7395" y2="601.4042">
				<stop  offset="0" style="stop-color:#858AE8"/>
				<stop  offset="1" style="stop-color:#2F5EE0"/>
			</linearGradient>
			<path class="st6" d="M208.3,529.21c-31.67-7.89-49.37-32.64-49.37-67.07c0-52.08,48.84-59.52,67.19-92.84
				c9.94-18.04,8.39-41.99,2.67-61.17c-7.85-26.29-19.48-49.93-21.89-77.99c-2.34-27.34,15.75-62.29,40.85-74.28
				c68.66-32.8,97.33,24.83,151.19,11.62c27.25-6.68,38.5-34.86,51.56-57.75c18.8-32.93,50.2-43.08,80.34-39.6
				c36.7,4.24,61.11,42.17,69.25,80c2.57,11.93,8.5,23.9,20.33,28.85c10.1,4.22,21.33,0.39,31.35-2.02
				c8.02-1.92,17.54-2.87,25.17,0.67c11.17,5.18,12.62,14.16,15.33,25.17c0,0-16.67,314.67-16.67,317.34
				c-2.41,14.92-348.05,7.55-379.07,10.2c-29.12,2.49-60.99,5.64-88.19-1.12C208.33,529.22,208.32,529.21,208.3,529.21z"/>
			<path class="st7" d="M697.35,335.57c0.24-1.52,0.36-3.08,0.36-4.67c0-16.65-13.49-30.14-30.14-30.14
				c-15.35,0-28.01,11.48-29.89,26.31c-1.77-1.4-4.01-2.24-6.44-2.24c-2.51,0-4.81,0.89-6.6,2.36
				c-1.77-10.76-11.1-18.96-22.36-18.96c-12.52,0-22.67,10.15-22.67,22.67c0,1.6,0.17,3.16,0.48,4.67H697.35z"/>
			<g class="st8">
				<path class="st9" d="M500,204.33c10.78,18.33,31.06,29.54,52.15,31.5c13.92,1.29,26.72-0.82,39.87-5.35
					c9.3-3.21,18.42-7.87,28.15-9.46c40.75-6.66,46.26,51.13,89.17,28.65"/>
				<path class="st9" d="M632.42,232.2c21.42,7.05,29.42,31.69,49.5,25.99"/>
				<path class="st9" d="M232.67,240.33c28.47-15.35,57.53,31.12,84.67,6"/>
				<path class="st9" d="M266.67,250.63c21.06,9.95,34.69,15.01,50.66,3.04"/>
				<path class="st9" d="M529.92,86.01c-42.75-5.51-69.5,35.21-71.5,44.32"/>
				<path class="st9" d="M507.92,95.94c-9.92,2.55-29,14.48-36,27.42"/>
			</g>
		</g>
		<g>
			<path class="st0" d="M244.2,385.31c-3.63-3.1-8.37-8.48-10.4-12.53c-2.31-4.63-4.47-9.61-5.58-14.68
				c-0.82-3.74-0.93-7.61-0.64-11.41c0.13-1.73,1.09-7.33,1.77-9.63c7.39,11.52,14.56,23.32,13.55,37.6
				c-0.92-4.54,0.74-9.17,0.97-13.25c0.35-6.28,1.08-12.87,3.01-18.86c2.64-8.21,7.56-18.67,15.24-23.44
				c6.82,20.77-1.01,49.21-16.39,64.53L244.2,385.31z"/>
			<g>
				<path class="st1" d="M262.13,319.11c-2.1,13.59-11.42,50.97-17.93,66.2l1.53-1.66C261.12,368.32,268.95,339.87,262.13,319.11z"
					/>
			</g>
			<g>
				<path class="st10" d="M262.13,319.11c-7.69,4.77-12.61,15.23-15.24,23.44c-1.93,6-2.66,12.58-3.01,18.86
					c-0.11,2.03-0.58,4.2-0.91,6.43c0.84,8.48,1.24,17.47,1.24,17.47l1.53-1.66C261.12,368.32,268.95,339.87,262.13,319.11z"/>
				<path class="st10" d="M227.58,346.68c-0.28,3.81-0.18,7.67,0.64,11.41c1.11,5.07,3.26,10.05,5.58,14.68
					c2.02,4.05,6.77,9.43,10.4,12.53c-7.83-14.23-14.85-48.25-14.85-48.25C228.67,339.36,227.71,344.95,227.58,346.68z"/>
				<path class="st1" d="M242.84,368.68c-1-11.67-7.15-21.76-13.49-31.63c0,0,7.02,34.02,14.85,48.25c0,0-0.4-8.99-1.24-17.47
					C242.92,368.12,242.88,368.4,242.84,368.68z"/>
			</g>
		</g>
		<path class="st11" d="M248.35,172.21c-11.86,0-21.76,8.36-24.13,19.51c-1.15-0.86-2.57-1.38-4.11-1.38c-2.28,0-4.3,1.12-5.54,2.84
			c-1.47-3.57-4.98-6.09-9.08-6.09c-3.82,0-7.12,2.19-8.74,5.38c-1.93-6.82-8.19-11.82-15.63-11.82c-8.98,0-16.26,7.28-16.26,16.26
			h108.19C273.03,183.26,261.98,172.21,248.35,172.21z"/>
	</g>
	<g>
		<g>
			<g>
				<path class="st12" d="M435.45,123.27c0.57,1.82-0.45,3.77-2.26,4.34l-81.22,25.54c-1.82,0.57-3.77-0.45-4.34-2.26l-15.17-48.23
					c-0.57-1.81,0.45-3.77,2.26-4.34l81.22-25.54c1.82-0.57,3.77,0.45,4.34,2.26L435.45,123.27z"/>
				
					<rect x="333.37" y="92.82" transform="matrix(0.9539 -0.3 0.3 0.9539 -12.0706 118.3619)" class="st13" width="92.06" height="11.33"/>
				<g>
					<path class="st14" d="M390.95,109.79c0.8,2.54-0.69,5.3-3.32,6.12l-36.33,11.43c-2.62,0.83-5.42-0.58-6.22-3.12
						c-0.8-2.54,0.69-5.29,3.32-6.12l36.33-11.43C387.35,105.85,390.15,107.25,390.95,109.79z"/>
				</g>
				<g>
					<path class="st14" d="M402.51,105.03c0.33,1.05-0.26,2.18-1.31,2.51l-5.59,1.76c-1.05,0.33-2.18-0.26-2.51-1.31l-0.53-1.68
						c-0.33-1.05,0.26-2.18,1.31-2.51l5.59-1.76c1.05-0.33,2.18,0.26,2.51,1.31L402.51,105.03z"/>
				</g>
			</g>
		</g>
		<g class="st2">
			<g class="st3">
				<path class="st5" d="M297.33,105.17c0,9.61-7.79,17.39-17.39,17.39c-9.61,0-17.39-7.79-17.39-17.39
					c0-9.61,7.79-17.39,17.39-17.39C289.54,87.78,297.33,95.57,297.33,105.17z"/>
				<g>
					<path class="st4" d="M269.2,100.86c0-2.55,1.82-4.64,4.66-4.64c2.86,0,4.69,2.08,4.69,4.64c0,2.63-1.9,4.63-4.69,4.63
						C271.08,105.49,269.2,103.49,269.2,100.86z M284.23,96.41h3.44l-12.58,17.89h-3.44L284.23,96.41z M275.38,100.86
						c0-1.15-0.65-1.82-1.51-1.82c-0.86,0-1.48,0.65-1.48,1.82c0,1.17,0.65,1.85,1.48,1.85
						C274.73,102.71,275.38,102.06,275.38,100.86z M280.74,109.95c0-2.63,1.9-4.66,4.69-4.66c2.84,0,4.66,2.08,4.66,4.66
						c0,2.6-1.9,4.64-4.66,4.64C282.59,114.58,280.74,112.5,280.74,109.95z M286.94,109.95c0-1.17-0.68-1.85-1.51-1.85
						c-0.89,0-1.51,0.62-1.51,1.85c0,1.15,0.65,1.82,1.51,1.82S286.94,111.12,286.94,109.95z"/>
				</g>
			</g>
			<g class="st3">
				<path class="st5" d="M333.79,113.96c-4.1,0-7.44-3.34-7.44-7.44s3.34-7.44,7.44-7.44s7.44,3.34,7.44,7.44
					S337.89,113.96,333.79,113.96z"/>
				<path class="st4" d="M333.79,100.07c3.56,0,6.44,2.88,6.44,6.44c0,3.56-2.89,6.44-6.44,6.44s-6.44-2.88-6.44-6.44
					C327.34,102.96,330.23,100.07,333.79,100.07 M333.79,98.07c-4.66,0-8.44,3.79-8.44,8.44c0,4.66,3.79,8.44,8.44,8.44
					c4.66,0,8.44-3.79,8.44-8.44C342.23,101.86,338.44,98.07,333.79,98.07L333.79,98.07z"/>
			</g>
			<path class="st15" d="M322.09,106.52c0,1.81-1.47,3.28-3.28,3.28c-1.81,0-3.28-1.47-3.28-3.28c0-1.81,1.47-3.28,3.28-3.28
				C320.62,103.24,322.09,104.71,322.09,106.52z"/>
			<path class="st15" d="M310.16,106.52c0,1.81-1.47,3.28-3.28,3.28c-1.81,0-3.28-1.47-3.28-3.28c0-1.81,1.47-3.28,3.28-3.28
				C308.7,103.24,310.16,104.71,310.16,106.52z"/>
			<rect x="194.29" y="95.37" class="st16" width="63.5" height="7.6"/>
			<rect x="206.04" y="105.31" class="st16" width="51.75" height="3.8"/>
			<rect x="206.04" y="110.49" class="st16" width="51.75" height="3.8"/>
			<rect x="223.79" y="115.66" class="st16" width="34" height="3.8"/>
		</g>
	</g>
	<g>
		<ellipse class="st17" cx="422.12" cy="410.03" rx="98.16" ry="8.79"/>
		<g>
			<path class="st18" d="M348.98,409.06c-2.36-1.16-4.34-2.8-5.61-5.25C342.09,401.35,348.98,409.06,348.98,409.06z"/>
			<path class="st18" d="M543.74,118.17c-2.74-5.02-6.3-6.21-10.14-6.21c-3.84,0,1.17,6.51,1.17,6.51L543.74,118.17z"/>
			<g>
				<g>
					<path class="st18" d="M345.41,400.15c-0.88,5.43,2.91,9.87,8.41,9.87h134.39c5.5,0,10.72-4.44,11.59-9.87l44.58-275.89
						c0.88-5.43-2.91-9.87-8.41-9.87H401.59c-5.5,0-10.72,4.44-11.59,9.87L345.41,400.15z"/>
				</g>
				<g>
					<path class="st19" d="M342.68,397.72c-0.88,5.43,2.91,9.87,8.41,9.87h134.39c5.5,0,10.72-4.44,11.59-9.87l44.58-275.89
						c0.88-5.43-2.91-9.87-8.41-9.87H398.85c-5.5,0-10.72,4.44-11.59,9.87L342.68,397.72z"/>
				</g>
				<g>
					<path class="st20" d="M392.28,126.04c0.09-0.54,0.61-0.99,1.16-0.99h140.24c0.55,0,0.93,0.44,0.84,0.99l-42.88,265.38
						c-0.09,0.54-0.61,0.99-1.16,0.99H350.24c-0.55,0-0.93-0.44-0.84-0.99L392.28,126.04z"/>
				</g>
				<g>
					<path class="st19" d="M486.88,123.69c1.1,0,1.39,0.66,0.65,1.47l-5.56,6.06c-0.74,0.81-2.25,1.47-3.35,1.47h-36.4
						c-1.1,0-2.46-0.77-3.02-1.72l-3.31-5.56c-0.56-0.95-0.12-1.72,0.98-1.72H486.88z"/>
				</g>
			</g>
			<g>
				<path class="st19" d="M525.91,129.2h-9.84c-0.08,0-0.15,0.06-0.16,0.14l-0.16,1.45h-0.78c-0.08,0-0.14,0.06-0.15,0.14
					l-0.28,2.48c-0.01,0.08,0.04,0.14,0.12,0.14h0.78l-0.16,1.45c-0.01,0.08,0.05,0.14,0.12,0.14h9.84c0.07,0,0.15-0.06,0.16-0.14
					l0.64-5.66C526.04,129.27,525.98,129.2,525.91,129.2L525.91,129.2z M524.05,133.61h-3.09l0.33-2.88h3.09L524.05,133.61z"/>
				<g>
					<path class="st10" d="M509.93,132.36c0.59,0,1.12-0.47,1.18-1.06c0.07-0.59-0.36-1.06-0.94-1.06c-0.59,0-1.11,0.48-1.18,1.06
						C508.93,131.88,509.35,132.36,509.93,132.36z"/>
					<path class="st19" d="M511.84,132.24L511.84,132.24c0.16-0.28,0.29-0.6,0.33-0.94c0.13-1.17-0.71-2.12-1.88-2.12
						c-1.17,0-2.23,0.95-2.36,2.12c-0.04,0.34,0.01,0.66,0.12,0.95l-0.01,0c0,0,0.02,0.05,0.07,0.13c0.02,0.05,0.05,0.1,0.07,0.15
						c0.32,0.64,1.1,2.19,1.22,2.44c0.16,0.31,0.3,0.23,0.45,0.02c0.13-0.17,1.31-1.8,1.79-2.46c0.04-0.05,0.07-0.09,0.1-0.14
						C511.81,132.29,511.84,132.24,511.84,132.24z M510.17,130.24c0.58,0,1.01,0.48,0.94,1.06c-0.07,0.59-0.59,1.06-1.18,1.06
						c-0.58,0-1-0.47-0.94-1.06C509.06,130.71,509.59,130.24,510.17,130.24z"/>
				</g>
				<g>
					<path class="st19" d="M500.5,131.9h-0.63c-0.25,0-0.48,0.2-0.51,0.46l-0.26,2.33c-0.03,0.25,0.15,0.46,0.4,0.46h0.63
						c0.25,0,0.48-0.2,0.51-0.46l0.26-2.33C500.93,132.1,500.75,131.9,500.5,131.9z"/>
					<path class="st19" d="M502.76,130.33h-0.63c-0.25,0-0.48,0.2-0.51,0.46l-0.44,3.9c-0.03,0.25,0.15,0.46,0.4,0.46h0.63
						c0.25,0,0.48-0.2,0.51-0.46l0.44-3.9C503.19,130.54,503.01,130.33,502.76,130.33z"/>
					<path class="st19" d="M505.04,128.82h-0.63c-0.25,0-0.48,0.2-0.51,0.46l-0.61,5.4c-0.03,0.25,0.15,0.46,0.4,0.46h0.63
						c0.25,0,0.48-0.2,0.51-0.46l0.61-5.4C505.47,129.03,505.29,128.82,505.04,128.82z"/>
				</g>
			</g>
		</g>
		<g>
			<g>
				<g>
					<path class="st4" d="M357.3,162.03c-0.17,1.09,0.59,1.98,1.69,1.98h203.96c1.1,0,2.14-0.89,2.31-1.98l3.1-19.76
						c0.17-1.09-0.59-1.98-1.69-1.98H362.71c-1.1,0-2.14,0.89-2.31,1.98L357.3,162.03z"/>
				</g>
				<path class="st5" d="M376.26,146.85c-1.81-2.37-5.67-2.37-8.6,0c-2.93,2.37-3.85,6.23-2.04,8.6c1.64,2.15,4.97,2.34,7.76,0.59
					l3.08,4.03l1.6-1.29l-3.08-4.03C377.3,152.37,377.9,149,376.26,146.85z M373.24,154.16c-2.05,1.66-4.75,1.66-6.02,0
					c-1.27-1.66-0.63-4.36,1.43-6.02c2.05-1.66,4.75-1.66,6.02,0C375.93,149.8,375.29,152.5,373.24,154.16z"/>
				<g>
					<polygon class="st5" points="385.59,160.51 384.67,160.51 388.49,144.39 389.4,144.39 					"/>
				</g>
				<g>
					<g>
						<polygon class="st5" points="555.55,156.9 549.63,149.14 551.23,147.85 557.15,155.61 						"/>
					</g>
					<g>
						<polygon class="st5" points="549.09,156.9 548.1,155.61 557.69,147.85 558.68,149.14 						"/>
					</g>
				</g>
				<polygon class="st21" points="463.7,148.8 393.52,148.8 391.51,157.31 461.68,157.31 				"/>
			</g>
			<g>
				<g>
					<path class="st4" d="M448.84,273.39c-0.17,1.09,0.59,1.98,1.69,1.98h94.96c1.1,0,2.14-0.89,2.31-1.98l15.55-99.2
						c0.17-1.09-0.59-1.98-1.69-1.98H466.7c-1.1,0-2.14,0.89-2.31,1.98L448.84,273.39z"/>
				</g>
				<g>
					<defs>
						<polygon id="SVGID_6_" points="448.53,275.37 547.49,275.37 563.66,172.21 464.7,172.21 						"/>
					</defs>
					<clipPath id="SVGID_7_">
						<use xlink:href="#SVGID_6_"  style="overflow:visible;"/>
					</clipPath>
					<g class="st22">
						<path class="st18" d="M536.61,216.41c-2.32,3.74-5.83,19.31-5.83,19.31l-2.58-0.01c0,0,3.8-16.15,2.65-14.85
							c-0.95,1.07-2.75,2.75-6.17,5.3c-6,4.49-7.08,15.1-17.18,21.42c-10.09,6.32-28.11,7.03-29.54,2.65
							c-1.31-4,5.48-11.69,12.57-14.17c4.22-5.42,4.46-12.52,14.42-24.96c1.96-2.44,3.26-8.3,3.26-8.3
							c0.55,0.05,7.38,0.77,15.24-0.04c5.65-0.58,10.87-1.64,12.11-3.61c-0.05,1.47-0.17-1.11,0,0
							C538.06,204.38,538.54,209.95,536.61,216.41z"/>
						<path class="st23" d="M514.52,158.07c-1.59,15.41-3.52,29.61-6.09,41.64c-0.15,0.69-0.58,2.71-1.13,5.67
							c-0.2,0.77-5.41,9.17-9.04,15.51c-3,5.26-5.65,12.23-7.74,15.16c-1.68,2.36,5.68,3.25,7.36,2.61
							c8.13-2.17,22.34-22.03,23.86-23.77c7.83-8.97,13.32-8.51,13.8-15.74c0.42-12.75,2.93-26.64,6.18-41.04"/>
						<polygon class="st10" points="495.27,214.75 495.27,214.75 495.27,214.75 						"/>
						<g>
							<path class="st10" d="M536.11,200.57c-0.06,0.26-0.07,0.47-0.11,0.73l0.09-1.02C536.12,200.37,536.13,200.47,536.11,200.57z"
								/>
						</g>
						<path class="st24" d="M535.68,196.25c-23.05-1.97-24.54-11.42-24.54-11.42c18.31,3.2,26-2.72,26-2.72s-5.53,21.18-30.91,25.25
							c0,0,12.15,5.34,28.09-2.51"/>
					</g>
				</g>
				<polygon class="st25" points="538.96,268.75 467.66,268.75 468.4,264.06 539.7,264.06 				"/>
				<polygon class="st5" points="540.06,261.74 507.9,261.74 509.01,254.64 541.17,254.64 				"/>
				<g>
					<path class="st26" d="M469.46,193.32c-0.76-0.13-1.25-0.8-1.12-1.62c0.13-0.82,0.83-1.49,1.63-1.62
						c-0.67-0.33-0.95-1.13-0.61-1.92c0.34-0.79,1.17-1.29,1.94-1.21c-0.53-0.5-0.58-1.38-0.06-2.09c0.52-0.71,1.42-0.99,2.12-0.71
						c-0.36-0.64-0.16-1.54,0.5-2.12c0.67-0.58,1.58-0.63,2.15-0.17c-0.16-0.74,0.26-1.59,1.03-2c0.77-0.41,1.63-0.23,2.03,0.38
						c0.05-0.79,0.66-1.54,1.48-1.75c0.82-0.21,1.56,0.19,1.78,0.91c0.25-0.78,1.02-1.38,1.84-1.38c0.82,0,1.4,0.6,1.4,1.38
						c0.44-0.72,1.31-1.12,2.06-0.91c0.76,0.21,1.14,0.96,0.93,1.75c0.6-0.61,1.51-0.79,2.15-0.39c0.64,0.41,0.79,1.26,0.4,2.01
						c0.72-0.46,1.61-0.41,2.09,0.17c0.49,0.58,0.4,1.48-0.16,2.12c0.79-0.28,1.59,0,1.89,0.71c0.3,0.71-0.02,1.59-0.71,2.09
						c0.8-0.08,1.47,0.42,1.56,1.21c0.09,0.79-0.44,1.6-1.21,1.92c0.76,0.13,1.25,0.8,1.13,1.62c-0.13,0.82-0.83,1.49-1.63,1.62
						c0.67,0.33,0.95,1.13,0.61,1.92c-0.33,0.79-1.17,1.29-1.94,1.21c0.54,0.5,0.58,1.38,0.06,2.09c-0.52,0.71-1.42,0.99-2.12,0.71
						c0.36,0.64,0.17,1.54-0.5,2.12c-0.67,0.58-1.58,0.63-2.15,0.17c0.16,0.74-0.25,1.6-1.03,2c-0.77,0.41-1.62,0.23-2.03-0.38
						c-0.04,0.79-0.66,1.54-1.48,1.75c-0.82,0.21-1.57-0.19-1.78-0.92c-0.25,0.78-1.02,1.38-1.84,1.38c-0.82,0-1.4-0.6-1.41-1.38
						c-0.44,0.72-1.31,1.12-2.06,0.91c-0.76-0.21-1.13-0.96-0.93-1.75c-0.6,0.61-1.51,0.79-2.15,0.38c-0.64-0.41-0.79-1.26-0.4-2
						c-0.72,0.46-1.61,0.41-2.09-0.17c-0.49-0.58-0.4-1.48,0.16-2.12c-0.78,0.28-1.59,0-1.89-0.71c-0.3-0.71,0.02-1.59,0.71-2.09
						c-0.8,0.08-1.47-0.42-1.56-1.21C468.16,194.45,468.69,193.64,469.46,193.32z"/>
					<g>
						<path class="st4" d="M485.79,192.45c-1.67,0-2.63-1.21-2.38-2.79c0.24-1.53,1.53-2.78,3.25-2.78c1.71,0,2.6,1.25,2.36,2.78
							C488.78,191.24,487.47,192.45,485.79,192.45z M486.3,197.73h-2.06l-5.87-10.75h2.06L486.3,197.73z M486.06,190.77
							c0.5,0,0.96-0.41,1.07-1.11c0.11-0.7-0.2-1.1-0.72-1.1s-0.97,0.41-1.08,1.1C485.21,190.38,485.54,190.77,486.06,190.77z
							 M477.99,197.91c-1.66,0-2.61-1.22-2.36-2.78c0.24-1.55,1.54-2.8,3.24-2.8c1.67,0,2.63,1.22,2.38,2.8
							C481,196.65,479.7,197.91,477.99,197.91z M478.26,196.22c0.52,0,0.97-0.41,1.08-1.1c0.11-0.74-0.2-1.11-0.73-1.11
							c-0.5,0-0.97,0.41-1.08,1.11C477.41,195.83,477.74,196.22,478.26,196.22z"/>
					</g>
				</g>
			</g>
			<g>
				<g>
					<path class="st4" d="M431.15,384.05c-0.17,1.09,0.59,1.98,1.69,1.98h94.96c1.1,0,2.14-0.89,2.31-1.98l15.55-99.2
						c0.17-1.09-0.59-1.98-1.69-1.98h-94.96c-1.1,0-2.14,0.89-2.31,1.98L431.15,384.05z"/>
				</g>
				<g>
					<defs>
						<polygon id="SVGID_8_" points="430.84,386.02 529.81,386.02 545.98,282.87 447.02,282.87 						"/>
					</defs>
					<clipPath id="SVGID_9_">
						<use xlink:href="#SVGID_8_"  style="overflow:visible;"/>
					</clipPath>
					<g class="st27">
						<path class="st28" d="M505.91,300.32c1.06-1.29-1.25-7.63-1.88-8.57c-1.35-2.02-16.56-2.07-19.16,0.5
							c-1.47,1.46-4.87,6.64-4.3,8.53c0,0,6.81,4.1,11.31,4.19C496.39,305.07,505.91,300.32,505.91,300.32z"/>
						<path class="st28" d="M507.18,323.6c0,0,11.45,23.76,10.72,25.35c-1.77,3.84-8.57,30.42-12.53,39.58
							c-2.31,5.33,6.46,6.81,8.39,3.77c1.99-3.13,14.93-37.26,15.16-45.96c0.28-10.44-6.46-35.65-16.94-41.98l-5.49-0.86
							l-12.32,8.66L507.18,323.6z"/>
						<path class="st28" d="M494.16,312.15c-8.78,4.45-27.92,32.8-31.6,36.39c-3.69,3.58-31.52,19.18-36.5,22.07
							c-4.22,2.45-9.04-6.46-3.38-9.55c8.36-4.57,31.5-19.62,31.7-21.6c7.48-20.12,9.1-26.51,13.58-31.8
							c3.64-4.3,15.85-8.38,15.85-8.38"/>
						<path class="st28" d="M511.43,318.48c0.35,7.02-6.67,26.61-7.45,36.89c-0.79,10.28,0.12,18.51-6.28,21.06
							c-6.4,2.55-34.36,2.57-37.15-0.18c-2.78-2.75,4.69-23.88,5.46-30.73c0.77-6.85,2.05-31.64,8.93-35.23
							c6.88-3.59,8.8-5.94,14.33-6.12c5.53-0.18,10.85-0.76,14.68,2.35c3.83,3.11,6.38,5.25,7.01,7.66
							C511.61,316.58,511.43,318.48,511.43,318.48z"/>
						<path class="st28" d="M513.94,305.79c-1.96-1.43-11.56-8.08-11.56-8.08l-18.56,1.56l-11.89,5.29c0,0-0.97,3.71-0.74,4.16
							c0.23,0.45,12.42,5.93,13.78,6.41c1.37,0.48,11.27,0.81,13.34,0.04c2.07-0.77,9.04-3.75,9.04-3.75L513.94,305.79z"/>
						<path class="st28" d="M502.38,291.96c-0.05,1.46-3.65,4.39-9.09,4.54c-5.44,0.15-7.21-2.79-7.07-3.92l-0.57,0.1l-3.19,6.84
							l6.7,1.22l10.27-0.64l3.28-1.72c0,0,0.48-3.76,0.43-3.91C503.1,294.32,502.38,291.96,502.38,291.96z"/>
						<g>
							<path class="st29" d="M482.43,301.78c2.12-3.87,1.97-3.21,3.27-5.28c-1.35,3.74-2.04,5.31-2.3,5.86
								c0.63,0.34,1.27,0.64,1.93,0.9l2.92-5.49l-1.33,6.02c0.77,0.22,1.55,0.39,2.34,0.51l2.39-5.79l-0.35,6
								c0.92,0.06,1.84,0.05,2.74-0.01l1.36-6.16l0.81,5.92c0.85-0.13,1.67-0.3,2.45-0.52l0.36-6.27l1.47,5.68
								c0.79-0.29,1.52-0.62,2.18-0.99c0-0.02-0.32-1.18-0.73-6.06c0.73,2.08,0.75,1.35,1.86,5.37c0.19-0.14,0.38-0.27,0.55-0.41
								c0,0-0.18,0.2-0.52,0.52l0,0l0,0c-1.37,1.27-5.36,4.43-11.23,4.31c-5.19-0.11-8.29-2.22-9.66-3.45l-0.58-0.56
								c0.04-0.07-0.04,0.07,0,0c-0.18-0.19-0.27-0.31-0.27-0.31C482.21,301.64,482.32,301.71,482.43,301.78z"/>
							<polygon class="st29" points="505.56,300.25 505.03,300.75 504.09,294.64 							"/>
							<polygon class="st29" points="483.95,295.1 481.31,301.27 480.91,300.79 							"/>
						</g>
						<g>
							<path class="st29" d="M503.33,353.07c0.66-6.55,4.22-28.76,4.22-28.76l2.22,4.78c-2.04,8.62-5.28,19.49-5.8,26.29
								c-0.39,5.06-0.37,9.62-1.01,13.26l-0.23,1.14C503.42,366.4,502.66,359.62,503.33,353.07z"/>
						</g>
						<g>
							<path class="st29" d="M462.84,339.89c1.69-9.51,9.02-19.51,9.02-19.51c-8.34,14.55-7.15,24.02-5.71,23.78
								c-1.63,2.13-2.89,3.7-3.59,4.38c-0.87,0.84-3.08,2.35-6,4.2C459.14,351.12,461.53,347.27,462.84,339.89z"/>
						</g>
						<g>
							<defs>
								<path id="SVGID_10_" d="M422.68,361.06c8.36-4.57,31.5-19.62,31.7-21.6c7.48-20.12,9.1-26.51,13.58-31.8
									c3.64-4.3,15.85-8.38,15.85-8.38l4.03,5.02c0.45-0.05,0.92-0.09,1.42-0.11c5.12-0.17,10.05-0.67,13.79,1.72l3.42-2.4
									l5.49,0.86c10.48,6.33,17.22,31.54,16.94,41.98c-0.23,8.7-13.18,42.83-15.16,45.96c-1.93,3.04-10.7,1.56-8.39-3.77
									c3.97-9.16,10.77-35.74,12.53-39.58c0.5-1.09-4.79-12.75-8.13-19.86c-2.04,8.62-5.28,19.49-5.8,26.29
									c-0.79,10.28,0.12,18.51-6.28,21.06c-6.4,2.55-34.36,2.57-37.15-0.18c-2.78-2.75,4.69-23.88,5.46-30.73
									c0.04-0.4,0.09-0.86,0.14-1.37c-1.63,2.13-2.89,3.7-3.59,4.38c-3.69,3.58-31.52,19.18-36.5,22.07
									C421.84,373.06,417.03,364.15,422.68,361.06z"/>
							</defs>
							<clipPath id="SVGID_11_">
								<use xlink:href="#SVGID_10_"  style="overflow:visible;"/>
							</clipPath>
							<path class="st30" d="M465.1,298.69c2.89,0.22,4.44,1.14,6.45,2.95c2.25,2.02,4.63,3.88,7.24,5.45
								c4.72,2.84,10.76,3.77,16.56,3.87c5.72,0.1,11.55-1.08,17.23-2.99c5.66-1.91,10.81-5.52,16.47-7.29
								c0.68-0.21,1.29,0.52,0.94,1.17c-3.08,5.67-9.52,9.01-15.18,11.37c-6.39,2.66-13.12,3.85-19.66,4
								c-6.57,0.15-13.39-1.04-18.88-3.86c-3.02-1.55-5.66-3.54-8.14-5.77c-2.42-2.17-4.11-3.89-4.5-7.34
								C463.53,299.49,464.3,298.63,465.1,298.69z M455.18,311.25c0.48,1.72,0.47,3.01,1.55,4.48c1.03,1.39,2.34,2.34,3.84,3.23
								c2.77,1.63,5.71,3.07,8.81,4.15c6.65,2.32,13.94,3.93,21.38,3.81c7.9-0.13,16.25-1.38,24.12-4.02
								c2.88-0.97,5.87-1.98,8.45-3.79c1.55-1.08,4.24-3.08,3.96-5.1c-0.02-0.1-0.09-0.16-0.19-0.17c-1.92-0.22-4.88,1.73-6.78,2.44
								c-2.75,1.03-5.5,1.76-8.31,2.44c-7.48,1.81-15.13,3.26-22.48,2.61c-6.35-0.56-12.7-2.01-18.4-4.28
								c-2.85-1.14-5.61-2.47-8.08-4.2c-1.1-0.78-2.39-1.44-3.7-1.87c-1.06-0.35-2.25-0.3-3.3-0.63
								C455.51,310.16,455.04,310.76,455.18,311.25z M448.12,320.03c-0.74,7.48,7.75,11.38,13.34,13.95
								c6.62,3.04,13.83,4.9,21.35,5.79c9.53,1.13,19.18-0.07,28.94-3.07c4.72-1.45,9.39-3.05,13.73-5.74
								c1.64-1.02,3.75-2.1,4.95-3.67c0.3-0.38,1.76-2.88,2.12-2.96c0.6-0.13,0.79-1.04,0.21-1.19c-2.11-0.51-4.25,0.75-6.22,1.87
								c-4.19,2.37-8.63,4.14-13.12,5.5c-9.22,2.8-18.18,4.66-27.25,3.49c-7.08-0.92-14.11-2.73-20.4-5.52
								c-3.19-1.41-6.26-3.12-8.93-5.28c-2.3-1.86-4.24-3.42-7.31-4.09C448.97,318.99,448.19,319.35,448.12,320.03z M443.76,332.33
								c-0.55,4.34,2.28,6.5,5.43,8.62c3.52,2.35,7.36,4.31,11.39,5.86c7.64,2.93,15.96,4.8,24.55,5.07
								c8.95,0.27,18.29-0.74,27.28-3.78c4.54-1.53,9.03-3.35,13.3-5.77c3-1.7,7.35-4.39,8.78-7.66c0.13-0.31-0.03-0.72-0.4-0.69
								c-3.52,0.27-7.66,2.96-10.99,4.45c-3.97,1.78-8.04,3.25-12.17,4.29c-8.22,2.09-16.56,3.19-24.66,2.78
								c-7.99-0.41-15.73-2.09-22.83-4.95c-3.5-1.41-6.89-3.07-9.93-5.2c-2.79-1.96-4.71-4.03-8.48-4.07
								C444.47,331.26,443.84,331.74,443.76,332.33z M431.97,343.92c2.18,4.38,5.68,6.4,9.96,8.65c3.94,2.07,7.95,4.06,12.11,5.78
								c8.47,3.5,17.54,6.1,27.09,6.89c9.68,0.81,19.96,0.16,29.86-2.78c8.16-2.42,18.46-6.82,23.54-14.42
								c0.25-0.37,0.02-0.77-0.4-0.69c-4.19,0.75-7.74,2.89-11.63,4.79c-4.27,2.08-8.62,3.83-13.13,4.9
								c-9.45,2.25-19,2.77-28.14,1.72c-8.88-1.01-17.36-3.59-25.23-7.04c-3.93-1.72-7.74-3.63-11.47-5.68
								c-3.72-2.05-6.84-3.6-11.44-3.58C432.38,342.46,431.64,343.27,431.97,343.92z M416.05,349.48c0.6,2.81,1.36,5.25,3.28,7.35
								c1.79,1.95,3.72,3.78,5.73,5.5c4.13,3.52,8.63,6.65,13.51,9.21c9.53,4.99,19.86,8.03,31.08,9.18
								c11.1,1.14,22.84,0.86,34.32-2.07c5.45-1.39,10.9-3.22,16.07-5.82c5.29-2.67,9.45-5.93,13.77-10.04
								c0.45-0.43,0.1-1.14-0.48-0.83c-19.54,10.35-41.44,14-61.56,11.97c-10.57-1.07-20.64-3.74-29.53-8.64
								c-4.54-2.51-8.85-5.38-12.73-8.74c-1.8-1.57-3.39-3.34-5.17-4.92c-1.81-1.61-3.53-2.72-5.69-3.86
								C417.65,347.24,415.74,348.04,416.05,349.48z M490.76,391.88c5.39,3.33,13.03,0.86,19.32-1.41c6-2.16,13.4-5.83,15.66-12.34
								c0.06-0.18-0.09-0.42-0.31-0.28c-5.43,3.48-11.43,6.1-17.47,7.64c-5.74,1.47-11.56,1.59-16.92,4.75
								C490.42,390.62,490.15,391.51,490.76,391.88z"/>
						</g>
						<path class="st29" d="M485.3,293.33c-0.23,1.59,3.65,2.83,8.66,2.77c5.01-0.07,9.26-1.42,9.49-3.01
							c0.23-1.6-3.72-2.13-8.73-2.06C489.7,291.1,485.53,291.74,485.3,293.33z"/>
					</g>
				</g>
				<polygon class="st31" points="522.37,379.41 451.07,379.41 451.81,374.72 523.11,374.72 				"/>
				<polygon class="st5" points="523.47,372.4 491.31,372.4 492.42,365.29 524.58,365.29 				"/>
			</g>
			<g>
				<g>
					<path class="st4" d="M322.49,384.05c-0.17,1.09,0.59,1.98,1.69,1.98h94.96c1.1,0,2.14-0.89,2.31-1.98l15.55-99.2
						c0.17-1.09-0.59-1.98-1.69-1.98h-94.96c-1.1,0-2.14,0.89-2.31,1.98L322.49,384.05z"/>
				</g>
				<polygon class="st25" points="413.81,378.77 342.51,378.77 343.25,374.08 414.54,374.08 				"/>
				<polygon class="st5" points="414.91,371.76 382.75,371.76 383.86,364.65 416.02,364.65 				"/>
				<g>
					<path class="st26" d="M342.22,304.87c-0.76-0.13-1.25-0.8-1.12-1.62c0.13-0.82,0.83-1.49,1.63-1.62
						c-0.67-0.33-0.94-1.13-0.61-1.92c0.34-0.79,1.17-1.29,1.94-1.21c-0.53-0.5-0.58-1.38-0.06-2.09c0.52-0.71,1.42-0.99,2.12-0.71
						c-0.36-0.64-0.17-1.54,0.5-2.12c0.67-0.58,1.58-0.63,2.15-0.17c-0.16-0.74,0.25-1.59,1.03-2c0.77-0.41,1.63-0.23,2.03,0.38
						c0.05-0.79,0.66-1.54,1.48-1.75c0.82-0.21,1.56,0.19,1.78,0.91c0.25-0.78,1.02-1.38,1.84-1.38c0.82,0,1.4,0.6,1.4,1.38
						c0.44-0.72,1.31-1.12,2.06-0.91c0.76,0.21,1.14,0.96,0.93,1.75c0.6-0.61,1.51-0.79,2.15-0.38c0.64,0.41,0.79,1.26,0.4,2.01
						c0.71-0.46,1.61-0.41,2.09,0.17c0.49,0.58,0.4,1.48-0.16,2.12c0.78-0.28,1.59,0,1.89,0.71c0.3,0.71-0.02,1.59-0.71,2.09
						c0.8-0.08,1.47,0.42,1.56,1.21c0.09,0.79-0.44,1.59-1.21,1.92c0.76,0.13,1.25,0.8,1.13,1.62c-0.13,0.82-0.83,1.49-1.63,1.62
						c0.67,0.33,0.95,1.13,0.61,1.92c-0.33,0.79-1.17,1.29-1.94,1.21c0.54,0.5,0.58,1.38,0.06,2.09c-0.52,0.71-1.42,0.99-2.12,0.71
						c0.36,0.64,0.17,1.54-0.5,2.12c-0.67,0.58-1.58,0.63-2.15,0.17c0.16,0.74-0.25,1.59-1.03,2c-0.77,0.41-1.63,0.23-2.03-0.38
						c-0.04,0.79-0.66,1.54-1.48,1.75c-0.83,0.21-1.57-0.19-1.78-0.92c-0.25,0.78-1.02,1.38-1.84,1.38c-0.82,0-1.4-0.6-1.4-1.38
						c-0.44,0.72-1.31,1.12-2.06,0.91c-0.76-0.21-1.13-0.96-0.93-1.75c-0.6,0.61-1.51,0.79-2.15,0.38c-0.64-0.41-0.79-1.26-0.4-2
						c-0.71,0.46-1.6,0.41-2.09-0.17c-0.49-0.58-0.4-1.48,0.16-2.12c-0.79,0.28-1.6,0-1.89-0.71c-0.3-0.71,0.02-1.59,0.71-2.09
						c-0.8,0.08-1.47-0.42-1.56-1.21C340.92,306.01,341.44,305.2,342.22,304.87z"/>
					<g>
						<path class="st4" d="M358.55,304c-1.67,0-2.63-1.21-2.38-2.79c0.24-1.53,1.53-2.79,3.25-2.79c1.71,0,2.61,1.25,2.36,2.79
							C361.54,302.8,360.23,304,358.55,304z M359.05,309.29h-2.06l-5.87-10.75h2.07L359.05,309.29z M358.82,302.33
							c0.5,0,0.96-0.41,1.07-1.11c0.11-0.71-0.2-1.09-0.72-1.09s-0.97,0.41-1.08,1.09C357.97,301.94,358.3,302.33,358.82,302.33z
							 M350.75,309.46c-1.66,0-2.61-1.22-2.36-2.79c0.24-1.55,1.53-2.8,3.24-2.8c1.67,0,2.63,1.22,2.38,2.8
							C353.76,308.21,352.45,309.46,350.75,309.46z M351.01,307.77c0.52,0,0.97-0.41,1.08-1.1c0.11-0.73-0.2-1.11-0.73-1.11
							c-0.5,0-0.97,0.41-1.08,1.11C350.17,307.38,350.5,307.77,351.01,307.77z"/>
					</g>
				</g>
				<g>
					<defs>
						<polygon id="SVGID_12_" points="322.18,386.03 421.14,386.03 437.32,282.87 338.35,282.87 						"/>
					</defs>
					<clipPath id="SVGID_13_">
						<use xlink:href="#SVGID_12_"  style="overflow:visible;"/>
					</clipPath>
					<g class="st32">
						<path class="st33" d="M405.8,336.31c0,0,3.31-5.54,4.64-4.9C411.77,332.04,405.8,336.31,405.8,336.31z"/>
						<path class="st34" d="M385.3,312.32c0,0,1.29,3.47-3.02,13.41c-4.31,9.94,23.08,12.44,23.79,5.68
							c0.83-7.89,3.6-19.06,4.31-21.63C411.06,307.33,385.3,312.32,385.3,312.32z"/>
						<path class="st35" d="M398.39,199.83c-1.82,10.38-8.1,68.4-10.62,98.85c-0.09,1.12-1.83,1.95-1.93,3.01
							c-0.38,4.38-1.39,10.18-1.71,13.15c-0.92,5.14,26.03,5.87,26.34,1.36c0.25-3.69,2.5-7.68,2.94-11.42
							c0.1-0.83-1.53-3.54-1.42-4.37c3.96-31.13,17.61-66.72,19.69-91.74L398.39,199.83z"/>
						<path class="st0" d="M406.42,335.39c-0.49,2.71,0,0-0.5,1.88c-0.34,1.3-0.41,9.75-0.43,14.9c0,2.33-1.09,4.02-2.95,4.09
							c-8.57,0.34-31.48,1.32-36.79,1.25c-6.44-0.08-18.49-0.67-19.2-3.21c-1.06-3.79,1.18-10.79,14.71-14.56
							c6.77-1.89,15.31-7.48,15.31-7.48s3.75-12.06,8.51-11c5.34,1.19,5.17,9.59,12.38,9.05
							C405.52,329.72,407.27,330.65,406.42,335.39z"/>
						<path class="st36" d="M372.73,352.34c2.94,2.1,7.12,2.98,13.29-1.89c6.19-4.87,19.49-1.48,19.5-3.12l0,0
							c-0.02,1.72-0.03,3.41-0.03,4.84c0,2.33-1.09,4.02-2.95,4.09c-8.57,0.34-31.48,1.32-36.79,1.25
							c-6.44-0.08-18.49-0.67-19.2-3.21c-0.44-1.59-0.29-3.73,1-5.96C346.81,351.08,369.9,350.32,372.73,352.34z"/>
						<g>
							<path class="st10" d="M361.26,339.75c6.77-1.89,15.31-7.48,15.31-7.48c4.24-2.54,6.45-3.26,8-1.03
								c1.56,2.22,5.87,6.11,11.16,4.75c5.21-1.34,10.51-0.62,10.43,0.58c-0.01-0.06-0.06-0.01-0.25,0.7
								c-0.34,1.3-0.41,9.75-0.43,14.9c0,2.33-1.09,4.02-2.95,4.09c-8.57,0.34-31.48,1.32-36.79,1.25
								c-6.44-0.08-18.49-0.67-19.2-3.21C345.49,350.51,347.73,343.52,361.26,339.75z"/>
							<path class="st10" d="M406.21,336.52c-0.04,0.22-0.04,0.16-0.04,0.09c0,0,0,0,0,0L406.21,336.52z"/>
							<path class="st37" d="M395.74,335.98c-5.29,1.36-9.6-2.53-11.16-4.75c-1.56-2.22-3.76-1.51-8,1.03c0,0,3.75-12.06,8.51-11
								c5.34,1.19,5.17,9.59,12.38,9.05c8.05-0.6,9.8,0.34,8.95,5.07c-0.12,0.63-0.17,0.96-0.21,1.13l-0.04,0.1c0,0,0,0,0,0
								c0-0.02,0-0.04,0-0.05C406.25,335.36,400.95,334.64,395.74,335.98z"/>
						</g>
						<path class="st38" d="M378.7,339.36c0,0-5.38-1.62-6.04-4.73"/>
						<path class="st19" d="M377.78,339.36c-0.08,0.51,0.27,0.92,0.78,0.92c0.51,0,0.99-0.41,1.07-0.92
							c0.08-0.51-0.27-0.92-0.78-0.92C378.34,338.44,377.86,338.85,377.78,339.36z"/>
						<path class="st38" d="M372.48,340.89c-1.51-0.91-3.39-2.4-3.62-4.27"/>
						<path class="st19" d="M371.57,340.81c-0.12,0.51,0.19,0.95,0.69,0.99c0.5,0.04,1.01-0.34,1.13-0.85
							c0.12-0.51-0.19-0.95-0.69-0.99C372.2,339.93,371.69,340.31,371.57,340.81z"/>
						<path class="st38" d="M367.06,342.29c-1.1-1-2.11-2.3-2.17-3.75"/>
						<path class="st19" d="M366.17,342.14c-0.16,0.5,0.11,0.98,0.6,1.06c0.49,0.08,1.02-0.26,1.18-0.76
							c0.16-0.5-0.11-0.98-0.6-1.06C366.86,341.3,366.33,341.64,366.17,342.14z"/>
						<g>
							<g>
								<path class="st39" d="M405.69,339.83c0,0-0.58-0.02-1.5,0.07"/>
								<path class="st40" d="M401.43,340.41c-2.62,0.72-5.8,2.33-7.51,5.92"/>
								<path class="st39" d="M393.4,347.64c-0.15,0.46-0.28,0.94-0.39,1.45"/>
							</g>
						</g>
					</g>
				</g>
			</g>
			<g>
				<g>
					<path class="st4" d="M340.28,273.39c-0.17,1.09,0.59,1.98,1.69,1.98h94.96c1.1,0,2.14-0.89,2.31-1.98l15.55-99.2
						c0.17-1.09-0.59-1.98-1.69-1.98h-94.96c-1.1,0-2.14,0.89-2.31,1.98L340.28,273.39z"/>
				</g>
				<g>
					<defs>
						<polygon id="SVGID_14_" points="339.97,275.37 438.93,275.37 455.11,172.21 356.14,172.21 						"/>
					</defs>
					<clipPath id="SVGID_15_">
						<use xlink:href="#SVGID_14_"  style="overflow:visible;"/>
					</clipPath>
					<g class="st41">
						<path class="st42" d="M410.6,179.13l2.46,0.53l9.65,3.45l-2.65,26.39c-1.29,13.36,0.92,15.8,0.94,29.15
							c0,0.55-3.45,3.33-3.44,3.87c0.04,1.97,0.17,3.92,0.39,5.84c0.3,2.58-46.04,2.78-45.12-0.12c0.59-1.87,1.16-3.92,1.7-6.06
							c0.19-0.78-1.38-3.01-1.19-3.81c1.89-8.12,3.04-6.26,3.87-13.18c1.34-11.18,2.88-22.37,4.27-33.55
							c0.06-0.5,1.63-7.62,1.75-7.3l10.39-4.01l2.17-0.64L410.6,179.13z"/>
						<path class="st20" d="M411.35,179.3c0,0-1.13,8.27-7.73,10.06c-6.6,1.79-9.69-1.96-9.7-3.69c-0.02-1.74,1.87-5.97,1.87-5.97
							l14.82-0.57L411.35,179.3z"/>
						<path class="st42" d="M383.4,200.93l0.39-16.85c-3.57,1.53-12.39,7.49-17.31,22.2c-6.3,18.81-8.77,30.01-9.9,39.31
							c-0.06,0.51,1.84,1.62,1.79,2.08c-0.43,3.8-0.56,6.05-0.57,6.25c-0.06,1.99,8.02,0.94,8.26-1l1.25-5.62l2.44-1.81l3.73-19.81
							L383.4,200.93z"/>
						<path class="st42" d="M422.71,183.11c3.33,2.05,20.03,27.92,21.74,29.39c-4.39,2.83-3.11,12.99-9.95,10.57
							c-4.75-5.8-16.58-19.24-16.58-19.24L422.71,183.11z"/>
						<polygon class="st43" points="420.4,206.38 416.73,202.13 420.96,235.56 419.67,218.46 						"/>
						<path class="st42" d="M444.45,212.51c3.58,4.14,15.24,21.99,18.83,28.94c0.3,0.58-1,2.76-0.72,3.29
							c0.92,1.75,1.68,3.17,2.18,4.06c1.55,2.24-7.48,7.98-8.92,6.04c-0.47-0.61-1.28-1.87-2.31-3.56
							c-0.23-0.37-2.64-0.58-2.89-0.99c-5.01-8.34-14.08-24.91-16.11-27.21c-2.58-2.93,2.4-10.08,2.4-10.08L444.45,212.51z"/>
						<g>
							<path class="st20" d="M459.42,248.96c3.32-2.76,3.13-4.22,3.13-4.22c0.92,1.75,1.68,3.17,2.18,4.06
								c1.55,2.24-7.48,7.98-8.92,6.04c-0.44-0.57-1.38-2.03-2.31-3.56C455.41,251.29,457.42,250.63,459.42,248.96z"/>
						</g>
						<path class="st20" d="M367.31,247.31c-1.29,0.82-7.87,1.54-8.94,0.37c0,0-0.61,5.29-0.57,6.25c0.04,0.96,2.23,1.16,4.21,0.95
							c1.98-0.21,4.12-0.66,4.43-2.07C366.76,251.4,367.31,247.31,367.31,247.31z"/>
						<path class="st20" d="M417.57,242.53c-1.39,1.48-42.29,1.33-43.03-0.61c-0.74-1.94,0,0.27,0,0.27s-1.25,4.6-1.7,6.06
							c-0.45,1.47,9.96,1.82,9.96,1.82s19.88,1.14,30.39-0.44c2.73-0.41,4.85-0.44,4.75-1.44
							C417.83,247.2,417.57,242.53,417.57,242.53z"/>
						<path class="st43" d="M377.99,218.76l0.68-6.03l-5.2,12.97l5.81-18.35c0,0,2.09-5.6,0.89,1.03l-0.06,0.77l-0.15,0.36
							c-1.2,6.66-2.5,14.17-3.01,18.35L377.99,218.76z"/>
						<path class="st4" d="M410.6,179.13c-0.11,2.52-2.57,9.28-10.31,9.72c-7.95,0.46-4.51-9.15-4.51-9.15s-2.14,0.63-2.17,0.64
							c-1.22,2.77-0.89,6.36-0.41,7.44c2.05,4.56,8.42,4.73,12.62,2.24c0.84-0.5,6.44-3.96,7.23-10.35L410.6,179.13z"/>
					</g>
				</g>
				<polygon class="st31" points="431.03,267.59 359.73,267.59 360.47,262.89 431.77,262.89 				"/>
				<polygon class="st5" points="432.13,260.58 399.97,260.58 401.08,253.47 433.24,253.47 				"/>
			</g>
			<g>
				<path class="st29" d="M381.44,220.48c-0.67,9.4,6.41,17.02,15.81,17.02c9.4,0,17.57-7.62,18.23-17.02
					c0.67-9.4-6.41-17.02-15.81-17.02C390.27,203.45,382.11,211.08,381.44,220.48z"/>
				<g>
					<path class="st4" d="M390.72,228.84c0.06,0.27,0.35,0.5,0.63,0.5h12.53c0.29,0,0.61-0.23,0.71-0.5l2.88-7.89
						c0.1-0.28-0.05-0.5-0.34-0.5h-17.75c-0.29,0-0.47,0.23-0.41,0.5L390.72,228.84z"/>
					<path class="st4" d="M388.32,219.89c0.02-0.29,0.27-0.52,0.56-0.52h18.89c0.29,0,0.5,0.23,0.48,0.52l-0.05,0.7
						c-0.02,0.29-0.27,0.52-0.56,0.52h-18.89c-0.29,0-0.51-0.23-0.48-0.52L388.32,219.89z"/>
					<polygon class="st4" points="398.46,211.57 399.35,210.81 406.66,219.51 405.77,220.27 					"/>
					<path class="st4" d="M398.46,211.57c0.09,0.11,0.37,0.03,0.61-0.18c0.25-0.21,0.37-0.47,0.28-0.58
						c-0.09-0.11-0.37-0.03-0.61,0.18C398.49,211.2,398.36,211.46,398.46,211.57z"/>
					<path class="st4" d="M405.75,220.29c0.2,0.24,0.57,0.26,0.83,0.04c0.26-0.22,0.3-0.59,0.1-0.83c-0.2-0.24-0.57-0.26-0.83-0.04
						C405.59,219.67,405.54,220.05,405.75,220.29z"/>
					<polygon class="st4" points="399.51,211.57 398.73,210.81 390.18,219.51 390.97,220.27 					"/>
					<path class="st4" d="M399.51,211.57c-0.11,0.11-0.37,0.03-0.58-0.18c-0.22-0.21-0.3-0.47-0.2-0.58
						c0.11-0.11,0.37-0.03,0.59,0.18C399.53,211.2,399.62,211.46,399.51,211.57z"/>
					<path class="st4" d="M390.98,220.29c-0.24,0.24-0.61,0.26-0.83,0.04c-0.22-0.22-0.22-0.59,0.02-0.83
						c0.24-0.24,0.61-0.26,0.84-0.04C391.23,219.67,391.22,220.05,390.98,220.29z"/>
				</g>
			</g>
		</g>
		<g class="st44">
			<linearGradient id="SVGID_16_" gradientUnits="userSpaceOnUse" x1="538.9827" y1="334.4482" x2="653.5497" y2="334.4482">
				<stop  offset="0" style="stop-color:#FFFFFF"/>
				<stop  offset="0.8155" style="stop-color:#FFFFFF;stop-opacity:0"/>
			</linearGradient>
			<path class="st45" d="M539.01,384.05c-0.17,1.09,0.59,1.98,1.69,1.98h94.96c1.1,0,2.14-0.89,2.31-1.98l15.55-99.2
				c0.17-1.09-0.59-1.98-1.69-1.98h-94.96c-1.1,0-2.14,0.89-2.31,1.98L539.01,384.05z"/>
		</g>
		<g class="st44">
			<linearGradient id="SVGID_17_" gradientUnits="userSpaceOnUse" x1="215.2268" y1="334.4492" x2="329.7939" y2="334.4492">
				<stop  offset="0.1845" style="stop-color:#FFFFFF;stop-opacity:0"/>
				<stop  offset="1" style="stop-color:#FFFFFF"/>
			</linearGradient>
			<path class="st46" d="M215.25,384.05c-0.17,1.09,0.59,1.98,1.69,1.98h94.96c1.1,0,2.14-0.89,2.31-1.98l15.55-99.2
				c0.17-1.09-0.59-1.98-1.69-1.98h-94.96c-1.1,0-2.14,0.89-2.31,1.98L215.25,384.05z"/>
		</g>
	</g>
	<g>
		<path class="st47" d="M251.18,291.69l-5.34,5.05c0,0-10.24,0.15-11,7.37l5.98,2.78c0,0,7.74-1.19,8.54-4.61l6.16-5.55
			L251.18,291.69z"/>
		<path class="st47" d="M383.15,239.92c0,0,14.55-14.23,15.66-14.76c1.11-0.53,0.57,1.96-0.98,3.19c0,0-2.85,3.72-3.63,4.27
			c-0.78,0.55,4.45,4.42,2.12,7.55c-1.19,1.23-2.68,2.02-3.77,2.67c-1.09,0.66-4.38,2.63-4.38,2.63L383.15,239.92z"/>
		<g>
			<path class="st17" d="M74.87,439.78c0.02,3.94,66.77,7.16,149.09,7.18c82.33,0.02,149.05-3.16,149.04-7.1
				c-0.01-3.94-66.76-7.16-149.1-7.18C141.59,432.66,74.86,435.83,74.87,439.78z"/>
		</g>
		<path class="st4" d="M325.32,420.98c0,0-0.34,1.46,0.81,6.19c1.16,4.74-11.91,5.65-12.33,2.48c-0.44-3.35,0.51-8.71,0.4-9.92
			C314.11,418.57,325.32,420.98,325.32,420.98z"/>
		<path class="st4" d="M277.01,420.18c0,0-2.04,2.86-1.82,6.42c0.22,3.56-8.74,1.17-8.89,0c-0.14-1.17,0.29-5.55,1.75-9.12
			C269.5,413.91,277.01,420.18,277.01,420.18z"/>
		<path class="st18" d="M276.22,426.35c0.13,4.46,4.51,6.6,4.34,10.01c-0.03,0.66-0.01,2-0.39,2.52c-1.15,1.57-3.89,1.77-6.14,1.76
			c-3.24-0.01-6.58-0.24-9.08-1.23c-4.18-1.65,0.05-9.5,0.28-13.24C265.42,423.04,276.09,421.88,276.22,426.35z"/>
		<path class="st18" d="M310.75,330.64c-2.7,11.7-12.73,39.75-15.83,44.72c-2.41,3.86-11.69,30.84-15.59,40.33
			c-0.19,0.46,0.07,1.75-0.13,2.15c-0.96,1.92-1.62,3.23-1.84,3.65c-1.35,2.59-11.15-0.73-10.69-3.66c0.07-0.41,0.61-2.16,1.02-3.64
			c0.12-0.44,0.94-1.01,1.09-1.53c2.89-10.21,6.33-35.64,12.67-43.96c6.12-31.82,5.33-48.83,9.52-63.41c0,0,1.48,0.47,6.42,1.55
			c13.48,2.94,25.82,1,27.14,0.86c1.78-0.18,3.61-0.41,5.5-0.69c2.79,24.84,2.56,49.48,1.99,60.31c-0.26,4.9-3.54,32.18-5.63,46.47
			c-0.08,0.53,0.66,0.97,0.58,1.47c-0.29,2.06-0.44,4.8-0.61,6.2c-0.12,2.43-12.91,1.86-12.57-0.25c0.28-1.73-0.35-3.66-0.16-5.42
			c0.04-0.39,1.1-1.6,1.14-1.99c1.48-14.65-1.13-31.72,0.58-43.46L310.75,330.64z"/>
		<path class="st18" d="M313.02,427.5c-0.04,0.59-0.06,1.3-0.04,1.78c0.04,0.66-0.33,5.04-0.44,7.69c-0.05,1.2,0.14,1.82,1.57,1.99
			c4.29,0.49,15.92,0.83,18.61,0.83c3.28,0,6.39-0.22,7.02-1.5c0.46-0.92,0.87-2.58-0.04-3.91c-0.97-1.42-3.38-2.52-6.72-3.55
			c-3.24-1-2.87-1.8-4.09-4.37c-0.64-1.36-3.2-1.28-7.01-0.9c-0.93,0.09-1.64,3.2-3.5,3.36c-2.46,0.22-4-0.95-4.75-1.75
			C313.28,426.77,313.06,426.92,313.02,427.5z"/>
		<polygon class="st18" points="320.64,232.54 315.82,231.35 311.44,226.47 307.78,231.8 297.69,234.11 299.5,314.65 322.12,315.01 
			325.62,240.8 		"/>
		<path class="st12" d="M308.19,230.92c-1.87,0.61-13.45,3.33-15.88,5.55c-3.01,2.74-19.47,31.95-19.47,31.95
			s-12.14,11.75-18.81,17.28c-0.38,0.31-0.48,1.89-0.83,2.18c-1.91,1.58-3.32,2.74-3.77,3.08c-1.98,1.52,3.8,8.06,5.93,6.84
			c0.51-0.29,2.17-1.55,4.41-3.31c0.5-0.39,1.58,0.3,2.13-0.13c7.27-5.75,22.04-21.38,22.04-21.38l8.36-12.42l-3.19,37.55l1.5,1.22
			c0,0-0.62,5.75,0,7.33c0.55,1.41,10.5,3.74,20.59,3.77c10.37,0.03,17.43-1.44,18.92-2.72c1.63-1.39,0.79-7.47,0.79-7.47l1.48-3.5
			l0.65-39.6c0,0,15.33,13.3,19.13,14.98c3.25,0.41,22.9-14.16,32.91-21.62c0.39-0.41,0.62-1.78,0.97-2.14
			c1.48-1.55,2.52-2.65,2.89-3.04c2.21-2.33-3.18-8.27-6.03-5.86c-0.48,0.41-1.58,1.42-3.08,2.81c-0.45,0.42-2.21,0.36-2.73,0.85
			c-9.29,5.84-18.97,13-22.07,13.94c-1.06-1.52-20.16-18.83-22.67-20.36c-2.51-1.53-14.7-5.77-14.7-5.77H308.19z"/>
		<path class="st29" d="M332.39,296.74c-4.21,2.51-20.18,2.28-20.18,2.28l-0.56-2.28l-0.46,2.29h-1.11l-0.38-1.14l-1.44,1.14
			c0,0-8.21-0.01-12.47-0.54l-0.91-1.75l-0.76,1.6l-5.02-0.23l1.5,1.22c0,0,7.09,2.36,19.63,2.36c14.44,0,20.67-1.44,20.67-1.44
			L332.39,296.74z"/>
		<path class="st29" d="M377.36,242.94c0,0,3.26,2.58,5.98,5.96l-1.36,1.74l1.77-1.22l0.34,0.31l-0.49,0.63l0.87-0.43l0.72,0.42
			l0.46-1.14c0,0-0.6-4.23-6.01-6.83L377.36,242.94z"/>
		<path class="st29" d="M254.03,285.7c1.2,2.34,4.28,5.59,4.28,5.59s2.28-0.68,2.11-0.57c-0.17,0.11-1.54,1.08-1.54,1.08l0.63,0.51
			l0.92-0.23l-0.35,0.68c0,0,0.63,1.22,1.54,1.72l-1.66-0.08c0,0-5.59-1.67-6.75-6.53L254.03,285.7z"/>
		<polygon class="st29" points="292.3,260.56 293.59,255.32 283.94,272.98 		"/>
		<polygon class="st29" points="348.29,269.53 329.75,251.21 331.47,258.05 332.77,273.67 333.04,257.14 342.53,265.11 		"/>
		<g>
			<path class="st48" d="M316.93,436.41c0,0,0.42-3.04,3.84-3.04c3.42,0,4.03,2.96,4.03,2.96s3.46,0.19,6.96,0.3
				c3.23,0.1,8.56-0.37,8.34-1.46c0.36,1.14,0.03,2.36-0.33,3.11c-0.63,1.28-3.74,1.5-7.02,1.5c-2.69,0-14.33-0.35-18.61-0.83
				c-1.43-0.16-1.62-0.78-1.57-1.99c0.02-0.54,0.06-1.14,0.09-1.78C312.57,436.33,316.93,436.41,316.93,436.41z"/>
		</g>
		<g>
			<path class="st48" d="M270.79,436.41c3.76,0.39,9.74-0.04,9.61-1.36c0.12,0.42,0.18,0.86,0.16,1.32c-0.03,0.66-0.01,2-0.39,2.52
				c-1.15,1.57-3.89,1.77-6.14,1.76c-3.24-0.01-6.58-0.24-9.08-1.23c-2.04-0.8-2.07-3.09-1.55-5.66
				C263.27,434.52,267.15,436.03,270.79,436.41z"/>
		</g>
		<path class="st29" d="M326.48,234.15c-1.04,6.04-5.08,11.55-13.43,10.98c-7.91-0.53-11.98-7.28-11.69-12.34l2.97-0.8l17.61,0.52
			L326.48,234.15z"/>
		<path class="st47" d="M308.98,215.84c0.63,5.58-0.29,14.36-1.27,15.23l-4.13,1.13c-0.17,12.48,19.05,14.84,21.03,1.15l-4.72-1.69
			c0,0,0.21-3.22,0.07-5.76c-0.2-3.81-0.18-10.56-0.18-10.56L308.98,215.84z"/>
		<path class="st49" d="M320.01,227.73c-2.03-0.21-8.04-6.01-8.3-7.35c-0.26-1.34-1.17-2.92-1.17-2.92s-0.81,6.03,1.97,9.36
			c3.76,4.51,7.35,1.61,7.35,1.61S320,228.63,320.01,227.73z"/>
		<path class="st47" d="M306.37,208.13c-0.31,6.37,4.59,11.79,10.96,12.1c6.37,0.32,11.98-5.2,12.29-11.56
			c0.07-1.37,0.29-3.6-0.09-4.84c-2.31-7.54-13.56-10.13-20.17-4.07C307.05,201.87,306.52,205.27,306.37,208.13z"/>
		<path class="st47" d="M329.16,211.25c-0.66,6.06-4.5,16.01-9.99,16.65c-2.57,0.3-8.48-4.4-8.59-8.67c-0.11-4.26-0.2-8.92-0.2-8.92
			"/>
		<path class="st18" d="M327.6,216.02c-0.19,0.82-0.84,1.38-1.46,1.24c-0.61-0.14-0.96-0.92-0.77-1.75
			c0.19-0.83,0.84-1.38,1.45-1.25C327.44,214.41,327.78,215.19,327.6,216.02z"/>
		<path class="st18" d="M319.42,214.42c-0.14,0.83-0.75,1.43-1.37,1.33c-0.62-0.1-1.02-0.86-0.88-1.7c0.14-0.84,0.75-1.44,1.37-1.33
			C319.16,212.82,319.55,213.58,319.42,214.42z"/>
		<path class="st49" d="M324.21,220.14c-0.22,0.08-1.39,0.35-1.75,0.24c-0.36-0.1-1.82-0.88-1.88-1.07
			C320.52,219.12,324.63,220,324.21,220.14z"/>
		<g>
			<path class="st18" d="M319.81,211.39c-0.02-0.01-0.23-0.11-0.57-0.25c-0.08-0.04-0.18-0.06-0.28-0.09
				c-0.1-0.02-0.19-0.08-0.3-0.09c-0.21-0.02-0.43-0.11-0.66-0.1l-0.34-0.01c-0.11,0.02-0.22,0.06-0.33,0.07
				c-0.22,0.02-0.43,0.06-0.6,0.15c-0.35,0.13-0.62,0.2-0.62,0.2l-0.06,0.02c-0.14,0.04-0.29-0.04-0.33-0.19
				c-0.03-0.1,0.01-0.21,0.08-0.27c0,0,0.22-0.19,0.59-0.46c0.18-0.14,0.43-0.24,0.71-0.34c0.14-0.05,0.29-0.09,0.44-0.12
				c0.16-0.01,0.32-0.01,0.48-0.02c0.16,0,0.32-0.02,0.48,0.03c0.15,0.04,0.31,0.08,0.45,0.11c0.28,0.12,0.53,0.25,0.7,0.4
				c0.38,0.28,0.54,0.6,0.53,0.57c0.11,0.1,0.11,0.27,0,0.38C320.09,211.5,319.92,211.5,319.81,211.39z"/>
		</g>
		<g>
			<path class="st18" d="M326.03,212.05c0,0,0.05-0.02,0.13-0.07c0.08-0.04,0.3-0.08,0.51-0.1c0.18,0,0.4-0.01,0.63,0.03
				c0.23,0.03,0.47,0.12,0.7,0.22c0.24,0.08,0.44,0.28,0.63,0.43c0.16,0.19,0.31,0.38,0.39,0.56c0.13,0.38,0.15,0.63,0.15,0.63
				c0.01,0.17-0.11,0.32-0.29,0.34c-0.09,0.01-0.18-0.03-0.25-0.09l-0.09-0.09c0,0-0.14-0.14-0.27-0.35
				c-0.03-0.05-0.1-0.09-0.15-0.13c-0.05-0.04-0.1-0.1-0.15-0.15c-0.14-0.07-0.26-0.18-0.41-0.25c-0.15-0.08-0.31-0.15-0.48-0.19
				c-0.16-0.07-0.32-0.09-0.45-0.12c-0.11-0.01-0.16-0.06-0.26-0.06c-0.1,0-0.15,0.01-0.15,0.01l-0.04,0
				c-0.18,0.01-0.33-0.13-0.34-0.31C325.85,212.22,325.92,212.1,326.03,212.05z"/>
		</g>
		<path class="st4" d="M323.71,222.84c-0.11-0.36-5.02-1.09-5.39-0.96c-0.37,0.13,1.28,2.08,2.39,2.29
			C321.56,224.33,323.84,223.27,323.71,222.84z"/>
		<path class="st18" d="M330.51,209.25c-0.44,0.11-0.93-0.05-2.14-0.21c-0.34-0.05,0.01-2.89-0.37-2.95
			c-0.2-0.03-1.11,2.72-1.31,2.68c-0.26-0.05-0.11-1.23-0.38-1.28c-0.32-0.06-0.85,0.64-1.19,0.57c-2.8-0.62-6.84-1.57-7.99-2.67
			c-0.18-0.17,0.5-4.33,0.29-4.44c-0.39-0.2-1.76,4.61-2.04,4.39c-0.77-0.62-2.03,0.22-2.64,3.67c-0.54,3.03-1.1,5.35-1.1,5.35
			l-0.96-0.16c0,0-0.23-4.65-1.97-4.88c-2-0.26-2.12,2.5-2.12,2.5l0.99,3.04c0,0-1.72-3.39-1.97-7.52
			c-0.38-6.2,0.08-11.66,7.82-13.33c3.55-0.77,8.46-0.39,12.38,1.72c3.04,1.63,4.56,3.36,5.41,6.41
			C332.07,205.22,330.51,209.25,330.51,209.25z"/>
		<path class="st49" d="M305.86,212.97c0.17,2.07,1.63,4.77,3.2,4.06c1.26-0.58,0.98-6.79-0.64-7.2
			C306.68,209.39,305.69,210.9,305.86,212.97z"/>
		<path class="st18" d="M315.79,196.62c-1.41,0.6-2.09-0.06-3.07-1.08c-0.87-0.89-1.6-1.76-2.7-2.38c-1.49-0.85-3.46-1.51-5.15-1.71
			c-4.79-0.57-9.18,2.13-11.5,5.94c-2.69,4.41-3.82,9.74-1.5,15.98c1.2,3.24,4.45,7.04,5.63,7.4c0.53,0.16,1.13-0.05,0.38-1.23
			c-0.74-1.18-1.99-3.23-0.85-4.61c1.35-1.63,3.96-1.91,5.6-3.25c4.1-3.35,0.18-8.16,2.22-12.28c0.72-1.45,2.26-2.85,3.94-2.93
			c2.39-0.12,4.17,2.27,4.15,4.54"/>
		<g>
			<g>
				<rect x="103.61" y="346.08" class="st18" width="46.02" height="52.86"/>
			</g>
			<g>
				<path class="st26" d="M149.53,323.12c-1.17,0.12-1.96,1.08-2.07,2.45c-0.11,1.37-3.18,75.67-3.18,75.67h49.23
					c0,0-2.11-75.1-2.13-76.12c-0.03-1.01-0.85-1.89-2-2.02c-2.63-0.3-7.13-0.93-8.35-1.91c-1.76-1.4-1.05-6.74-2.79-8.11
					c-1.74-1.37-16.11-1.29-17.41,0c-1.31,1.3-1.36,7.3-3.46,8.46C155.93,322.33,151.96,322.86,149.53,323.12z M163.06,316.76
					c0-0.85,0.69-1.54,1.54-1.54h10.61l0,0c0.85,0,1.54,0.69,1.54,1.54c0,0.85-0.69,1.54-1.54,1.54l0,0H164.6
					C163.75,318.3,163.06,317.61,163.06,316.76z"/>
			</g>
			<g>
				<g>
					<path class="st5" d="M91.75,401.75L66.5,339.57c-0.16-0.39-0.12-0.84,0.1-1.2c0.22-0.36,0.6-0.6,1.02-0.63l144.37-12.55
						c0.39-0.04,0.79,0.11,1.06,0.39c0.28,0.28,0.42,0.67,0.38,1.07l-7.59,74.73c-0.07,0.68-0.64,1.2-1.33,1.2H92.98
						C92.44,402.58,91.95,402.25,91.75,401.75z M210.61,327.99L69.64,340.24l24.24,59.67H203.3L210.61,327.99z"/>
				</g>
				<g>
					<path class="st5" d="M193.51,402.14c0.49,0,0.89-0.4,0.89-0.89v-73.12c0-0.49-0.4-0.89-0.89-0.89c-0.49,0-0.89,0.4-0.89,0.89
						v73.12C192.62,401.74,193.02,402.14,193.51,402.14z"/>
				</g>
				<g>
					<path class="st5" d="M174.74,402.14c0.49,0,0.89-0.4,0.89-0.89v-71.48c0-0.49-0.4-0.89-0.89-0.89c-0.49,0-0.89,0.4-0.89,0.89
						v71.48C173.85,401.74,174.25,402.14,174.74,402.14z"/>
				</g>
				<g>
					<path class="st5" d="M155.98,402.14c0.49,0,0.89-0.4,0.89-0.89V331.4c0-0.49-0.4-0.89-0.89-0.89c-0.49,0-0.89,0.4-0.89,0.89
						v69.85C155.09,401.74,155.49,402.14,155.98,402.14z"/>
				</g>
				<g>
					<path class="st5" d="M137.21,402.14c0.49,0,0.89-0.4,0.89-0.89v-68.22c0-0.49-0.4-0.89-0.89-0.89c-0.49,0-0.89,0.4-0.89,0.89
						v68.22C136.32,401.74,136.72,402.14,137.21,402.14z"/>
				</g>
				<g>
					<path class="st5" d="M118.45,402.14c0.49,0,0.89-0.4,0.89-0.89v-66.64c0-0.49-0.4-0.89-0.89-0.89c-0.49,0-0.89,0.4-0.89,0.89
						v66.64C117.56,401.74,117.96,402.14,118.45,402.14z"/>
				</g>
				<g>
					<path class="st5" d="M99.68,402.14c0.49,0,0.89-0.4,0.89-0.89v-64.96c0-0.49-0.4-0.89-0.89-0.89c-0.49,0-0.89,0.4-0.89,0.89
						v64.96C98.79,401.74,99.19,402.14,99.68,402.14z"/>
				</g>
				<g>
					<path class="st5" d="M80.91,372.42c0.49,0,0.89-0.4,0.89-0.89v-33.67c0-0.49-0.4-0.89-0.89-0.89s-0.89,0.4-0.89,0.89v33.67
						C80.03,372.03,80.42,372.42,80.91,372.42z"/>
				</g>
				<g>
					<path class="st5" d="M68.94,339.55h141.65c0.49,0,0.89-0.4,0.89-0.89c0-0.49-0.4-0.89-0.89-0.89H68.94
						c-0.49,0-0.89,0.4-0.89,0.89C68.05,339.15,68.45,339.55,68.94,339.55z"/>
				</g>
				<g>
					<path class="st5" d="M74.24,355.98h134.96c0.49,0,0.89-0.4,0.89-0.89c0-0.49-0.4-0.89-0.89-0.89H74.24
						c-0.49,0-0.89,0.4-0.89,0.89C73.35,355.59,73.75,355.98,74.24,355.98z"/>
				</g>
				<g>
					<path class="st5" d="M80.91,372.42h126.61c0.49,0,0.89-0.4,0.89-0.89c0-0.49-0.4-0.89-0.89-0.89H80.91
						c-0.49,0-0.89,0.4-0.89,0.89C80.03,372.03,80.42,372.42,80.91,372.42z"/>
				</g>
				<g>
					<path class="st5" d="M88.29,388.86h117.56c0.49,0,0.89-0.4,0.89-0.89c0-0.49-0.4-0.89-0.89-0.89H88.29
						c-0.49,0-0.89,0.4-0.89,0.89C87.4,388.46,87.8,388.86,88.29,388.86z"/>
				</g>
				<g>
					<path class="st5" d="M92.98,403.47h110.75c1.14,0,2.09-0.86,2.21-1.99l9.07-85.84l26.63-9.03c1.16-0.39,1.79-1.65,1.39-2.81
						c-0.39-1.16-1.65-1.79-2.82-1.39l-27.98,9.48c-0.82,0.28-1.4,1.01-1.49,1.87l-9.01,85.26H94.48l-24.69-60.79
						c-0.46-1.14-1.75-1.68-2.89-1.22c-1.14,0.46-1.68,1.76-1.22,2.89l25.25,62.18C91.26,402.92,92.08,403.47,92.98,403.47z"/>
				</g>
				<g>
					<path class="st18" d="M226.87,312.39c0.33,0,0.67-0.05,1-0.16l14.06-4.77c1.63-0.55,2.5-2.32,1.95-3.94
						c-0.55-1.63-2.31-2.5-3.94-1.95l-14.06,4.76c-1.63,0.55-2.5,2.32-1.95,3.94C224.36,311.58,225.57,312.39,226.87,312.39z"/>
				</g>
				<g>
					<path class="st5" d="M90.07,422.82h119.13c0.69,0,1.35-0.33,1.77-0.88c0.42-0.56,0.56-1.27,0.37-1.94l-5.46-19.35
						c-0.33-1.18-1.56-1.87-2.74-1.53c-1.18,0.33-1.87,1.56-1.53,2.74l4.67,16.52H90.07c-1.23,0-2.22,0.99-2.22,2.22
						C87.85,421.82,88.84,422.82,90.07,422.82z"/>
				</g>
				<g>
					<path class="st50" d="M184.81,433.4c0,4.03,3.27,7.3,7.3,7.3c4.03,0,7.3-3.27,7.3-7.3c0-4.04-3.27-7.3-7.3-7.3
						C188.08,426.1,184.81,429.37,184.81,433.4z"/>
				</g>
				<g>
					<path class="st29" d="M187.58,433.4c0,2.5,2.03,4.53,4.53,4.53c2.5,0,4.53-2.03,4.53-4.53c0-2.5-2.03-4.53-4.53-4.53
						C189.61,428.87,187.58,430.9,187.58,433.4z"/>
				</g>
				<g>
					<path class="st5" d="M192.11,435.62c0.33,0,0.66-0.07,0.97-0.23c1.1-0.54,1.56-1.87,1.02-2.97l-6.26-12.8
						c-0.54-1.1-1.87-1.56-2.97-1.02c-1.1,0.54-1.56,1.87-1.02,2.97l6.26,12.8C190.5,435.16,191.29,435.62,192.11,435.62z"/>
				</g>
				<g>
					<path class="st50" d="M98.28,433.4c0,4.03,3.27,7.3,7.31,7.3c4.03,0,7.3-3.27,7.3-7.3c0-4.04-3.27-7.3-7.3-7.3
						C101.55,426.1,98.28,429.37,98.28,433.4z"/>
				</g>
				<g>
					<path class="st29" d="M101.06,433.4c0,2.5,2.03,4.53,4.53,4.53c2.5,0,4.53-2.03,4.53-4.53c0-2.5-2.03-4.53-4.53-4.53
						C103.09,428.87,101.06,430.9,101.06,433.4z"/>
				</g>
				<g>
					<path class="st5" d="M105.59,435.62c0.33,0,0.66-0.07,0.98-0.23c1.1-0.54,1.56-1.87,1.02-2.97l-6.26-12.8
						c-0.54-1.1-1.87-1.56-2.97-1.02c-1.1,0.54-1.56,1.87-1.02,2.97l6.26,12.8C103.98,435.16,104.77,435.62,105.59,435.62z"/>
				</g>
			</g>
		</g>
	</g>
	<g>
		<path class="st17" d="M604.39,434.66c0,3.78-17.71,6.84-39.55,6.84c-21.84,0-39.55-3.06-39.55-6.84c0-3.78,17.71-6.84,39.55-6.84
			C586.68,427.83,604.39,430.89,604.39,434.66z"/>
		<g>
			<path class="st26" d="M540.48,233.47c4.44-5.72,17.5-9.22,17.5-9.22V228c0,0,3.93,3.12,4.43,3.5c0.5,0.38,11.94-3.64,11.6-5.88
				c-0.15-1-0.27-1.75-0.27-1.75l14.62,6.97l-0.96,23.67c0,0,0.46,36,1.58,39.25c0,0-1.42,1.08-1.08,7.7
				c0.27,5.3-18.54,3.68-22.46,3.68c-3.92,0-23.38,0.65-23.03-3.74c0.36-4.39,0.46-6.02,0.46-6.02l-0.98-5.62l1.88-39L540.48,233.47
				z"/>
			<path class="st47" d="M559.25,407.12c0,0,2.3-33.18-0.11-36.17s-12.46,1.38-12.46,1.38l1.25,35.17l7.42,1.09L559.25,407.12z"/>
			<path class="st47" d="M580.01,407.02l-3.84-34.68c0,0,11.52-6,13.01,0s0.01,33.96,0.01,33.96l-5.78,2.3L580.01,407.02z"/>
			<path class="st26" d="M574.02,225.62l-5.91,3.92l-4.56,0.08l-2.72-6.79l-4.22,2.11l-2.9,30.98c0,0-13.71,40.8-7.42,44.6
				c6.3,3.8,29.31,4.42,32.8,0.87C582.57,297.83,574.02,225.62,574.02,225.62z"/>
			<path class="st18" d="M565.4,333.5c1.33,12.72,4.16,41.38,4.16,42.77c0,1.93,21.8,0.11,21.83-1.35
				c0.51-23.69-2.74-47.51-3.46-73.47c0,0-18.42,5.3-45.48-0.06c-0.79,5.48-3.32,53.5-3,63.9c0.08,2.45,0.71,8.42,0.74,11.68
				c0.02,1.7,21.16,1.67,21.16-1.83s0-16.96,0-16.96l2.75-24.68H565.4z"/>
			<path class="st47" d="M593.69,312.75c-3.48,3.08-2.48,7.15-2.88,9.88c-0.27,1.86-1.33,3.95,0.25,3.34
				c2.83-1.09,2.39-5.77,2.39-5.77s0.93,0.45,1.08,1.64c0.26,2.07-2.21,6.33-2.49,8.38c-0.3,2.19,4.22,0.33,6-2.1
				c3.3-4.16,3.3-11.46,3.3-12.14c-0.02-1.46,0-5.59,0-5.59l-8.12-5.27C593.21,305.13,594.24,312.23,593.69,312.75z"/>
			<path class="st26" d="M588.37,230.83c4.5,2.38,8.92,10.68,9.92,24.05c0.77,10.31,4.17,36.26,4.37,50.3
				c0.01,0.58-1,1.53-0.99,2.07c0.04,3.28,0.09,3.41,0.02,4.19c-0.21,2.3-9.32,1.54-9.32-0.71c0-0.68-0.16-2.64-0.42-5.4
				c-0.06-0.58-0.75-0.9-0.82-1.55c-1.33-13.51-5.26-44.52-5.26-44.52"/>
			<path class="st49" d="M553.21,207.62c0.28,2.1,1.9,4.78,3.46,3.97c1.25-0.66,2.31-1.74,2.03-3.84c-0.28-2.1-1.38-3.12-3.04-3.46
				C553.86,203.94,552.93,205.53,553.21,207.62z"/>
			<path class="st47" d="M553.7,204.98c0.33-0.41,2.13-0.64,2.65,0.94l-0.2-1.49c0,0-0.58-0.27-1.26-0.16
				C554,204.41,553.7,204.98,553.7,204.98z"/>
			<path class="st49" d="M580.24,207.62c-0.28,2.1-1.9,4.78-3.46,3.97c-1.25-0.66-2.31-1.74-2.03-3.84c0.28-2.1,1.38-3.12,3.04-3.46
				C579.58,203.94,580.52,205.53,580.24,207.62z"/>
			<path class="st47" d="M579.75,204.98c-0.34-0.41-2.13-0.64-2.65,0.94l0.19-1.49c0,0,0.58-0.27,1.27-0.16
				C579.44,204.41,579.75,204.98,579.75,204.98z"/>
			<path class="st47" d="M573.62,215.88c-0.66,2.29,0.24,9.33,0.4,9.74c0,0-0.93,4.17-8.27,4.17c-4.41,0-5.59-2.21-5.81-2.95
				c-0.22-0.73,1.54-6.93,0.73-10.69L573.62,215.88z"/>
			<path class="st49" d="M573.42,217.23c0,0-0.1,0.81-0.01,2.2c0,0-3.75,4.44-6.42,4.44c-2.67,0-6.09-4.1-6.09-4.1
				s0.06-2.74-0.07-3.89L573.42,217.23z"/>
			<path class="st47" d="M556.16,201.77c0,5.83,4.73,10.56,10.56,10.56c5.83,0,10.56-4.73,10.56-10.56
				c0-7.83-4.73-11.59-10.56-11.59C560.89,190.17,556.16,194.1,556.16,201.77z"/>
			<path class="st47" d="M556.16,201.77c0,5.65,0,10.38,2.15,13.45c1.3,1.85,4.66,5.03,7.11,5.83c0.61,0.2,2.34,0.1,2.94-0.12
				c2.42-0.86,5.52-3.95,6.76-5.71c2.15-3.07,2.15-7.8,2.15-13.45"/>
			<path class="st18" d="M560.71,206.18c0,0.96,0.58,1.74,1.29,1.74c0.71,0,1.29-0.78,1.29-1.74c0-0.96-0.58-1.74-1.29-1.74
				C561.29,204.44,560.71,205.22,560.71,206.18z"/>
			<path class="st18" d="M570.02,206.18c0,0.96,0.58,1.74,1.29,1.74c0.71,0,1.29-0.78,1.29-1.74c0-0.96-0.58-1.74-1.29-1.74
				C570.59,204.44,570.02,205.22,570.02,206.18z"/>
			<g>
				<path class="st50" d="M563.26,202.58c0,0-0.07,0.01-0.19,0.03c-0.12,0.01-0.29,0.05-0.48,0.08c-0.38,0.05-0.88,0.11-1.39,0.2
					c-0.25,0.05-0.52,0.02-0.74,0.1c-0.23,0.06-0.45,0.07-0.64,0.1c-0.38,0.05-0.66,0.04-0.66,0.04l-0.11,0
					c-0.29-0.01-0.52-0.25-0.51-0.54c0.01-0.18,0.11-0.34,0.25-0.43c0,0,0.25-0.15,0.66-0.32c0.21-0.08,0.44-0.19,0.71-0.26
					c0.26-0.09,0.55-0.13,0.84-0.16c0.29-0.02,0.58-0.05,0.85-0.07c0.28,0.01,0.54,0.04,0.76,0.06c0.45,0.04,0.7,0.14,0.7,0.14
					l0.04,0.02c0.28,0.11,0.41,0.42,0.3,0.69C563.6,202.43,563.44,202.55,563.26,202.58z"/>
			</g>
			<g>
				<path class="st50" d="M570.27,201.54c0,0,0.25-0.1,0.7-0.14c0.22-0.02,0.48-0.05,0.76-0.06c0.27,0.02,0.56,0.05,0.85,0.07
					c0.29,0.03,0.58,0.06,0.84,0.16c0.27,0.07,0.5,0.18,0.71,0.26c0.41,0.17,0.66,0.32,0.66,0.32c0.25,0.15,0.33,0.47,0.18,0.72
					c-0.09,0.16-0.26,0.25-0.43,0.25l-0.11,0c0,0-0.28,0.01-0.66-0.04c-0.19-0.03-0.41-0.04-0.64-0.1c-0.22-0.07-0.49-0.05-0.74-0.1
					c-0.51-0.08-1.01-0.15-1.39-0.2c-0.19-0.03-0.35-0.07-0.48-0.08c-0.12-0.02-0.19-0.03-0.19-0.03c-0.29-0.05-0.49-0.33-0.44-0.62
					c0.03-0.19,0.16-0.34,0.33-0.41L570.27,201.54z"/>
			</g>
			<path class="st49" d="M568.63,211.18c-0.67-0.32-3.11-0.34-3.69,0c-0.58,0.34,1.22,0.8,1.84,0.8
				C567.41,211.99,569.17,211.48,568.63,211.18z"/>
			<path class="st18" d="M576.57,207.06c0,0-0.67,2.91-2.35,3.81c-1.68,0.9-1.19,2.77-1.91,2.77c-0.25,0-0.47-0.61-1-0.82
				c-0.74-0.28-1.84-0.38-3.2-0.42c-0.44-0.01-0.84,0.65-1.33,0.65c-0.33,0-0.72-0.66-1.04-0.64c-1.59,0.09-3.05,0.38-3.98,0.82
				c-0.64,0.3-0.77,1.01-1.16,0.89c-1.06-0.31-0.7-2.76-1.57-3.38c-0.84-0.6-2.01-2.29-2.13-3.87c0-0.06-0.01-0.12-0.01-0.18
				l-0.7,0.22c0,0-0.11,8.42,3.85,13.36c3.96,4.94,5.92,4.85,6.57,4.85c0.66,0,6.29-1.69,8.73-7.21c2.39-5.38,1.91-10.86,1.91-10.86
				H576.57z"/>
			<path class="st49" d="M570.58,214.56c-2.27,0.57-5.81,0.49-7.92,0.26c-0.26-0.03-0.36,0.01-0.02,0.16c0.59,0.25,2.35,2,3.93,2
				c1.58,0,3.58-1.96,4.1-2.28C570.88,214.56,570.78,214.51,570.58,214.56z"/>
			<path class="st4" d="M562.45,214.82c-0.12,0.05,1,0.67,1.39,0.98c0.68,0.18,4.81,0.17,5.62-0.16c1.74-1.16,1.25-1.09,1.25-1.09
				S565.63,215.04,562.45,214.82z"/>
			<path class="st18" d="M566.72,194.67c1.5,0,2.76-0.64,4.35-1.03c2.83-0.7,4.2,2.34,4.2,2.34c1.63,2.67,1.28,11.03,1.3,11.52
				c0.02,0.48,0.67,0.54,0.68,0c0,0,0.85-5.61,1.17-8.99c1.37-14.42-16.23-10.64-20.33-15.47c-0.67-0.79-1.46-0.55-1.75-0.04
				c-2.15,3.79-3.1,8.53-2.51,14.12c0.39,3.66,2.35,9.14,2.35,10.24c0,0.63,0.71,0.55,0.71-0.02c0-0.89-0.52-9.86,1.41-12.14
				C561.54,191.34,565.27,194.67,566.72,194.67z"/>
			<path class="st4" d="M547.92,407.5c0,0,0.04,10.77-1.11,15.5c-1.16,4.74,11.91,5.65,12.33,2.48c0.44-3.35,0.01-17.14,0.12-18.36
				L547.92,407.5z"/>
			<path class="st4" d="M580.01,407.02c0,0,0.13,6.29,0.13,11.32c0,0.77-0.69,3-0.7,3.68c-0.01,1.26,0.66,0.84,0.61,1.54
				c-0.22,3.56,8.74,1.17,8.89,0c0.04-0.33,0.79-0.12,0.89-1.76c0.04-0.65-0.59-2.78-0.55-3.54c0.19-4.05,0.3-9.33-0.1-11.96
				L580.01,407.02z"/>
			<path class="st18" d="M579.02,423.31c-0.13,4.46-4.51,6.6-4.34,10.01c0.03,0.66,0.01,2,0.39,2.52c1.15,1.57,3.89,1.77,6.14,1.76
				c3.24-0.01,6.58-0.24,9.08-1.23c4.18-1.65-0.05-9.5-0.28-13.24C589.82,420,579.15,418.84,579.02,423.31z"/>
			<path class="st18" d="M559.91,423.33c0.04,0.59,0.06,1.3,0.04,1.78c-0.04,0.66,0.33,5.04,0.44,7.69c0.05,1.2-0.14,1.82-1.57,1.99
				c-4.29,0.49-15.92,0.83-18.61,0.83c-3.28,0-6.39-0.22-7.02-1.5c-0.46-0.92-0.87-2.58,0.04-3.91c0.97-1.42,3.38-2.52,6.72-3.55
				c3.24-1,2.87-1.8,4.09-4.37c0.64-1.36,3.2-1.28,7.01-0.9c0.93,0.09,1.64,3.2,3.5,3.36c2.46,0.22,4-0.95,4.75-1.75
				C559.66,422.6,559.88,422.75,559.91,423.33z"/>
			<g>
				<path class="st48" d="M556.01,432.24c0,0-0.42-3.04-3.84-3.04s-4.03,2.96-4.03,2.96s-3.46,0.19-6.96,0.3
					c-3.23,0.1-8.56-0.37-8.34-1.46c-0.36,1.14-0.03,2.36,0.33,3.11c0.63,1.28,3.74,1.5,7.02,1.5c2.69,0,14.33-0.35,18.61-0.83
					c1.43-0.16,1.62-0.78,1.57-1.99c-0.02-0.54-0.06-1.14-0.09-1.78C560.37,432.16,556.01,432.24,556.01,432.24z"/>
			</g>
			<g>
				<path class="st48" d="M584.45,433.37c-3.76,0.39-9.74-0.04-9.61-1.36c-0.12,0.42-0.18,0.86-0.16,1.32
					c0.03,0.66,0.01,2,0.39,2.52c1.15,1.57,3.89,1.77,6.14,1.76c3.24-0.01,6.58-0.24,9.08-1.23c2.04-0.8,2.07-3.09,1.55-5.66
					C591.97,431.48,588.09,432.99,584.45,433.37z"/>
			</g>
			<path class="st49" d="M593.21,313.21c0,0,3.35,2.87,8.11,1.12l0.01-2.26c0,0-4.06,1.42-7.49,0.06L593.21,313.21z"/>
			<path class="st5" d="M542.03,287.34c0,0,10.88,1.24,13.63,1.32l1.12-1.41c0,0,8.97,0.67,10.97,0c2-0.67,4-1.83,4-1.83l16.01,0.76
				l-35.26-3.52l-10.33,1.73L542.03,287.34z"/>
			<path class="st26" d="M545.37,251.82l-8.38,16.73c0,0,6.48,4.12,13.35,5.81c0.56,0.14,1.33,1.37,1.88,1.51
				c2.27,0.56,4.32,1.08,5.78,1.45c1.89,0.42-0.17,9.56-1.94,9.3c-0.54-0.07-2.64-0.46-5.47-1.05c-0.45-0.09-1.45,0.8-1.93,0.7
				c-7.66-1.62-24.31-8.46-25.38-13.14c-0.91-3.99,15.22-38.93,18.28-40.86C543.84,230.83,545.37,251.82,545.37,251.82z"/>
			<g>
				<polygon class="st29" points="541.16,267.39 541.28,266.86 581.95,270.92 589.77,285.84 548.15,281.68 				"/>
				<polygon class="st51" points="548.15,281.68 548.91,282.29 589.48,286.34 589.77,285.84 590.85,257.14 549.23,252.99 				"/>
				<polygon class="st4" points="541.28,266.86 547.94,279.81 541.65,267.11 548.12,267.54 				"/>
				<path class="st4" d="M566.85,270.31c-0.34,2.21,0.89,4.36,2.74,4.82c1.86,0.46,3.64-0.97,3.99-3.17
					c0.34-2.2-0.89-4.36-2.75-4.82C568.98,266.69,567.19,268.11,566.85,270.31z"/>
			</g>
			<path class="st47" d="M556.78,286.24c0,0,8.79,0.27,10.01,0.11c3.81-0.51,6.18-4.05,5.34-5.96c-0.73-1.66-9.01-1.85-10.39,0.12
				c-0.74,1.06-0.92,2.98-0.92,2.98l-2.67-0.27C558.15,283.22,557.56,285.21,556.78,286.24z"/>
			<polygon class="st5" points="543.57,255.4 545.37,251.82 543.98,267.13 543.01,267.06 			"/>
			<path class="st49" d="M576.92,379.12c3.5,2.75,11.34,1.13,12.92-1.06l-0.35-2.35c0,0-9.77,1.32-12.79,1.35L576.92,379.12z"/>
			<path class="st49" d="M546.96,380.41c2.71,1.09,11.11-0.37,13.22-2.27l-0.07-1.69c0,0-5.94,2.22-13.38,1.69L546.96,380.41z"/>
		</g>
	</g>
	<g>
		<ellipse class="st17" cx="451.15" cy="452.36" rx="49.36" ry="7.64"/>
		<g>
			<g>
				<path class="st23" d="M485.13,449.82c-0.41,1.4-1.94,2.54-3.4,2.54h-63.62c-1.46,0-2.99-1.15-3.4-2.54l-11.76-40.08
					c-0.41-1.4,0.45-2.54,1.91-2.54h90.13c1.46,0,2.31,1.14,1.91,2.54L485.13,449.82z"/>
				<path class="st47" d="M500.51,404.39c0-1.46-1.19-2.65-2.65-2.65h-95.87c-1.46,0-2.65,1.19-2.65,2.65v3.54
					c0,1.46,1.19,2.65,2.65,2.65h95.87c1.46,0,2.65-1.19,2.65-2.65V404.39z"/>
				<path class="st26" d="M421,416.29c-0.88,0-1.59,0.71-1.59,1.59v26.09c0,0.88,0.71,1.59,1.59,1.59c0.88,0,1.59-0.71,1.59-1.59
					v-26.09C422.59,417.01,421.88,416.29,421,416.29z"/>
				<path class="st26" d="M429.51,416.29c-0.88,0-1.59,0.71-1.59,1.59v26.09c0,0.88,0.71,1.59,1.59,1.59c0.88,0,1.59-0.71,1.59-1.59
					v-26.09C431.1,417.01,430.38,416.29,429.51,416.29z"/>
				<path class="st26" d="M438.02,416.29c-0.88,0-1.59,0.71-1.59,1.59v26.09c0,0.88,0.71,1.59,1.59,1.59c0.88,0,1.59-0.71,1.59-1.59
					v-26.09C439.61,417.01,438.89,416.29,438.02,416.29z"/>
				<path class="st26" d="M446.52,416.29c-0.88,0-1.59,0.71-1.59,1.59v26.09c0,0.88,0.71,1.59,1.59,1.59c0.88,0,1.59-0.71,1.59-1.59
					v-26.09C448.11,417.01,447.4,416.29,446.52,416.29z"/>
				<path class="st26" d="M455.03,416.29c-0.88,0-1.59,0.71-1.59,1.59v26.09c0,0.88,0.71,1.59,1.59,1.59c0.88,0,1.59-0.71,1.59-1.59
					v-26.09C456.62,417.01,455.91,416.29,455.03,416.29z"/>
				<path class="st26" d="M463.54,416.29c-0.88,0-1.59,0.71-1.59,1.59v26.09c0,0.88,0.71,1.59,1.59,1.59c0.88,0,1.59-0.71,1.59-1.59
					v-26.09C465.13,417.01,464.42,416.29,463.54,416.29z"/>
				<path class="st26" d="M472.05,416.29c-0.88,0-1.59,0.71-1.59,1.59v26.09c0,0.88,0.71,1.59,1.59,1.59c0.88,0,1.59-0.71,1.59-1.59
					v-26.09C473.64,417.01,472.93,416.29,472.05,416.29z"/>
				<path class="st26" d="M480.56,416.29c-0.88,0-1.59,0.71-1.59,1.59v26.09c0,0.88,0.71,1.59,1.59,1.59s1.59-0.71,1.59-1.59v-26.09
					C482.15,417.01,481.44,416.29,480.56,416.29z"/>
				
					<rect x="399.97" y="379.42" transform="matrix(0.6738 -0.7389 0.7389 0.6738 -142.2619 442.3486)" class="st18" width="59.76" height="5.74"/>
				<path class="st18" d="M452.09,362.14c-0.51,0.56-1.87,0.14-3.04-0.92c-1.17-1.07-1.71-2.38-1.2-2.94
					c0.51-0.56,1.87-0.15,3.04,0.92C452.06,360.26,452.6,361.58,452.09,362.14z"/>
				<path class="st18" d="M411.93,406.39c-1.11,1.22-3,1.31-4.22,0.2c-1.22-1.11-1.31-3-0.2-4.22c1.11-1.22,3-1.31,4.22-0.2
					C412.95,403.28,413.04,405.17,411.93,406.39z"/>
				
					<rect x="466.09" y="352.41" transform="matrix(0.7389 -0.6739 0.6739 0.7389 -135.1453 415.8422)" class="st18" width="5.74" height="59.76"/>
				<path class="st18" d="M446.72,362.14c0.51,0.56,1.87,0.14,3.04-0.92c1.17-1.07,1.71-2.38,1.2-2.94
					c-0.51-0.56-1.87-0.15-3.04,0.92C446.75,360.26,446.21,361.58,446.72,362.14z"/>
				<path class="st18" d="M486.88,406.39c1.11,1.22,3,1.31,4.22,0.2c1.22-1.11,1.31-3,0.2-4.22c-1.11-1.22-3-1.31-4.22-0.2
					C485.86,403.28,485.77,405.17,486.88,406.39z"/>
			</g>
			<path class="st29" d="M421,416.29c-0.88,0-1.59,0.71-1.59,1.59v26.09c0,0.88,0.71,1.59,1.59,1.59c0.88,0,1.59-0.71,1.59-1.59
				v-26.09C422.59,417.01,421.88,416.29,421,416.29z"/>
			<path class="st29" d="M429.51,416.29c-0.88,0-1.59,0.71-1.59,1.59v26.09c0,0.88,0.71,1.59,1.59,1.59c0.88,0,1.59-0.71,1.59-1.59
				v-26.09C431.1,417.01,430.38,416.29,429.51,416.29z"/>
			<path class="st29" d="M438.02,416.29c-0.88,0-1.59,0.71-1.59,1.59v26.09c0,0.88,0.71,1.59,1.59,1.59c0.88,0,1.59-0.71,1.59-1.59
				v-26.09C439.61,417.01,438.89,416.29,438.02,416.29z"/>
			<path class="st29" d="M446.52,416.29c-0.88,0-1.59,0.71-1.59,1.59v26.09c0,0.88,0.71,1.59,1.59,1.59c0.88,0,1.59-0.71,1.59-1.59
				v-26.09C448.11,417.01,447.4,416.29,446.52,416.29z"/>
			<path class="st29" d="M455.03,416.29c-0.88,0-1.59,0.71-1.59,1.59v26.09c0,0.88,0.71,1.59,1.59,1.59c0.88,0,1.59-0.71,1.59-1.59
				v-26.09C456.62,417.01,455.91,416.29,455.03,416.29z"/>
			<path class="st29" d="M463.54,416.29c-0.88,0-1.59,0.71-1.59,1.59v26.09c0,0.88,0.71,1.59,1.59,1.59c0.88,0,1.59-0.71,1.59-1.59
				v-26.09C465.13,417.01,464.42,416.29,463.54,416.29z"/>
			<path class="st29" d="M472.05,416.29c-0.88,0-1.59,0.71-1.59,1.59v26.09c0,0.88,0.71,1.59,1.59,1.59c0.88,0,1.59-0.71,1.59-1.59
				v-26.09C473.64,417.01,472.93,416.29,472.05,416.29z"/>
			<path class="st29" d="M480.56,416.29c-0.88,0-1.59,0.71-1.59,1.59v26.09c0,0.88,0.71,1.59,1.59,1.59s1.59-0.71,1.59-1.59v-26.09
				C482.15,417.01,481.44,416.29,480.56,416.29z"/>
		</g>
	</g>
</g>
</svg>
