<?xml version="1.0" encoding="UTF-8"?>
<svg width="137px" height="30px" viewBox="0 0 137 30" version="1.1" xmlns="http://www.w3.org/2000/svg" xmlns:xlink="http://www.w3.org/1999/xlink">
    <!-- Generator: Sketch 58 (84663) - https://sketch.com -->
    <title>new logo copy 2</title>
    <desc>Created with Sketch.</desc>
    <g id="Pages" stroke="none" stroke-width="1" fill="none" fill-rule="evenodd">
        <g id="Desktop-HD" transform="translate(-794.000000, -385.000000)">
            <g id="new-logo-copy-2" transform="translate(794.000000, 385.000000)">
                <g id="Group-2" transform="translate(0.000000, 7.000000)" fill="#2688FF">
                    <path d="M8.64281617,18.5431702 C8.97028286,19.7652925 7.91477921,21.1099707 6.28528277,21.546593 C4.65578634,21.9832152 3.06935428,21.3464416 2.74188759,20.1243193 C2.4144209,18.9021969 3.46992456,17.5575188 5.09942099,17.1208965 C6.72891742,16.6842743 8.31534948,17.3210479 8.64281617,18.5431702 Z M21.8994207,16.5863511 C23.5289171,16.1497288 25.1153492,16.7865024 25.4428159,18.0086248 C25.7702826,19.2307471 24.7147789,20.5754253 23.0852825,21.0120475 C21.4557861,21.4486698 19.869354,20.8118961 19.5418873,19.5897738 C19.2144206,18.3676515 20.2699243,17.0229733 21.8994207,16.5863511 Z M5.32113464,0.37907729 C5.49649016,0.432372577 5.64683065,0.546954205 5.74471018,0.701904335 C6.58994563,2.03997097 7.12298563,3.33196736 7.3438302,4.57789351 C10.1461766,2.42767432 13.3990706,1.07231514 15.948962,1.07231514 C19.7306103,1.07231514 23.6014846,2.00978291 26.3170613,5.21981681 C28.2891984,7.55104426 30.4804617,12.7271505 26.0357468,14.3767252 C21.9299033,15.9005341 8.59873399,16.4916484 1.11053378,15.0919928 C0.397727919,14.9587588 0.298192802,14.2851741 0.588495192,13.3355428 C0.591044891,13.3192689 0.594931819,13.3034818 0.599681631,13.2878537 L4.36842723,0.887688722 C4.49103848,0.484139247 4.91759583,0.25643093 5.32113464,0.37907729 Z" id="Combined-Shape"></path>
                </g>
                <path d="M45.0677549,29.1418326 C42.9094411,28.8357456 41.3268561,28.4218014 40.32,27.9 C38.4933242,26.9533286 37.0666718,25.6400084 36.04,23.96 C35.0133282,22.2799916 34.5,20.373344 34.5,18.24 C34.5,16.106656 35.0133282,14.2000084 36.04,12.52 C37.0666718,10.8399916 38.4933242,9.5266714 40.32,8.58 C42.1466758,7.6333286 44.2066552,7.16 46.5,7.16 C48.766678,7.16 50.7466582,7.6333286 52.44,8.58 C53.0578406,8.92540698 53.7069643,9.48714316 54.3873709,10.2652086 C55.2553562,11.2577616 55.1543633,12.7660253 54.1618041,13.6340035 C54.0265223,13.7523055 53.8783155,13.8549545 53.72,13.94 C52.3777533,14.6610416 50.7364512,14.5220414 49.5345802,13.5855409 C48.4175904,12.7151803 47.3927304,12.28 46.46,12.28 C44.8333252,12.28 43.486672,12.813328 42.42,13.88 C41.353328,14.946672 40.82,16.3999908 40.82,18.24 C40.82,20.0800092 41.353328,21.533328 42.42,22.6 C43.486672,23.666672 44.8333252,24.2 46.46,24.2 C47.4018545,24.2 48.4275195,23.7672881 49.5369948,22.9018643 C50.73864,21.9645664 52.3821152,21.8302447 53.72,22.56 C54.8758509,23.1904641 55.301761,24.6385586 54.6712969,25.7944095 C54.5833763,25.9555973 54.4771286,26.1060884 54.3546338,26.2428604 C53.6861357,26.9896367 53.0479244,27.5353499 52.44,27.88 C51.5153517,28.4042101 50.0197116,28.8210768 47.9530797,29.1306002 L47.9530791,29.1305962 C46.9969047,29.2738043 46.0250157,29.2775891 45.0677549,29.1418326 Z" id="Path" fill="#000000" fill-rule="nonzero"></path>
                <path d="M67.2,7.16 C70.53335,7.16 73.0933244,7.9533254 74.88,9.54 C76.6666756,11.1266746 77.56,13.519984 77.56,16.72 L77.56,26.08 C77.56,27.6926715 76.2526715,29 74.64,29 L74.4,29 C72.9768047,29 71.8127128,27.8906464 71.7252726,26.4894874 L71.72,26.32 C70.5466608,28.32001 68.360016,29.32 65.16,29.32 C63.5066584,29.32 62.0733394,29.0400028 60.86,28.48 C59.6466606,27.9199972 58.7200032,27.1466716 58.08,26.16 C57.4399968,25.1733284 57.12,24.0533396 57.12,22.8 C57.12,20.79999 57.8733258,19.2266724 59.38,18.08 C60.8866742,16.9333276 63.2133176,16.36 66.36,16.36 L71.32,16.36 C71.32,14.9999932 70.9066708,13.953337 70.08,13.22 C69.2533292,12.486663 68.0133416,12.12 66.36,12.12 C65.2133276,12.12 64.0866722,12.2999982 62.98,12.66 C62.724132,12.7432342 62.4439421,12.8561361 62.1394304,12.9987058 C60.9897052,13.5370282 59.6201403,13.0692016 59.04,11.94 C58.418124,10.7295629 58.8952471,9.24417964 60.1056843,8.62230369 C60.1380635,8.60566848 60.1708074,8.58975286 60.2039003,8.57458683 C60.9321858,8.24033561 61.5775524,7.99547333 62.14,7.84 C63.7800082,7.3866644 65.466658,7.16 67.2,7.16 Z M71.32,20 L67.04,20 C64.4799872,20 63.2,20.8399916 63.2,22.52 C63.2,23.320004 63.5133302,23.953331 64.14,24.42 C64.7666698,24.886669 65.6266612,25.12 66.72,25.12 C67.786672,25.12 68.7333292,24.8733358 69.56,24.38 C70.3866708,23.8866642 70.9733316,23.1600048 71.32,22.2 L71.32,20 Z" id="Combined-Shape" fill="#000000" fill-rule="nonzero"></path>
                <path d="M86.46,10.32 C87.4540693,10.4779978 88.213327,8.493336 89.48,7.96 C90.746673,7.426664 92.2945072,8.0042793 92.9793838,9.1258221 C93.6642603,10.2473649 93.6642603,12.5057819 92.46,12.84 C90.6978872,13.3290388 89.2733384,13.339995 88.26,14.34 C87.2466616,15.340005 86.74,16.83999 86.74,18.84 L86.74,25.88 C86.74,27.6031284 85.3431284,29 83.62,29 C81.8968716,29 80.5,27.6031284 80.5,25.88 L80.5,10.46 C80.5,8.81419145 81.8341914,7.48 83.48,7.48 C84.8712399,7.48 86.0452494,8.51492305 86.21975,9.89517596 C86.2530073,10.158221 86.3330907,10.299829 86.46,10.32 Z" id="Path" fill="#000000" fill-rule="nonzero"></path>
                <path d="M106.261683,28.98 C104.039854,28.5990303 102.971781,28.5002063 101.489108,27.0081853 C100.006435,25.5161644 99.4411427,23.7530871 99.1250052,21.6254284 C98.914247,20.2069892 98.8088678,17.2518465 98.8088678,12.76 L97.6,12.76 C96.2745166,12.76 95.2,11.6854834 95.2,10.36 C95.2,9.0345166 96.2745166,7.96 97.6,7.96 L98.8088678,7.96 L98.8088678,7.96 L98.8088678,5.69556609 C98.8088678,4.05220631 100.141074,2.72 101.784434,2.72 C103.427794,2.72 104.76,4.05220631 104.76,5.69556609 L104.76,7.96 L104.76,7.96 L107.72,7.96 C109.045483,7.96 110.12,9.0345166 110.12,10.36 C110.12,11.6854834 109.045483,12.76 107.72,12.76 L104.76,12.76 L104.76,12.76 C104.520912,19.1971258 104.797781,22.8558666 105.590607,23.7362225 C107.289958,25.6231865 109.286675,23.7362225 109.956393,26.3955129 C110.465072,28.4153551 108.483512,29.3609697 106.261683,28.98 Z" id="Path" fill="#000000" fill-rule="nonzero"></path>
                <path d="M130.09817,27.3671605 L125.666259,20.8897091 C125.332118,20.401346 124.665347,20.2763242 124.176984,20.6104651 C124.06493,20.6871328 123.96847,20.7843993 123.892737,20.8970868 L119.757584,27.050036 C118.582639,28.7983099 116.395101,29.5617269 114.387515,28.9241071 C113.060818,28.5027409 112.326902,27.0856552 112.748268,25.7589575 C112.834211,25.4883589 112.965258,25.2342264 113.135874,25.0072902 L120.388628,15.3604065 C120.665872,14.9916455 120.675927,14.4868176 120.413589,14.1073085 L115.36211,6.79963952 C114.339693,5.32057045 114.572808,3.31262963 115.906894,2.10714286 C117.042414,1.08108111 118.794721,1.16981429 119.820783,2.30533395 C119.89858,2.39142952 119.970891,2.48232661 120.037292,2.57748835 L124.140075,8.45741806 C124.478682,8.94269517 125.146572,9.0615946 125.631849,8.72298738 C125.737915,8.64897855 125.829705,8.55637725 125.902778,8.44966402 L129.805083,2.75086227 C130.918539,1.12480637 132.979069,0.439924291 134.84438,1.07589286 C136.111665,1.50796736 136.788737,2.88557046 136.356662,4.1528555 C136.274777,4.393027 136.155694,4.61885399 136.003762,4.82208842 L129.243689,13.8648187 C128.966697,14.2353419 128.958797,14.7418026 129.224097,15.1207849 L134.860441,23.1723043 C135.901993,24.6601626 135.658358,26.6932252 134.294746,27.8928571 C133.123581,28.923185 131.338918,28.8090137 130.30859,27.6378483 C130.233033,27.5519634 130.162764,27.4615676 130.09817,27.3671605 Z" id="Path" fill="#000000" fill-rule="nonzero"></path>
            </g>
        </g>
    </g>
</svg>